<?xml version="1.0" standalone="no"?>
<!DOCTYPE svg PUBLIC "-//W3C//DTD SVG 20010904//EN"
 "http://www.w3.org/TR/2001/REC-SVG-20010904/DTD/svg10.dtd">
<svg version="1.0" xmlns="http://www.w3.org/2000/svg"
 width="197.000000pt" height="197.000000pt" viewBox="0 0 197.000000 197.000000"
 preserveAspectRatio="xMidYMid meet">
<metadata>
Created by potrace 1.14, written by Peter Selinger 2001-2017
</metadata>
<g transform="translate(0.000000,197.000000) scale(0.100000,-0.100000)"
fill="#000000" stroke="none">
<path d="M906 1961 c-3 -4 6 -7 20 -5 35 3 43 14 11 14 -14 0 -28 -4 -31 -9z"/>
<path d="M1378 1958 c6 -6 18 -8 28 -6 14 3 12 5 -9 10 -19 3 -25 2 -19 -4z"/>
<path d="M870 1949 c0 -5 5 -7 10 -4 6 3 10 8 10 11 0 2 -4 4 -10 4 -5 0 -10
-5 -10 -11z"/>
<path d="M1280 1953 c0 -5 -81 -7 -180 -7 -99 1 -183 -3 -186 -7 -3 -5 -10 -7
-15 -4 -5 4 -9 1 -9 -5 0 -7 -7 -9 -16 -6 -10 4 -14 1 -11 -6 2 -7 -4 -24 -13
-38 -9 -14 -20 -38 -24 -53 -4 -15 -10 -26 -15 -23 -4 3 -7 -5 -6 -17 1 -12
-3 -31 -9 -42 -5 -11 -11 -22 -11 -25 -5 -31 -17 -60 -25 -55 -5 3 -11 1 -15
-5 -3 -5 -1 -10 4 -10 17 0 13 -30 -5 -37 -8 -3 -13 -12 -10 -20 9 -24 -5 -63
-23 -63 -12 0 -13 -2 -3 -9 10 -6 10 -10 -3 -21 -12 -10 -15 -10 -15 0 0 8 -3
10 -6 7 -4 -4 -2 -13 5 -21 13 -15 5 -66 -10 -66 -5 0 -6 -7 -3 -15 4 -8 1
-15 -5 -15 -6 0 -11 -12 -11 -26 0 -17 -4 -23 -12 -18 -7 5 -9 2 -5 -8 3 -9
-1 -25 -9 -37 -8 -12 -13 -25 -10 -30 7 -11 -14 -74 -28 -83 -6 -4 -7 -10 -4
-14 4 -3 -3 -25 -14 -48 -12 -22 -21 -49 -19 -58 1 -10 -4 -28 -11 -40 -7 -13
-13 -25 -14 -28 0 -3 -3 -12 -6 -20 -3 -8 -13 -41 -23 -72 -10 -32 -21 -55
-26 -53 -4 3 -5 -4 -2 -15 3 -11 0 -20 -6 -20 -6 0 -8 -7 -4 -17 4 -9 2 -14
-4 -10 -5 3 -9 -4 -9 -16 1 -13 -4 -21 -11 -20 -7 2 -13 -2 -13 -7 0 -6 4 -10
9 -10 6 0 3 -20 -6 -45 -9 -27 -19 -42 -26 -38 -6 4 -8 0 -4 -10 4 -10 2 -29
-4 -44 -5 -14 -11 -51 -13 -82 -3 -31 -1 -47 3 -37 7 19 8 19 16 0 4 -10 7
-23 6 -27 -1 -5 3 -6 8 -2 12 7 34 -32 26 -45 -4 -6 3 -7 17 -2 30 10 197 0
180 -11 -7 -5 -10 -12 -8 -16 3 -4 0 -13 -5 -21 -8 -13 -10 -13 -18 -1 -6 10
-8 0 -4 -29 4 -30 3 -41 -5 -36 -6 3 -14 1 -18 -5 -4 -8 -3 -9 4 -5 15 9 15
-6 1 -38 -7 -14 -16 -23 -20 -20 -5 3 -9 0 -9 -5 0 -6 4 -11 9 -11 6 0 6 -11
0 -29 -13 -36 -6 -126 8 -126 6 0 15 -3 19 -8 4 -4 1 -7 -6 -7 -25 0 8 -25 38
-29 77 -10 466 -11 476 -1 8 8 7 10 -5 5 -10 -4 -16 0 -16 10 0 8 5 15 12 15
6 0 19 19 29 43 10 23 29 64 43 90 13 27 19 46 12 42 -7 -5 -10 -3 -7 6 3 8
11 13 17 11 7 -1 10 2 6 8 -4 6 -3 24 0 41 6 26 9 28 23 17 12 -10 14 -10 8 0
-4 7 -2 12 5 12 8 0 8 4 1 13 -13 16 -3 77 12 77 7 0 11 12 10 31 -2 23 1 29
12 25 12 -4 12 -2 4 14 -6 11 -7 20 -2 20 5 0 12 18 16 40 4 27 10 39 18 34 8
-5 9 -2 5 10 -4 10 -1 19 9 23 11 4 12 8 4 13 -8 5 -7 12 5 23 9 9 13 22 10
27 -4 6 -1 17 5 25 7 8 9 15 4 15 -4 0 0 6 11 13 10 8 15 19 11 26 -5 7 0 18
10 26 11 8 14 15 7 15 -9 0 -8 9 2 34 8 19 24 64 36 100 12 36 26 63 30 60 5
-3 6 2 3 10 -3 9 -1 16 6 16 6 0 9 4 6 9 -9 14 15 72 27 64 6 -3 7 -1 3 6 -10
16 3 53 16 45 7 -4 8 -2 4 5 -4 6 0 18 9 27 11 11 13 20 6 28 -7 8 -6 21 4 39
8 15 14 30 15 32 3 21 14 34 24 28 7 -4 7 -1 -1 9 -7 8 -10 18 -6 22 26 25 21
175 -5 184 -7 2 -9 9 -5 15 4 6 0 8 -10 4 -9 -3 -18 1 -21 10 -4 10 -2 14 8
10 10 -4 13 -1 9 9 -4 10 -9 12 -16 5 -5 -5 -17 -7 -26 -4 -14 4 -14 3 -1 -7
12 -9 9 -10 -15 -5 -16 4 -58 7 -92 6 -35 -1 -63 0 -63 3 0 2 7 12 16 20 8 9
11 16 5 16 -6 0 -8 7 -5 15 4 8 11 12 17 8 6 -3 7 -1 3 6 -9 14 2 53 14 46 4
-3 6 4 3 14 -3 10 1 30 8 42 7 13 12 30 10 38 -1 7 2 10 7 7 5 -3 9 21 9 54 0
33 -3 60 -7 60 -5 0 -6 8 -3 18 2 10 -5 26 -16 36 -12 11 -21 14 -21 8 0 -7
-5 -12 -11 -12 -5 0 -7 5 -3 12 4 7 3 8 -4 4 -6 -4 -25 0 -42 9 -16 8 -30 12
-30 8z m40 -108 c8 -9 10 -25 5 -42 -4 -16 -9 -39 -11 -52 -3 -13 -10 -34 -17
-45 -7 -12 -12 -25 -13 -31 -2 -27 -28 -95 -37 -95 -5 0 -7 -7 -3 -15 3 -8 4
-15 3 -16 -20 -6 -157 -12 -157 -7 0 5 5 8 12 8 6 0 8 3 5 7 -4 3 -25 -13 -47
-36 -24 -25 -45 -39 -53 -35 -9 5 -9 4 0 -6 12 -13 10 -20 -19 -87 -6 -16 -12
-31 -13 -35 -2 -5 -3 -9 -5 -10 -1 -2 -3 -10 -5 -18 -7 -37 -58 -177 -71 -198
-8 -12 -12 -27 -9 -32 3 -6 1 -10 -5 -10 -6 0 -9 -4 -6 -9 7 -11 -4 -42 -13
-37 -3 2 -7 -12 -8 -32 -1 -19 -8 -39 -15 -43 -7 -5 -9 -9 -5 -9 5 0 5 -6 0
-12 -4 -7 -9 -22 -10 -33 -2 -11 -8 -22 -13 -23 -6 -2 -8 -7 -5 -12 8 -13 -23
-91 -43 -107 -9 -8 -11 -12 -4 -8 10 5 11 0 6 -22 -9 -37 -14 -44 -25 -38 -5
4 -9 -2 -10 -12 0 -10 -2 -27 -4 -38 -2 -11 -7 -34 -10 -52 -3 -18 -17 -46
-31 -62 -17 -21 -21 -31 -12 -34 7 -3 -24 -6 -70 -6 -64 -1 -82 2 -76 12 5 9
4 9 -6 0 -21 -19 -53 28 -41 60 6 14 14 28 20 31 6 4 8 12 5 20 -5 13 42 154
57 171 5 5 9 19 9 32 0 12 8 27 18 32 10 6 12 11 4 11 -10 0 -9 7 3 30 8 16
15 33 15 39 0 5 5 22 12 38 6 15 12 35 14 43 9 42 42 119 48 113 4 -4 4 0 0
10 -3 10 -1 17 6 17 6 0 8 5 5 10 -8 14 25 101 45 118 8 8 9 11 3 7 -17 -8
-16 0 2 34 8 16 11 31 8 35 -4 3 -1 6 6 6 8 0 11 7 7 15 -3 8 -2 15 2 15 4 0
8 8 9 18 1 15 53 174 70 212 3 8 7 17 7 20 6 31 31 88 37 84 5 -3 6 2 3 11 -4
8 1 26 10 40 9 14 14 25 10 25 -4 0 -1 7 6 15 7 8 17 12 23 8 6 -4 8 0 4 10
-6 16 10 17 177 17 150 0 186 -3 196 -15z m-126 -394 c8 -12 -23 -111 -34
-111 -6 0 -10 -13 -10 -30 0 -16 -5 -30 -10 -30 -6 0 -10 -6 -8 -12 5 -25 -12
-69 -24 -62 -7 5 -9 2 -5 -9 7 -20 -12 -79 -23 -72 -4 3 -6 -4 -3 -15 4 -15 0
-20 -13 -20 -14 0 -15 -3 -6 -8 10 -7 -6 -61 -68 -233 -44 -123 -87 -239 -95
-257 -8 -18 -15 -39 -15 -46 0 -8 -11 -21 -25 -30 -20 -13 -30 -14 -46 -5 -15
8 -19 8 -15 0 4 -6 0 -11 -10 -11 -18 0 -19 -6 24 118 15 45 32 79 37 75 4 -5
5 -2 1 5 -9 15 33 142 46 142 5 0 7 4 4 9 -10 16 6 42 22 36 12 -4 12 -3 3 9
-9 11 -8 24 4 57 9 24 17 50 17 57 1 7 8 10 16 7 11 -4 12 -2 4 8 -9 10 -6 27
9 68 12 30 41 113 66 184 50 144 66 177 87 169 8 -3 17 -1 21 5 8 13 42 15 49
2z m265 -8 c14 -9 21 -11 17 -5 -4 7 -3 12 3 12 18 0 32 -38 22 -57 -5 -10
-17 -44 -27 -75 -9 -32 -21 -58 -26 -58 -6 0 -8 -7 -4 -15 3 -8 -2 -21 -10
-30 -9 -8 -11 -15 -6 -15 6 0 8 -9 5 -20 -3 -11 -9 -20 -14 -20 -5 0 -6 8 -3
18 5 14 4 14 -4 3 -6 -8 -7 -22 -3 -30 9 -18 -31 -126 -42 -115 -3 4 -5 -3 -2
-14 2 -12 0 -24 -6 -27 -5 -4 -9 -15 -9 -25 0 -10 -10 -26 -22 -34 -12 -9 -16
-16 -9 -16 15 0 9 -32 -16 -89 -9 -20 -17 -39 -18 -43 -2 -5 -4 -10 -5 -13 -3
-7 -7 -23 -9 -36 0 -6 -8 -8 -17 -5 -15 6 -15 4 -3 -10 11 -14 10 -17 -4 -26
-10 -5 -15 -14 -11 -19 7 -12 -15 -99 -26 -99 -4 0 -7 -6 -7 -13 0 -27 -36
-106 -46 -100 -6 4 -8 0 -4 -10 7 -18 -22 -99 -33 -92 -5 3 -6 -4 -3 -15 6
-23 -26 -120 -40 -120 -5 0 -7 -6 -4 -14 3 -8 -1 -20 -8 -26 -8 -7 -13 -16
-10 -20 7 -11 -13 -63 -27 -71 -18 -11 -358 -9 -358 2 0 6 -4 8 -9 5 -5 -3
-11 0 -14 8 -7 18 3 56 14 56 5 0 8 8 7 18 -3 37 2 63 12 57 10 -6 14 6 10 39
-1 11 3 15 9 12 7 -4 8 -1 5 8 -3 9 -1 16 6 16 6 0 9 4 6 8 -3 5 0 25 6 44 10
35 12 35 65 37 60 1 143 32 143 53 0 9 3 9 11 -2 8 -12 9 -12 7 5 -2 20 37
140 54 161 5 7 11 20 13 30 11 56 42 134 50 127 4 -4 5 0 2 10 -4 9 -2 17 3
17 5 0 7 7 4 15 -6 13 6 20 29 16 4 0 7 4 7 10 0 6 -7 9 -15 5 -19 -7 -19 1 0
20 8 8 12 21 9 29 -4 8 -1 15 6 15 6 0 9 4 6 8 -3 5 4 37 16 71 15 44 24 58
31 49 6 -9 7 -8 3 5 -3 11 -3 24 1 30 4 7 8 18 9 27 4 28 41 120 46 115 3 -3
6 6 6 20 0 14 8 32 18 40 13 10 15 14 5 15 -11 0 -11 3 -1 15 7 8 9 15 5 15
-4 0 0 11 9 25 9 14 14 25 11 25 -4 0 4 18 16 40 23 40 23 40 84 40 40 0 68
-6 84 -17z"/>
<path d="M1286 1828 c7 -11 34 -10 34 1 0 6 -9 9 -19 8 -11 0 -17 -5 -15 -9z"/>
<path d="M1285 1729 c-4 -6 -5 -12 -2 -15 2 -3 7 2 10 11 7 17 1 20 -8 4z"/>
<path d="M986 1433 c-6 -14 -5 -15 5 -6 7 7 10 15 7 18 -3 3 -9 -2 -12 -12z"/>
<path d="M683 1095 c0 -8 4 -12 9 -9 5 3 6 10 3 15 -9 13 -12 11 -12 -6z"/>
<path d="M495 579 c-4 -6 -5 -12 -2 -15 2 -3 7 2 10 11 7 17 1 20 -8 4z"/>
<path d="M991 1094 c0 -11 3 -14 6 -6 3 7 2 16 -1 19 -3 4 -6 -2 -5 -13z"/>
<path d="M1312 1429 c-14 -22 -7 -25 14 -5 8 8 11 17 6 20 -4 2 -13 -4 -20
-15z"/>
<path d="M1220 1189 c0 -5 5 -7 10 -4 6 3 10 8 10 11 0 2 -4 4 -10 4 -5 0 -10
-5 -10 -11z"/>
<path d="M900 419 l-25 -20 33 16 c17 8 32 18 32 20 0 10 -16 4 -40 -16z"/>
<path d="M805 1839 c-4 -6 -5 -12 -2 -15 2 -3 7 2 10 11 7 17 1 20 -8 4z"/>
<path d="M716 1563 c-6 -14 -5 -15 5 -6 7 7 10 15 7 18 -3 3 -9 -2 -12 -12z"/>
<path d="M597 1243 c3 -7 6 -13 8 -13 2 0 5 6 8 13 3 8 -1 14 -8 14 -7 0 -11
-6 -8 -14z"/>
<path d="M1541 1204 c0 -11 3 -14 6 -6 3 7 2 16 -1 19 -3 4 -6 -2 -5 -13z"/>
<path d="M1491 1014 c0 -11 3 -14 6 -6 3 7 2 16 -1 19 -3 4 -6 -2 -5 -13z"/>
<path d="M1440 940 c0 -5 5 -10 11 -10 5 0 7 5 4 10 -3 6 -8 10 -11 10 -2 0
-4 -4 -4 -10z"/>
<path d="M470 400 c-9 -6 -10 -10 -3 -10 6 0 15 5 18 10 8 12 4 12 -15 0z"/>
<path d="M1163 135 c0 -8 4 -12 9 -9 5 3 6 10 3 15 -9 13 -12 11 -12 -6z"/>
<path d="M1131 64 c0 -11 3 -14 6 -6 3 7 2 16 -1 19 -3 4 -6 -2 -5 -13z"/>
</g>
</svg>
