<svg version="1.1" id="Capa_1" xmlns="http://www.w3.org/2000/svg" xmlns:xlink="http://www.w3.org/1999/xlink" x="0px" y="0px"
	 viewBox="0 0 339.1 152" style="enable-background:new 0 0 339.1 152;" xml:space="preserve">
<style type="text/css">
	.st0{fill:#030303;}
	.st1{fill:none;stroke:#6752ED;stroke-width:5;stroke-linecap:round;stroke-linejoin:round;stroke-miterlimit:10;}
</style>
<g>
	<path class="st0" d="M109.4,78.6c5.4-5.6,17.1-5.5,21.8,2.3c3.4-5.2,8.8-7.2,15.2-5.7c5.6,1.4,9.2,5.5,9.6,11.6
		c0.5,7.9,0.1,15.8,0.2,23.6c0,1.2-0.5,1.5-1.6,1.4c-2.2-0.1-4.5-0.1-6.7,0c-1.5,0.1-1.9-0.5-1.9-1.9c0.1-5.9,0-11.8,0-17.7
		c0-1,0-2.1-0.2-3.1c-0.4-3.3-2.4-5.3-5.6-5.5c-3.5-0.2-6.1,1.5-6.9,4.6c-0.4,1.3-0.5,2.7-0.5,4c0,5.8-0.1,11.6,0.1,17.4
		c0,1.7-0.5,2.2-2.1,2.1c-2.1-0.1-4.2-0.1-6.2,0c-1.5,0.1-1.9-0.4-1.8-1.9c0.1-6.4,0.1-12.9,0-19.3c0-4.8-2.6-7.2-7.2-6.8
		c-3.4,0.3-5.7,2.7-5.8,6.4c-0.2,6.4-0.2,12.7-0.1,19.1c0,2-0.5,2.7-2.5,2.5c-2.6-0.3-6.1,1.1-7.6-0.5c-1.3-1.4-0.4-4.8-0.4-7.4
		c0-8.7,0-17.4,0-26c0-1.6,0.3-2.3,2.1-2.1c1.5,0.2,3,0.1,4.5,0C108,75.7,109.7,75.8,109.4,78.6z"/>
	<path class="st0" d="M310.8,88.6c3.7-3.9,7.2-7.5,10.7-11.3c0.9-1,1.9-1.5,3.3-1.5c3.5,0.1,7,0,11,0c-2.3,2.5-4.3,4.6-6.3,6.7
		c-2.7,2.8-5.3,5.7-8.1,8.5c-1.2,1.2-1.1,1.9-0.1,3.1c4.4,5.7,8.8,11.5,13.5,17.7c-4.3,0-8.1,0-12,0c-0.9,0-1.1-0.8-1.6-1.3
		c-2.6-3.5-5.2-7.1-7.8-10.6c-2.4,1.3-3.1,3.3-3,5.9c0.1,1.9,0.9,4.5-0.4,5.7c-1.1,1-3.6,0.3-5.5,0.4c-4.3,0-4.3,0-4.3-4.3
		c0-21.7,0-43.5-0.1-65.2c0-2,0.5-2.6,2.5-2.4c2.6,0.3,6.1-1.1,7.5,0.6c1.3,1.5,0.4,4.8,0.4,7.4c0,12.7,0,25.3,0,38
		C310.4,86.6,310.1,87.5,310.8,88.6z"/>
	<path class="st0" d="M191.1,108.1c-6.5,6.7-18.4,5.5-24.1-0.1c-6.6-6.6-7-19.8-0.9-27.3c4.8-5.9,16.8-8.8,25.1-1.8
		c-0.6-3.8,1.9-3.1,3.9-3.1c1.9,0.1,4.4-0.8,5.5,0.4c1.1,1.2,0.3,3.6,0.3,5.5c0.2,9.5-0.4,19.1,0.5,28.6c0.1,1.3-0.3,1.5-1.4,1.4
		c-1.7-0.1-3.4-0.1-5,0C192.5,112.1,190.6,111.9,191.1,108.1z M172.2,93.6c0,5.7,3.8,9.9,9.1,9.9c5.2,0,9.2-4.2,9.2-9.8
		c0-5.6-3.9-9.8-9.3-9.7C176,84,172.2,88,172.2,93.6z"/>
	<path class="st0" d="M256.5,99c2.8-7.1,5.6-14.3,8.3-21.4c0.5-1.3,1.1-1.9,2.5-1.8c2.4,0.1,4.8,0.1,7.2,0c1.1,0,1.6,0.1,1.1,1.4
		c-4.7,11.1-9.4,22.2-14,33.4c-0.4,1-1,1.3-2,1.2c-0.1,0-0.2,0-0.2,0c-2.8-0.1-6.1,0.8-8.2-0.4c-2-1.2-2.3-4.7-3.3-7.2
		c-3.5-8.7-6.9-17.4-10.4-26.1c-0.7-1.7-0.8-2.6,1.5-2.4c2.9,0.3,6.6-1.1,8.6,0.5c1.9,1.5,2.2,5.1,3.1,7.8c1.6,4.5,3.2,9,4.8,13.4
		C255.8,98.1,255.8,98.7,256.5,99z"/>
	<path class="st0" d="M218.6,79.5c3.4-3.9,7.7-4.5,12.4-3.8c1,0.1,1.5,0.4,1.5,1.6c-0.1,2.6,0,5.2,0,8.1c-2.1-0.4-4-0.6-6-0.3
		c-4.2,0.6-7,3.6-7.5,8.1c-0.5,5.5-0.2,11.1-0.2,16.7c0,1.6-0.4,2.3-2.1,2.1c-2.3-0.2-4.6-0.1-6.9,0c-1.1,0-1.5-0.3-1.5-1.5
		c0-11,0-21.9,0-32.9c0-1.3,0.4-1.6,1.7-1.6c1.8,0.1,3.7,0.1,5.5,0c1.8-0.1,3,0.2,2.8,2.3C218.3,78.6,218.5,79,218.6,79.5z"/>
	<path class="st0" d="M291.3,93.7c0,5.4-0.1,10.8,0,16.2c0,1.6-0.5,2-2,2c-2.2-0.1-4.5-0.1-6.7,0c-1.1,0-1.7-0.2-1.7-1.5
		c0-11,0-22,0-32.9c0-1.3,0.5-1.6,1.7-1.6c2.4,0.1,4.8,0.1,7.2,0c1.3-0.1,1.6,0.5,1.6,1.7C291.2,82.9,291.3,88.3,291.3,93.7z"/>
	<path class="st0" d="M286.2,69.8c-3.3,0.1-6-2.5-6.1-5.7c-0.1-3.5,2.4-6.1,5.8-6.3c3.3-0.1,6.2,2.6,6.2,6
		C292.1,67,289.5,69.8,286.2,69.8z"/>
</g>
<g>
	<path class="st1" d="M65.9,39.1c4.1,0.5,8.2,0.4,12.2,0.2c5.2-0.3,8.3,4.7,6.6,9.2C80.8,58.6,77.3,69,73.6,79.3
		c-5.2,14.5-10.5,29-15.8,43.5c-1.6,4.5-3.1,9.1-4.8,13.6c-1.5,3.9-4,5.4-7.6,5.3c-6.9-0.2-13.7-0.1-20.6-0.1
		c-4.7,0-7.7-4.2-6.2-8.6c2.2-6.4,4.8-12.6,6.5-19.1c0.1-0.4,0.5-0.6,0.7-1c2.7,0,5.4,0,8.2,0c2.7,0,5.3-1.8,6.2-4.3
		c8-22.5,16.1-44.9,24.4-67.2c2.8-7.3,5-14.9,7.7-22.2c1.7-4.5-1.4-8.5-6-8.6c-7.5-0.1-15,0-22.5,0c-3,0-5.5,1.7-6.5,4.5
		c-8,23-16,45.9-24,68.9C10.8,91,8.1,97.8,6,104.8c-1.2,4.2,1.4,8.1,5.8,8.1c3.5,0,7,0,10.5,0c1,0,2,0.1,2.9,0.5"/>
	<path class="st1" d="M64.5,39.6c-3.2-0.5-6.4-0.4-9.6-0.1c-2.9,0.2-4.6,2.5-5.5,5.2c-2.6,7.4-5.1,14.8-7.7,22.2
		C36.6,81.4,31.5,96,26.4,110.6c-0.2,0.7-0.3,1.4-0.5,2.1"/>
</g>
</svg>
