<svg id="Capa_1" xmlns="http://www.w3.org/2000/svg" viewBox="0 0 112.8 168.76"><defs><style>.cls-1{fill:none;stroke:#6752ed;stroke-linecap:round;stroke-linejoin:round;stroke-width:7px;}</style></defs><path class="cls-1" d="M87.18,27.93c-2.38,6.46-4.43,13.05-6.75,19.53-.33,.9-.65,1.8-.99,2.69-8.37,22.32-16.44,44.75-24.42,67.21-.9,2.51-3.52,4.29-6.23,4.3-1.91,.01-3.82,0-5.73,0-2.39-.04-4.35-.03-5.77-.01-.59,.01-2.19,.09-4.4,.1-2.26,0-3.9-.07-6.15-.09-4.39-.05-7.02-3.92-5.78-8.13,2.09-7.05,4.77-13.88,7.2-20.81,8.04-22.94,15.99-45.91,23.99-68.86,.99-2.83,3.44-4.54,6.47-4.54,7.51-.02,15.02-.09,22.53,.02,4.58,.07,7.69,4.09,6.03,8.59Z"/><path class="cls-1" d="M99.38,56.76c-2.38,6.46-4.43,13.05-6.75,19.53-.33,.9-.65,1.8-.99,2.69-8.37,22.32-16.44,44.75-24.42,67.21-.9,2.51-3.52,4.29-6.23,4.3-1.91,.01-3.82,0-5.73,0-2.39-.04-4.35-.03-5.77-.01-.59,.01-2.19,.09-4.4,.1-2.26,0-3.9-.07-6.15-.09-4.39-.05-7.02-3.92-5.78-8.13,2.09-7.05,4.77-13.88,7.2-20.81,8.04-22.94,15.99-45.91,23.99-68.86,.99-2.83,3.44-4.54,6.47-4.54,7.51-.02,15.02-.09,22.53,.02,4.58,.07,7.69,4.09,6.03,8.59Z"/></svg>