<svg id="Capa_1"
	 viewBox="0 0 926.3 302.2" style="enable-background:new 0 0 926.3 302.2;" xml:space="preserve">
	 <defs>
<style type="text/css">
	.st0{fill:#E0D3FB;}
</style>
</defs>
<g>
	<path class="st0" d="M83.7,163.6c-11.2,0-21.5,0-31.7,0c-4.2,0-8.3-0.1-12.5,0c-2.9,0.1-3.4-1-2.6-3.6c1.6-5.1,5.2-7.9,10.5-9.7
		c-3.4-2.8-7.5-4-9.5-7.9c-2.5-5.2-2-6.3,3.7-6.3c24.8,0,49.6,0,74.4,0.1c3,0,5.2-0.8,7.6-2.8c13.2-11.3,28.7-19.1,44-27
		c1.6-0.8,3.2-1.2,3.4-3.7c1.4-21,19-30.1,38.2-28.5c12.8,1.1,23.1,6.4,30.3,17.4c2,3,5.1,4,8.7,3.8c5.7-0.3,11.4-0.4,16.6,2.3
		c1.1,0.6,3.1,0.4,2.9,2.2c-0.2,1.6-2,1.5-3.2,1.9c-3.4,1.4-7,2-10.7,2.2c-9.1,0.5-12.7,3.2-15.7,11.8c-1.9,5.5-3.3,11.1-4.3,16.9
		c-4,22.8-17,38.9-37.5,49c-4.3,2.1-5,4-3.5,8.4c4.6,13.3,8.6,26.9,13,40.3c1.1,3.3,1.3,4.9-3.2,4.8c-11.2-0.2-11.1,0-14.6-10.6
		c-3.5-10.7-7.3-21.4-10.4-32.2c-1.6-5.6-5-2.3-7.4-2.1c-3.4,0.3-1.5,3.1-1,4.6c3.7,12.1,7.5,24.1,11.5,36.1
		c1.3,3.8,0.3,4.4-3.4,4.3c-11.3-0.3-11.1-0.2-14.5-10.9c-4.5-14.4-9.4-28.7-13.9-43.1c-1-3.3-3-2.9-5.3-2.9
		c-21.3,0-42.6,0-63.9-0.1c-5.2,0-5.2-0.1-2.9-4.9C78.4,169.9,80.9,167.3,83.7,163.6z M214.8,98.8c-0.1-2.5,1.1-4.2,2-5.9
		c1.6-3.1,0.7-4.1-2.6-4c-5.2,0.2-9.3,4.3-9.2,9.7c0.1,4.9,4.1,9.1,9.1,9.4c5.2,0.2,9.7-3.8,10-9c0.2-3.1-0.5-4-3.5-2.1
		C219,97.8,217.2,98.9,214.8,98.8z"/>
	<path class="st0" d="M553.2,132.1c7.2-5.4,13.4-9.7,20.8-12.4c22.9-8.5,51.8,5.8,57.1,28.4c1.1,4.9,1.3,9.9,1.3,14.8
		c0,23-0.1,45.9,0.1,68.9c0,4-1.1,5.1-5,5c-11.3-0.3-22.6-0.2-34,0c-3.6,0.1-4.5-1.1-4.4-4.5c0.2-20-0.1-39.9,0.2-59.9
		c0.2-13.1-5.7-18.3-15.4-19.1c-10.2-0.8-19.5,6.9-21,17.3c-0.5,3.4-0.6,7-0.6,10.5c-0.1,17.1-0.1,34.3,0,51.4
		c0,3.2-0.6,4.4-4.1,4.4c-11.5-0.2-23-0.2-34.5,0c-3.1,0-4.3-0.6-4.3-4.1c0.1-47.8,0.1-95.5,0-143.3c0-3.1,0.9-4,3.9-3.9
		c12,0.2,24,0.2,36,0c3.1,0,4,1,3.9,4C553.1,103.3,553.2,117.1,553.2,132.1z"/>
	<path class="st0" d="M817.9,133.2c14.6-15.8,32.3-18,51.3-15.3c18.1,2.6,31.6,17.7,31.7,36.1c0.2,26.3,0,52.6,0.1,78.9
		c0,3-0.6,4.1-3.8,4c-11.5-0.2-23-0.2-34.4,0c-3.4,0-4.5-0.9-4.5-4.5c0.2-20.1-0.2-40.3,0.2-60.4c0.3-13.5-6.3-18.8-13-20
		c-9.1-1.7-18.1,4.3-21.6,14.6c-1.7,4.9-2.7,9.9-2.7,15.1c0,16.8-0.1,33.6,0.1,50.4c0,3.5-0.6,4.9-4.5,4.8
		c-11.1-0.3-22.3-0.2-33.4,0c-3.3,0-4.6-0.8-4.6-4.4c0.1-36.6,0.1-73.2,0-109.8c0-3.1,0.9-4,4-3.9c10.5,0.2,21,0.2,31.5,0
		c3.2-0.1,4,1.1,3.8,4.1C817.8,125.8,817.9,129.1,817.9,133.2z"/>
	<path class="st0" d="M338.5,222.6c-15.6,21.3-51.1,18.9-65.1,7.4c-10.1-8.3-14.7-19.2-14.9-31.9c-0.3-25.1-0.1-50.3-0.2-75.4
		c0-3.2,0.7-4.4,4.1-4.3c11.5,0.2,23,0.2,34.4,0c3.2,0,4.2,0.9,4.2,4.2c-0.2,20.5-0.1,40.9-0.1,61.4c0,6.9,1.2,13.3,7.7,17.3
		c9.2,5.7,22,1.1,26.5-9.3c2.4-5.6,3.1-11.5,3.1-17.5c0-17,0.1-33.9-0.1-50.9c0-4,1-5.1,5-5c11,0.3,22,0.2,32.9,0
		c3.5-0.1,4.9,0.6,4.9,4.6c-0.2,36.4-0.1,72.9,0,109.3c0,3.2-0.7,4.4-4.1,4.3c-10.3-0.2-20.6-0.1-30.9,0c-2.9,0-4.6-0.5-5-3.9
		C340.7,229.6,339.5,226.5,338.5,222.6z"/>
	<path class="st0" d="M759.7,194.3c0,12.8-0.1,25.6,0.1,38.4c0,2.9-0.6,4.1-3.8,4c-9.6-0.2-19.3-0.2-29,0c-3.7,0.1-4.6-1.3-4.4-4.6
		c0.1-2.4,1.2-6.2-0.5-7c-2.3-1.1-4.2,2.3-6.3,3.7c-13,8.9-27.1,12.2-42.6,8.5c-16.1-3.8-25.9-14.3-28-29.8
		c-2.2-15.9,4.7-29.3,19.3-37.2c14.4-7.8,30.1-8.8,46-8.2c1.7,0.1,3.3,0.2,5,0.4c5.8,0.4,6.8-0.9,4.4-6.3c-2.2-5-6.4-7.9-11.6-9.3
		c-13.1-3.5-25.4-0.1-37.6,4.1c-10,3.4-9.9,3.6-9.9-6.9c0-4.8,0.1-9.7,0-14.5c0-2.1,0.5-3.6,2.5-4.4c27.3-11.1,54.3-12.7,80.2,3.5
		c11,6.9,16.5,17.4,16.4,30.7C759.5,171,759.6,182.7,759.7,194.3C759.6,194.3,759.7,194.3,759.7,194.3z M708.7,185.6
		c-3.8-0.1-8.6,0.3-13.2,1.6c-5.3,1.4-9.8,4.3-10.9,10.3c-0.8,4.4,0.6,8.3,4.2,11c7.2,5.5,16.9,4.3,22.8-2.7c2.4-2.8,4.2-6,5.5-9.4
		C721.5,185.6,721.4,185.4,708.7,185.6z"/>
	<path class="st0" d="M461.9,238.8c-17.5-0.4-34-4.6-47.7-15.9c-17.2-14.1-21.5-33.3-19-54.4c4-33.4,32.4-50.6,61.8-51.7
		c11.8-0.4,23.2,1.4,34.2,5.6c2.6,1,3.5,2.2,3,5.1c-1.2,7.2-2,14.5-2.5,21.8c-0.3,3.9-1.6,4.4-4.9,3c-7.9-3.3-16.2-3.3-24.5-3
		c-22.3,0.9-28.2,21.1-24.4,35.8c3.1,12.2,13.8,20,27.6,20.2c7.5,0.1,15-0.5,22.1-3.1c2.8-1,3.7-0.3,4,2.7
		c0.7,7.8,1.7,15.5,2.8,23.2c0.4,2.6-0.7,3.6-2.8,4.4C482,236.5,472.3,239.3,461.9,238.8z"/>
	<path class="st0" d="M146.4,63.3c-5.9,18.6-12,37.2-17.8,55.8c-2.8,9.1-7.6,13-17,13c-12.5,0-25-0.1-37.4,0c-3.2,0-4.8,0.2-3.2-4.1
		c9.4-26.8,18.5-53.7,27.5-80.6c1.2-3.5,2.9-4.5,6.4-4.4c28,0.1,55.9,0.1,83.9,0c3.5,0,5.3,0.7,6.3,4.5c1.8,6.7,4.3,13.3,6.7,19.8
		c0.9,2.4,0.8,3.4-2.3,3.7c-19.2,1.8-28.3,10.1-32,28.8c-0.4,2.2-1.4,3.3-3.3,4.4c-2.9,1.6-4,0.8-4.9-2.1
		c-3.6-11.9-7.3-23.8-11-35.7C147.9,65.3,148.1,64,146.4,63.3z"/>
	<path class="st0" d="M75.3,167.7c-2.7,3.5-3.9,7.1-5.3,10.6c-1.1,2.9-0.5,3.7,2.6,3.7c10.5-0.1,21,0.1,31.4-0.1
		c3.8-0.1,4.4,0.7,3.2,4.5c-5,14.8-9.6,29.7-14.2,44.6c-0.9,3-2.3,4.2-5.5,4.2c-16.6-0.2-33.3-0.2-49.9,0c-3.5,0-4.4-0.8-3.1-4.2
		c7.2-19.8,14.3-39.7,21.3-59.6c0.9-2.6,2.1-3.8,4.9-3.6C65.3,167.9,69.9,167.7,75.3,167.7z"/>
	<path class="st0" d="M230.7,155.1c4.2,11.8,8.2,22.8,12.1,33.8c4.8,13.6,9.5,27.2,14.5,40.8c1.4,3.8,1.5,5.5-3.5,5.4
		c-12.6-0.3-25.3-0.2-37.9,0c-3.3,0-5-0.7-6-4.2c-4.1-13.8-8.5-27.6-12.9-41.3c-0.9-2.7-0.7-3.8,2.3-5.1
		C212.8,178.5,222.6,168.4,230.7,155.1z"/>
</g>
</svg>
