<svg xmlns="http://www.w3.org/2000/svg" version="1.1" viewBox="0 0 619.4 171.3">
  <!-- Generator: Adobe Illustrator 28.6.0, SVG Export Plug-In . SVG Version: 1.2.0 Build 709)  -->
  <g>
    <g id="Capa_1">
      <g>
        <path fill="#E0D3FB" d="M176.4,86h-35.3V5.7h38.4c3.2,0,6.2.2,9,.6,2.8.4,5.4,1,8,1.9,2.5.9,4.7,2.1,6.5,3.5,1.8,1.4,3.2,3.2,4.3,5.4,1.1,2.2,1.6,4.7,1.6,7.6,0,4.8-1.9,8.5-5.8,11.3-3.8,2.7-10.1,4.3-18.7,4.7v1.4c11.2-.6,19.4.8,24.6,4.3,5.2,3.5,7.9,8.7,7.9,15.5s-.5,5.9-1.5,8.4c-1,2.5-2.3,4.6-3.8,6.2-1.5,1.7-3.5,3.1-5.8,4.3-2.3,1.2-4.6,2.1-6.9,2.8-2.3.7-4.8,1.2-7.7,1.6-2.9.4-5.4.6-7.6.8s-4.5.2-7.1.2ZM168.2,25.3v11.8h6.6c3.5,0,6.1-.5,7.8-1.4,1.7-.9,2.6-2.5,2.6-4.6s-.8-3.6-2.5-4.5c-1.7-.9-4.3-1.3-7.8-1.3h-6.6ZM168.2,50.4v12.7h9.6c4.4,0,7.5-.6,9.2-1.7,1.8-1.1,2.7-2.8,2.7-4.9,0-4.1-3.4-6.1-10.2-6.1h-11.3Z"/>
        <path fill="#E0D3FB" d="M269.6,87.4c6.8,0,12.1-2.4,15.7-7.3,3.7-4.9,5.5-12.8,5.5-23.6V17.2h-26.8v24.4c0,1.8,0,3.3,0,4.5,0,1.2-.1,2.5-.3,4.1-.2,1.5-.4,2.7-.8,3.7s-.8,1.9-1.4,2.7-1.3,1.5-2.3,1.9c-.9.4-2,.6-3.2.6s-1.9-.1-2.7-.4c-.7-.2-1.5-.8-2.4-1.7s-1.5-2.2-2-3.8c-.5-1.6-.9-3.9-1.3-6.7s-.5-6.4-.5-10.4v-18.9h-26.9v68.8h27.2l-4.4-39.1h1.2c.8,7.6,1.8,13.9,3,18.9,1.2,5,2.8,9.2,4.8,12.5,2,3.3,4.4,5.7,7.3,7.1,2.8,1.4,6.3,2.1,10.3,2.1Z"/>
        <path fill="#E0D3FB" d="M332.3,87.4c-5.8,0-11-.9-15.9-2.8-4.8-1.8-8.8-4.4-12.1-7.6-3.2-3.2-5.7-7-7.5-11.4-1.8-4.4-2.7-9.1-2.7-14.1s.9-9.6,2.7-13.9c1.8-4.3,4.3-8.1,7.5-11.3,3.2-3.2,7.2-5.8,12-7.6,4.8-1.9,10.1-2.8,15.9-2.8s8.5.6,12.4,1.9c3.8,1.3,6.8,2.6,9,4.2v28.1h-1.5c-6.9-5.9-13.6-8.9-20.1-8.9s-3,.2-4.4.6-2.7,1-3.9,1.7-2.2,1.9-3,3.3-1.1,3-1.1,4.9.7,4.5,2,6.2c1.3,1.7,2.8,2.8,4.6,3.4,1.8.6,3.7.9,5.8.9,6.5,0,13.2-2.9,20.1-8.8h1.5v28.1c-2.1,1.5-5.1,2.9-9,4.1-3.8,1.2-8,1.8-12.4,1.8Z"/>
        <path fill="#E0D3FB" d="M431.2,84.1v2h-29.6l-11-27.1-5.3,5.7v21.3h-.1v83.6h-27.1v-86h0V0h27.2l-3.8,52.1h1.1c.8-5,1.8-9.7,3.3-13.9,1.4-4.3,2.9-7.6,4.4-10.1,1.5-2.5,3-4.6,4.4-6.3,1.4-1.8,2.6-2.9,3.5-3.6l1.3-.9h29.8v2l-20.7,22.7,22.3,42.2Z"/>
        <path fill="#E0D3FB" d="M461.4,87.4c-5.8,0-11.1-.9-16-2.8-4.9-1.8-9-4.4-12.3-7.6-3.3-3.2-5.9-7-7.8-11.4-1.9-4.4-2.8-9.1-2.8-14.1s.9-9.5,2.6-13.9c1.7-4.4,4.1-8.2,7.2-11.4,3.1-3.2,6.8-5.8,11.3-7.6,4.5-1.9,9.3-2.8,14.5-2.8s8.6.6,12.5,1.9c3.9,1.3,7.3,3.1,10.3,5.5,3,2.4,5.3,5.5,7.1,9.2,1.7,3.7,2.6,7.9,2.6,12.5s-.3,5.4-.9,8.7l-42.5-1.9c.4,3.8,2.1,6.6,5.2,8.4s6.9,2.7,11.5,2.7c8.4,0,15.7-2.3,22-6.8h1.5v25.4c-2.9,1.8-6.6,3.2-11.1,4.3-4.6,1.1-9.5,1.7-14.9,1.7ZM448.1,45.5l19.4-1c-.6-1.7-1.6-3.1-3.2-4.1-1.6-1-3.5-1.5-5.8-1.5s-4.3.6-6.2,1.7c-1.9,1.1-3.3,2.7-4.2,4.9Z"/>
        <path fill="#E0D3FB" d="M536,60.7c-1.3,2-2.8,2.9-4.7,2.9s-3.6-.7-4.5-2.1c-.9-1.4-1.3-3.3-1.3-5.9V5.7h-20.4c0,4.5-1.1,7.7-3.4,9.6-2.3,1.8-5.8,2.8-10.6,2.8v15.4h7.3v30.6c0,7.1,1.9,12.7,5.8,17,3.9,4.3,9.3,6.4,16.3,6.4s12.6-1.9,16.7-5.8v-21h-1.4Z"/>
        <path fill="#E0D3FB" d="M585.9,87.4c-10.4,0-19.6-2-27.6-6v-27.8h1.7c7.3,7.3,16.2,10.9,26.7,10.9s3.7-.2,5-.7c1.2-.4,1.8-1.1,1.8-1.8s-.5-1-1.6-1.3c-1-.4-2.4-.6-4.1-.9s-3.6-.6-5.8-1c-2.2-.4-4.4-.9-6.7-1.4-2.3-.5-4.5-1.3-6.7-2.4-2.2-1.1-4.1-2.3-5.8-3.8-1.7-1.4-3.1-3.3-4.1-5.6-1-2.3-1.6-4.9-1.6-7.9s.8-6.8,2.5-9.7c1.7-2.9,4-5.2,6.9-6.9s6.1-3.1,9.7-4c3.6-.9,7.4-1.3,11.5-1.3,9.7,0,18.9,2.3,27.6,6.9v24.4h-1.5c-3.4-3-7.5-5.3-12.4-7.1s-9.9-2.7-15-2.7-7.2.9-7.2,2.7.7,1.3,2.2,1.8c1.5.5,3.4.9,5.7,1.2,2.4.3,5,.7,7.8,1.2,2.9.4,5.7,1.1,8.6,2.1,2.9.9,5.5,2.1,7.8,3.4,2.4,1.3,4.3,3.2,5.7,5.6,1.5,2.4,2.2,5.2,2.2,8.4,0,5.4-1.5,9.9-4.4,13.5s-6.9,6.2-11.8,7.8c-4.9,1.6-10.7,2.4-17.3,2.4Z"/>
        <path fill="#E0D3FB" d="M557.3,17.3c-3,6.9-6.1,13.9-9.1,20.8-5.3-.2-10.6-.5-15.9-.7v-20.3c2.1,0,4.2,0,6.4,0,1.2,0,2.4,0,3.5,0,0,0,0,0,0,0,1.1,0,2.2,0,3.3,0,3.9,0,7.8,0,11.8,0Z"/>
      </g>
      <g>
        <path fill="#E0D3FB" d="M29.7,127c1.2-.8,2.5-1.4,3.9-1.7,1.4-.4,2.8-.6,4.4-.6,6.5,0,13.2,2.9,20.1,8.9h1.5v-28.1c-2.2-1.5-5.2-2.9-9-4.2-3.8-1.3-8-1.9-12.4-1.9s-11,.9-15.9,2.8c-4.8,1.9-8.8,4.4-12,7.6-3.2,3.2-5.7,7-7.5,11.3-1.8,4.3-2.7,9-2.7,13.9s.9,9.8,2.7,14.1c1.8,4.4,4.3,8.2,7.5,11.4,3.2,3.2,7.3,5.8,12.1,7.6,4.8,1.9,10.1,2.8,15.9,2.8s8.5-.6,12.4-1.9c3.8-1.2,6.8-2.6,9-4.1v-28.1h-1.5c-6.9,5.9-13.6,8.9-20.1,8.9s-4-.3-5.8-.9c-1.8-.6-3.3-1.8-4.6-3.4-1.3-1.7-2-3.7-2-6.2s.4-3.5,1.1-4.9c.8-1.4,1.7-2.5,3-3.3Z"/>
        <path fill="#E0D3FB" d="M129.3,106.7c-3.7-4.9-8.9-7.3-15.7-7.3s-13.8,3-17.6,9c-3.7,6-6.3,16.5-7.9,31.5h-1.1l3.8-49.5-26.6,1.3v77.9h26.8v-14.2c0-3.1,0-5.7.1-7.9,0-2.2.2-4.4.5-6.7.2-2.3.6-4.1,1-5.6.5-1.5,1-2.8,1.8-4.1.7-1.2,1.6-2.1,2.6-2.7s2.3-.9,3.7-.9,2.1.2,3,.6,1.5,1,2.1,1.9c.5.9.9,1.8,1.3,2.8.3,1,.6,2.2.7,3.7.2,1.5.3,2.9.3,4.1,0,1.2,0,2.7,0,4.5v24.4h26.9v-39.2c0-10.9-1.8-18.7-5.5-23.6Z"/>
        <path fill="#E0D3FB" d="M211.7,121.4c-1.8-4.4-4.4-8.2-7.6-11.4-3.3-3.2-7.3-5.8-12.1-7.7-4.8-1.9-10-2.8-15.7-2.8s-8.9.6-12.9,1.8c-4,1.2-7.6,2.9-10.6,5.1-3.1,2.2-5.7,4.8-7.9,7.8-2.2,3-3.9,6.3-5,9.9-1.1,3.6-1.7,7.4-1.7,11.3s.9,9.6,2.7,13.9c1.8,4.3,4.3,8.1,7.6,11.4,3.3,3.2,7.3,5.8,12.1,7.6,4.8,1.9,10.1,2.8,15.9,2.8s11.1-.9,15.9-2.8c4.8-1.9,8.8-4.4,12-7.6,3.2-3.2,5.7-7,7.5-11.4,1.8-4.3,2.7-9,2.7-13.9s-.9-9.5-2.8-13.9ZM186.5,143.1c-2.6,1.8-6,2.6-10.2,2.6s-7.5-.9-10.1-2.6c-2.6-1.8-3.9-4.3-3.9-7.8s1.3-6,3.9-7.8c2.6-1.8,6-2.7,10-2.7s7.5.9,10.2,2.7c2.6,1.8,4,4.4,4,7.8s-1.3,6-4,7.8Z"/>
        <path fill="#E0D3FB" d="M246.3,127c1.2-.8,2.5-1.4,3.9-1.7,1.4-.4,2.8-.6,4.4-.6,6.5,0,13.2,2.9,20.1,8.9h1.5v-28.1c-2.2-1.5-5.2-2.9-9-4.2-3.8-1.3-7.9-1.9-12.4-1.9s-11,.9-15.9,2.8c-4.8,1.9-8.8,4.4-12,7.6-3.2,3.2-5.7,7-7.5,11.3-1.8,4.3-2.7,9-2.7,13.9s.9,9.8,2.7,14.1c1.8,4.4,4.3,8.2,7.5,11.4,3.2,3.2,7.3,5.8,12.1,7.6,4.8,1.9,10.1,2.8,15.9,2.8s8.5-.6,12.4-1.9c3.8-1.2,6.8-2.6,9-4.1v-28.1h-1.5c-7,5.9-13.7,8.9-20.1,8.9s-4-.3-5.8-.9c-1.8-.6-3.3-1.8-4.6-3.4-1.3-1.7-2-3.7-2-6.2s.4-3.5,1.1-4.9c.7-1.4,1.7-2.5,3-3.3Z"/>
        <path fill="#E0D3FB" d="M352,121.4c-1.8-4.4-4.4-8.2-7.6-11.4-3.3-3.2-7.3-5.8-12.1-7.7-4.8-1.9-10-2.8-15.7-2.8s-8.9.6-12.9,1.8c-4,1.2-7.6,2.9-10.6,5.1-3.1,2.2-5.7,4.8-7.9,7.8-2.2,3-3.9,6.3-5,9.9-1.1,3.6-1.7,7.4-1.7,11.3s.9,9.6,2.7,13.9c1.8,4.3,4.3,8.1,7.6,11.4,3.3,3.2,7.3,5.8,12.1,7.6,4.8,1.9,10.1,2.8,15.9,2.8s11.1-.9,15.9-2.8c4.8-1.9,8.8-4.4,12-7.6,3.2-3.2,5.7-7,7.5-11.4,1.8-4.3,2.7-9,2.7-13.9s-.9-9.5-2.8-13.9ZM326.8,143.1c-2.6,1.8-6,2.6-10.2,2.6s-7.5-.9-10.1-2.6c-2.6-1.8-3.9-4.3-3.9-7.8s1.3-6,3.9-7.8c2.6-1.8,6-2.7,10-2.7s7.5.9,10.2,2.7c2.6,1.8,3.9,4.4,3.9,7.8s-1.3,6-3.9,7.8Z"/>
        <path fill="#E0D3FB" d="M449.9,108.4c-6.6-6-15.5-9-26.7-9s-10.4.6-15.4,1.8c-5,1.2-9.3,2.6-13,4.4v26h1.5c3.1-2.2,6.7-4.1,10.9-5.5,4.2-1.4,8.4-2.2,12.4-2.2,7.4,0,12,1.7,13.7,5v1c-3.8-.6-7.7-.9-11.8-.9s-6.6.2-9.6.6c-3,.4-6,1.2-9,2.3-3,1.1-5.5,2.4-7.6,4.1-2.1,1.6-3.8,3.8-5.2,6.4-1.3,2.6-2,5.7-2,9s.6,6.3,1.8,8.9c1.2,2.6,2.8,4.6,4.9,6.1,2.1,1.5,4.4,2.6,7,3.4,2.6.8,5.4,1.1,8.4,1.1,7.8,0,13.9-2.6,18.4-7.8,4.5-5.2,6.8-13.1,7.2-23.8h1.3l-3.4,28v2.2h26.1v-37.1c0-10.1-3.3-18.1-9.9-24.1ZM427.7,148.3c-2,2.4-4.7,3.6-8,3.6s-3.4-.4-4.7-1.3c-1.3-.9-1.9-2.1-1.9-3.8s1-3.8,3-5.3c2-1.5,5.3-2.2,10-2.2h5c-.3,3.6-1.5,6.6-3.5,9Z"/>
        <path fill="#E0D3FB" d="M506.6,119.1v-18.4h-11.8v-11.5h-20.4c0,4.5-1.1,7.7-3.4,9.6-2.3,1.8-5.8,2.8-10.6,2.8v15.4h7.3v30.6c0,7.1,1.9,12.7,5.8,17,3.9,4.3,9.3,6.4,16.3,6.4s12.6-1.9,16.7-5.8v-21h-1.4c-1.3,2-2.8,2.9-4.6,2.9s-3.6-.7-4.5-2.1c-.9-1.4-1.3-3.3-1.3-5.9v-21.9l11.8,1.9Z"/>
        <path fill="#E0D3FB" d="M576.9,128.5c0-4.6-.9-8.8-2.6-12.5-1.7-3.7-4.1-6.8-7.1-9.2-3-2.4-6.4-4.2-10.3-5.5-3.9-1.3-8.1-1.9-12.5-1.9s-10.1.9-14.5,2.8c-4.5,1.9-8.2,4.4-11.3,7.6-3.1,3.2-5.5,7-7.2,11.4-1.7,4.4-2.6,9-2.6,13.9s.9,9.7,2.8,14.1c1.9,4.4,4.5,8.2,7.8,11.4,3.3,3.2,7.4,5.7,12.3,7.6,4.9,1.9,10.2,2.8,16,2.8s10.4-.6,14.9-1.7c4.6-1.1,8.3-2.5,11.1-4.3v-25.4h-1.5c-6.3,4.5-13.7,6.8-22,6.8s-8.4-.9-11.4-2.7c-3-1.8-4.8-4.6-5.2-8.4l42.5,1.9c.6-3.3.9-6.2.9-8.7ZM534.5,129.1c.9-2.2,2.3-3.8,4.2-4.9,1.9-1.1,3.9-1.7,6.2-1.7s4.2.5,5.8,1.5c1.6,1,2.7,2.3,3.2,4.1l-19.4,1Z"/>
      </g>
      <g>
        <path fill="#E0D3FB" d="M106.9,24.9c-1.2,9.7-2.3,19.4-3.5,29.1-.4,3.1-.7,6.3-1.1,9.4-.8.6-1.6,1-1.9,1.3-8.4,6.5-26.6,7-32.1,7h33.1c0,.8-.2,1.5-.3,2.3-1,.5-2.3,1.3-4,2.1-2.6,1.2-9.5,4.3-18.9,5.2-3.1.3-16.7,1.3-31.6-5.8-1.6-.8-3-1.5-3.9-2,0-.6-.1-1.1-.2-1.7-.2-1.8-.4-3.5-.6-5.3-.9-7.6-1.8-15.3-2.6-24.1.3,0,.5,0,.8,0,11.9,0,21.5-9.6,21.5-21.5s0-.8,0-1.2c5.8-2.1,10-7.7,10-14.3,1.9,0,3,0,3,0,0,0,15,.4,24.8,5.3,1.3.7,2.6,1.4,3.6,2.2.8.6,2.5,1.9,3.5,4.2.8,1.9.9,4.2.5,7.8Z"/>
        <path fill="#E0D3FB" d="M27.3,84h0c0-6.9,5.4-12.4,12-12.4h65.5c6.6,0,12,5.5,12,12.4h0c0,1.1-.9,2-2,2H29.3c-1.1,0-1.9-.9-1.9-2Z"/>
      </g>
      <circle fill="#E0D3FB" cx="600.3" cy="149.2" r="19.1"/>
    </g>
  </g>
</svg>