<svg version="1.1" id="Capa_1" xmlns="http://www.w3.org/2000/svg" xmlns:xlink="http://www.w3.org/1999/xlink" x="0px" y="0px"
	 viewBox="0 0 841.2 254.8" style="enable-background:new 0 0 841.2 254.8;" xml:space="preserve">
<style type="text/css">
	.st0{fill:#DED1F9;}
</style>
<g>
	<path class="st0" d="M111,37.9c0-5.9,0-12.2,0-19.2c5.7,0.5,11.6,0.6,17.3,1.5c22.9,3.5,42.3,13.8,58.6,30.3
		c22.5,22.8,45.2,45.2,67.8,67.9c0.8,0.8,1.6,1.7,2.6,2.7c-2.7,2.9-5.3,5.6-8,8.3c-22.7,22.6-45,45.8-68.4,67.7
		c-20.3,19-45.3,27.1-73.3,25.9c-25.9-1.1-48-10.6-66.5-28.4c-16.2-15.6-26.1-34.6-29.4-56.8c-0.8-5.3-1.2-10.7-1.8-16.5
		c6.5,0,12.3-0.1,18.2,0.1c0.6,0,1.6,1.8,1.6,2.8c0.6,16.8,5.6,32.1,15.7,45.5c18.4,24.5,43.1,36.2,73.8,34.2
		c37.5-2.5,69.7-32.5,75.4-69.6c6.4-41.7-18.7-81.1-59.3-92.5C127.7,39.4,119.5,39.1,111,37.9z"/>
	<path class="st0" d="M149.6,141.1c6.8,5.4,13.4,10.7,20,16c-14.1,22.8-42.8,37.6-74.3,29.4c-29.4-7.7-49.7-33.7-50.4-63.1
		c-0.7-33.7,21.2-59.7,49.6-67.3c31.6-8.4,60.5,5.8,75.1,29.2c-6.6,5.3-13.3,10.6-20.3,16.2c-9.3-13.5-21.4-21.9-38.1-21.5
		c-11.1,0.3-20.7,4.8-28.4,12.8c-15.9,16.6-15.2,41.7,1,58C97.9,164.9,129.7,170.6,149.6,141.1z"/>
	<path class="st0" d="M478.7,136c0-24.1,0-47.7,0-71.5c5.7,0,11.2,0,16.9,0c0.1,1.2,0.2,2.4,0.3,3.7c14.4-9.3,28-8.9,41.1,3.1
		c5.4-5.7,12.1-8.6,20-9.3c17.9-1.6,31,9,31.8,27c0.7,15.5,0.1,31.1,0.1,46.9c-6,0-11.9,0-18.3,0c-0.1-1-0.2-2.1-0.2-3.3
		c0-12.1,0-24.1,0-36.2c0-2.4-0.2-4.8-0.8-7.1c-1.7-6.7-7.2-10.6-13.7-10.2c-6.7,0.5-12.2,5.6-12.6,12.3c-0.4,6.7-0.3,13.5-0.3,20.2
		c0,8,0,16,0,24.3c-6.3,0-12.2,0-18.5,0c0-1.3,0-2.5,0-3.6c0-12.7,0-25.4,0-38.2c0-8.7-5.6-15-13.3-15.1c-8-0.1-14.2,6.3-14.2,15.1
		c-0.1,12.7,0,25.4,0,38.2c0,1.2,0,2.3,0,3.6C490.8,136,484.8,136,478.7,136z"/>
	<path class="st0" d="M603.1,32c5.7,0,11.5,0,17.4,0c0,12.6,0,24.9,0,37.4c0.5-0.1,0.9-0.1,1.1-0.3c15.4-11.9,39.5-8.2,50.5,12.5
		c8.7,16.4,4.6,38.2-9.4,49.5c-12,9.6-28,10.1-40.6,1.2c-0.8-0.5-1.6-1-2.7-1.8c0,2.1,0,3.8,0,5.8c-5.5,0-10.8,0-16.3,0
		C603.1,101.7,603.1,66.9,603.1,32z M658.1,99.9c-0.1-0.8-0.1-2.4-0.4-3.8c-1.6-7.1-5.4-12.5-12.4-15.2c-6.7-2.5-12.7-0.9-17.9,3.6
		c-9.7,8.5-8.9,25.6,1.5,33.3c7.2,5.3,16.6,4.6,22.9-1.6C656.1,111.9,658,106.6,658.1,99.9z"/>
	<path class="st0" d="M372.3,102.8c4.9,3.9,9.5,7.6,14.1,11.2c-9.3,15.5-31.2,27.5-54.6,21.7c-21.9-5.5-38.2-25.2-38.6-46.6
		c-0.4-24.6,14-44.8,36.4-51.2c21.9-6.2,46,2.6,57,21.2c-4.7,3.4-9.3,6.9-14.3,10.5c-8.3-9.9-18-16.9-31.7-15.2
		c-8.6,1-15.7,4.9-21.3,11.5c-11.4,13.6-10.1,32.4,3.1,44.5c7.5,6.8,16.4,9.4,26.5,8C359.1,116.9,366.3,111,372.3,102.8z"/>
	<path class="st0" d="M464.5,136c-5.7,0-10.9,0-16.4,0c0-1.8,0-3.4,0-5.3c-0.6,0.2-1,0.2-1.3,0.4c-16.5,13.4-42,7.9-51.9-14
		c-8.6-19-1.3-42.5,16.3-51.3c11.9-6,23.5-4.9,34.5,2.7c0.6,0.4,1.2,0.9,2.2,1.6c0.1-2.1,0.2-3.7,0.3-5.6c5.4,0,10.8,0,16.3,0
		C464.5,88.3,464.5,112,464.5,136z M447,100.2c0-6.4-2.4-12.1-6.7-16.1c-7.9-7.3-20.2-5.9-26.6,3.1c-6.3,8.8-5.2,21.7,2.6,28.9
		c5.5,5,11.8,6.2,18.8,3.4C442.5,116.7,447,109.1,447,100.2z"/>
	<path class="st0" d="M811.3,70.2c0-2.3,0-3.9,0-5.7c5.4,0,10.7,0,16.3,0c0,23.7,0,47.4,0,71.5c-5.2,0-10.6,0-16.2,0
		c-0.1-1.6-0.2-3.3-0.2-5.1c-0.5,0.1-0.8,0.1-1,0.3c-16.6,13.6-42.4,8-52.2-14.4c-7.1-16.3-2.6-36.2,10.5-46.9
		c12.1-9.8,28.1-10.3,40.8-1C809.7,69.1,810.2,69.4,811.3,70.2z M791.6,121c10.8,0.1,19.4-9.9,18.8-21.5c-0.6-10.4-7-18.4-15.8-19.7
		c-12-1.8-22.2,8.4-21.5,21.5C773.6,112.5,781.5,120.9,791.6,121z"/>
	<path class="st0" d="M685.4,64.4c5.8,0,11.3,0,17,0c0.2,1.3,0.3,2.5,0.5,3.9c11-8.1,22.6-8.8,34.2-2c9.5,5.6,13.6,16.2,12.4,30.8
		c-6,0-12,0-18.6,0c0-1.4,0.1-2.8,0-4.3c-0.3-7.7-5.9-13.5-13-13.7c-7.1-0.1-13.5,5.4-13.9,12.9c-0.4,8.7-0.2,17.4-0.3,26.1
		c0,5.9,0,11.7,0,17.8c-6.2,0-12.2,0-18.4,0C685.4,112.1,685.4,88.5,685.4,64.4z"/>
	<path class="st0" d="M639.7,173.4c-6.6-5.6-12.5-6.2-17.7-2.3c-5.2,4-6.9,11.3-4.1,17.3c2.5,5.4,8.5,8.4,14.3,7.1
		c5.1-1.1,8.4-4.8,8.4-10c-3.4,0-6.8,0-10.5,0c0-1.6,0-2.9,0-4.4c5.1,0,10.1,0,15.2,0c1.8,6.9-2.6,15-9.5,17.6
		c-8.3,3.1-18.1-0.4-21.9-8c-4.2-8.3-1.5-18.7,5.9-23.4c7.4-4.8,17.2-3.3,22.8,3.6C641.7,171.7,640.8,172.5,639.7,173.4z"/>
	<path class="st0" d="M459.1,199.6c-1.5,0-2.7,0-4.5,0c0-4.7,0-9.5,0-14.2c0-2.6-0.7-4.8-3.5-5.6c-3-0.9-6,1-6.3,4.4
		c-0.3,3.4-0.2,6.9-0.3,10.4c0,1.6,0,3.2,0,5c-1.6,0-2.9,0-4.6,0c0-4.1,0-8.2,0-12.3c0-5.2-1.4-7.4-4.7-7.5
		c-3.6-0.1-5.6,2.4-5.7,7.6c-0.1,4,0,8,0,12.3c-1.6,0-3,0-4.6,0c0-7.6,0-15.3,0-23.3c1.2-0.1,2.5-0.1,4-0.2c0.2,1.1,0.4,2.1,0.6,3.1
		c6.3-5,10.3-4.8,14.4,0.9c2-2.9,4.5-4.6,8.2-4.4c3.8,0.2,6.8,2.3,7,6C459.3,187.5,459.1,193.5,459.1,199.6z"/>
	<path class="st0" d="M562.8,164.2c1.7,0,2.8,0,4.2,0c0,11.8,0,23.5,0,35.3c-1.3,0-2.5,0-3.8,0c-0.1-1.1-0.2-2.3-0.3-2.8
		c-2.6,1-5.3,2.5-8.1,3.1c-3.2,0.7-5.9-0.9-8.1-3.3c-4.3-4.9-4-13.5,0.6-18.2c4.3-4.4,9.3-4.2,15.5,0.8
		C562.8,174.1,562.8,169.3,562.8,164.2z M563.1,187.9c0.1-4.6-3.1-8.4-7.2-8.5c-4.1-0.2-7.7,3.7-7.8,8.4c0,4.5,3.3,8.3,7.4,8.3
		C559.7,196.1,563,192.5,563.1,187.9z"/>
	<path class="st0" d="M391.7,170.8c-0.9,0.9-1.7,1.9-2.8,3c-3.4-3.1-7.4-5.6-12-4.4c-3.1,0.8-6.3,2.6-8.5,4.9
		c-4.6,4.8-3.9,12.7,0.9,17.4c5.1,5.1,12.4,5.1,19.1-0.2c1,0.9,2,1.8,3,2.6c-3.1,4.8-10.6,7.2-17.3,5.4c-7.5-1.9-12.8-8.5-13.2-16.4
		c-0.4-7.7,4.4-14.8,11.7-17.5C379.5,163.2,387.4,165.3,391.7,170.8z"/>
	<path class="st0" d="M315.9,199.6c-1.2,0-2.3,0-3.6,0c-0.1-1.3-0.2-2.5-0.3-4.2c-2.5,3.4-5.5,5.3-9.3,4.4c-2.3-0.5-4.8-1.6-6.5-3.2
		c-4.8-4.5-4.6-13.2,0-18c4.5-4.8,9.6-4.6,15.8,0.7c0-5.2,0-10.1,0-15.2c1.5-0.1,2.5-0.1,3.9-0.2
		C315.9,175.9,315.9,187.7,315.9,199.6z M312.1,187.7c0-4.6-3.2-8.3-7.3-8.4c-4.2-0.1-7.6,3.8-7.6,8.5c0,4.7,3.3,8.2,7.5,8.2
		C308.8,196,312.1,192.4,312.1,187.7z"/>
	<path class="st0" d="M757.5,199.3c-1.2,0-2.4,0-3.7,0c-0.1-1.1-0.3-2.1-0.4-3.6c-2.5,3.1-5.6,5.2-9.4,4.2c-2.4-0.6-5-1.8-6.7-3.6
		c-4.7-5-4-14.3,1.1-18.9c4.3-3.9,9.7-3.4,14.8,1.7c0.2-1.2,0.3-2.2,0.4-3.4c1.2,0,2.3,0,3.7,0C757.5,183.6,757.5,191.4,757.5,199.3
		z M753.6,187.9c0.2-4.7-3.1-8.8-7.1-8.9c-4.1-0.2-7.7,3.6-7.8,8.3c-0.1,4.8,3.1,8.6,7.3,8.7C750.1,196.1,753.5,192.5,753.6,187.9z"
		/>
	<path class="st0" d="M596.3,189.1c-6.1,0-12,0-18,0c0.9,7.3,6.4,9.2,13.2,4.7c0.8,0.7,1.7,1.5,2.5,2.3c-3.7,4.4-10.2,5.4-14.9,2.5
		c-5.1-3.2-7.1-10.1-4.5-16.2c2.3-5.6,7.9-8.3,13.8-6.8C593.8,177,597,182.2,596.3,189.1z M578.7,185.4c4.3,0,8.6,0,12.9,0
		c-0.2-4.2-2.4-6.5-6.1-6.6C581.5,178.8,579,181.1,578.7,185.4z"/>
	<path class="st0" d="M487,189.1c-5.9,0-11.8,0-17.9,0c0,3.2,1.4,5.3,3.8,6.6c3.3,1.7,6.3,0.6,9.1-1.8c0.9,0.7,1.8,1.4,2.7,2.2
		c-3.3,4.3-9.7,5.5-14.4,2.8c-5.3-3-7.5-10.1-5-16.3c2.3-5.7,8.2-8.6,14.1-6.9C484.7,177.2,487.9,182.6,487,189.1z M482.5,185.5
		c-0.9-4.9-3.1-6.9-7.2-6.6c-3.6,0.2-5.8,2.7-6,6.6C473.7,185.5,478,185.5,482.5,185.5z"/>
	<path class="st0" d="M343.2,196.1c-3,4.8-11.2,4.9-14.8,2.5c-5.1-3.3-7.1-10.1-4.6-16.2c2.3-5.4,7.6-8.2,13.2-7
		c5.8,1.3,9,6.2,8.5,13.5c-6,0-12,0-18.1,0c1,7.5,6.4,9.4,13.2,4.9C341.4,194.6,342.3,195.3,343.2,196.1z M340.7,185.4
		c-0.3-4.2-2.4-6.4-6.1-6.6c-4-0.1-6.3,2.1-7,6.6C332,185.4,336.4,185.4,340.7,185.4z"/>
	<path class="st0" d="M690.5,174.9c6.8-0.1,11.9,5.1,12,12.3c0.1,7.4-4.8,12.9-11.7,12.9c-6.7,0-11.8-5.3-11.8-12.5
		C678.9,180.4,683.7,175,690.5,174.9z M683.2,187.2c-0.2,4.7,3.2,8.6,7.3,8.7c4.1,0.1,7.5-3.5,7.6-8.1c0.2-4.6-3.2-8.7-7.3-8.8
		C686.8,179,683.4,182.6,683.2,187.2z"/>
	<path class="st0" d="M418.7,187.6c0,7.3-5,12.6-11.7,12.6c-6.7,0-11.8-5.5-11.8-12.6c0-7.4,5.1-12.7,12-12.7
		C413.9,175,418.7,180.3,418.7,187.6z M399.6,187.6c0,4.6,3.3,8.3,7.4,8.3c4.2,0,7.7-3.9,7.6-8.5c-0.1-4.5-3.4-8.3-7.4-8.4
		C403,179,399.5,182.9,399.6,187.6z"/>
	<path class="st0" d="M712.6,199.4c-1.7,0-2.9,0-4.4,0c0-7.9,0-15.7,0-23.5c1.4,0,2.7,0,4.2,0c0.1,1,0.2,2,0.2,2.5
		c2.2-1,4.2-2.6,6.5-3c4.9-1,8.8,1.9,9.1,6.9c0.3,5.6,0.1,11.2,0.1,17.1c-1.3,0-2.6,0-4.3,0c0-3.4,0-6.8,0-10.3c0-1.2,0-2.4,0-3.6
		c-0.2-4.1-2-6.1-5.3-6.1c-3.2,0-5.8,2.4-6,6c-0.2,3.5-0.1,6.9-0.1,10.4C712.6,196.9,712.6,198,712.6,199.4z"/>
	<path class="st0" d="M526.8,193.2c1,0.8,2,1.6,3,2.4c-1.6,2.7-4.1,3.8-6.9,4.4c-0.6,0.1-1.1,0.7-1.7,1.1c0.5,0.4,1,1,1.5,1.3
		c2.9,1.3,4,3.3,3,5.9c-1.1,2.8-3.5,3.5-6.2,3c-1.6-0.3-3.9-0.3-3.5-3.2c2.8,0,5.7,2.7,7.1-1c0.3-0.7-2.4-2.4-3.7-3.7
		c-0.2,0.2-0.5,0.4-0.7,0.5c-0.1-1.2-0.1-2.3-0.2-3.7c-6.8-1.9-10.4-6.4-10.1-13.6c0.2-5.3,3.4-9.6,8-11.2c4.8-1.7,9.6-0.4,13,3.7
		c-0.9,0.9-1.7,1.8-2.6,2.7c-5.2-3.6-8.9-3.7-11.9-0.3c-3,3.3-3,8.6,0.1,11.9C518.2,196.7,521.9,196.7,526.8,193.2z"/>
	<path class="st0" d="M497,199.4c-1.7,0-2.9,0-4.4,0c0-7.9,0-15.7,0-23.5c1.4,0,2.7,0,4.2,0c0.1,1,0.2,2,0.3,3.3
		c2.3-2.8,4.6-4.8,8.4-3.9c0,1.1,0,2.3,0,3.4c-6.6,0.6-8.8,3.3-8.6,10.4C497.1,192.3,497,195.7,497,199.4z"/>
	<path class="st0" d="M663.1,175.8c1.3,0,2.5,0,3.9,0c0.1,0.9,0.3,1.7,0.5,2.9c2.4-2.4,4.8-4.5,8.5-3.5c0,1.1,0,2.2,0,3.4
		c-7.3,1.3-8.7,3-8.7,10.6c0,3.2,0,6.5,0,10.2c-1.4,0.1-2.6,0.1-4.1,0.2C663.1,191.6,663.1,183.8,663.1,175.8z"/>
	<path class="st0" d="M656.6,199.3c-1.5,0-2.7,0-4.2,0c0-7.9,0-15.6,0-23.5c1.4,0,2.7,0,4.2,0C656.6,183.6,656.6,191.3,656.6,199.3z
		"/>
	<path class="st0" d="M654.1,171.1c-1.3-1.9-2.7-3-2.6-3.9c0.2-1,1.6-2.2,2.6-2.4c0.6-0.1,2.2,1.4,2.3,2.3
		C656.5,168.1,655.3,169.2,654.1,171.1z"/>
</g>
</svg>
