<svg version="1.1" id="Capa_1" xmlns="http://www.w3.org/2000/svg" xmlns:xlink="http://www.w3.org/1999/xlink" x="0px" y="0px"
	 viewBox="0 0 926.3 302.2" style="enable-background:new 0 0 926.3 302.2;" xml:space="preserve">
<style type="text/css">
	.st0{fill:#E0D3FB;}
</style>
<g>
	<path class="st0" d="M410.2,88.4c0-25.3,0-50.7,0-76.3c11.6,0,22.5,0,33.8,0c0,53.4,0,106.7,0,160.9c-6.9,0-14,0-21.1,0
		c-9.1,0-9.2,0-12.1-8.7c-13.3-39-36.6-71.3-66.8-99c-0.6-0.5-1.2-0.9-2.8-2c0,2.7,0,4.4,0,6.1c0,32.8-0.1,65.6,0.1,98.4
		c0,4.1-1.1,5.5-5.3,5.3c-8.5-0.3-17-0.2-25.5,0c-3.3,0.1-4.7-0.6-4.7-4.4c0.1-50.9,0.1-101.8,0-152.8c0-3.4,1.3-4.3,4.4-4.2
		c4.7,0.2,9.4,0.5,14-0.1c8.5-1.1,15,2.3,21.2,7.6c22.3,19.4,43.3,39.9,60,64.5c1.2,1.7,2.5,3.3,3.7,5
		C409.4,88.6,409.8,88.5,410.2,88.4z"/>
	<path class="st0" d="M729.4,89.4c0-26.5,0-51.5,0-76.9c11.8,0,23,0,34.6,0c0,53.4,0,106.6,0,160.4c-9.8,0-19.4,0.1-29-0.2
		c-1,0-2.4-2-2.8-3.3c-12.6-40.6-36-74.2-67.1-102.8c-1.2-1.1-2.4-2-4.5-3.8c0,37.1,0,73.2,0,109.6c-1.9,0.2-3.3,0.4-4.8,0.4
		c-8.3,0-16.7-0.2-25,0.1c-4.1,0.1-5.5-1-5.4-5.2c0.2-15.5,0.1-31,0.1-46.4c0-34.8,0.1-69.6-0.1-104.4c0-4.1,1.1-5.6,5.3-5.3
		c5.5,0.3,11,0.4,16.5,0c5.7-0.4,10.3,1.4,14.6,5c23.8,20,45.7,41.7,63.5,67.4C726.2,85.5,727.3,86.8,729.4,89.4z"/>
	<path class="st0" d="M809.2,105.3c-0.7,19.9,17.4,40.4,36.8,42.1c14.3,1.3,27.5-0.9,38.6-11c0.9-0.8,2.4-1.6,3.4-1.4
		c10.3,2.2,20.6,4.7,31.7,7.2c-6.7,9.7-14.2,17.7-23.7,23.3c-26.9,16-55,19.1-83.8,5.5c-15.3-7.2-25.5-19.7-31.2-35.4
		c-10.1-27.4-10.7-55.3,0.4-82.3c14-34.4,42.6-48,76.2-46.3c45.9,2.4,62.6,38.1,65.1,67.4c0.9,10,0.1,20.2,0.1,30.9
		C884.2,105.3,846.6,105.3,809.2,105.3z M889.7,77.4c1.8-21.5-15.1-39.4-37.4-40.3c-18.9-0.7-41.3,14.8-42.7,40.3
		C836.4,77.4,863.1,77.4,889.7,77.4z"/>
	<path class="st0" d="M7.9,174.9c0-27.7,0.1-54.9,0-82.1C7.7,65.5,7.2,38.3,6.8,10.2c6.9-0.7,14.9-1.5,23-2.2
		C51.5,6,72.9,6.3,94,12.4c34.2,10,53.2,33.3,55.3,69c1.4,23.7-3.6,45.7-19.3,64.3c-12,14.2-27.8,22.4-45.3,27.6
		C58.9,180.9,33,179.4,7.9,174.9z M42.9,147.4c6.5,0,12.5,0.4,18.4-0.1c16.5-1.5,31.8-6.2,43-19.4c14.4-17,15.8-47.9,3.5-66.6
		c-13.4-20.5-44-26.9-64.8-22.5C42.9,74.7,42.9,110.6,42.9,147.4z"/>
	<path class="st0" d="M534.6,179c-34.6-1.8-59.3-19-73.5-50.6c-15.5-34.3-6.6-76.4,20.2-100.5C516-3.4,565-0.5,595.9,34.7
		c36.9,41.9,25.3,115.6-33,139c-4,1.6-8.2,2.7-12.5,3.4C545.4,178,540.2,178.3,534.6,179z M485.6,94.7c0.9,4.2,1.6,11.3,3.8,17.8
		c11.2,33.1,50.8,45.1,75.8,23.1c19.4-17,25-46.9,13.1-69.8c-13-24.9-40.1-35-63.6-22.8C495.2,53.1,486.6,70.3,485.6,94.7z"/>
	<path class="st0" d="M299.2,172.7c-12.5,0-24.2,0-36.3,0c-1.4-10.2-3-20.1-4.1-30.2c-0.4-3.7-1.6-5.1-5.5-5.1
		c-21.8,0.2-43.6,0.2-65.4,0c-3.5,0-5,1-5.4,4.6c-1.1,9.9-2.6,19.8-3.9,30c-11.4,0-22.8,0-35.1,0c0.8-6.3,1.6-12.3,2.4-18.3
		c5.5-41.3,16.8-80.6,39.2-116.2c5-8,11-15.4,17-22.7c1.4-1.7,4.4-2.9,6.7-3c8.1-0.4,16.3,0.1,24.4-0.2c3.9-0.1,6.5,1.2,9,4.1
		c20.1,23.7,33.3,51.1,42.4,80.6C292.2,121.1,296.6,146.4,299.2,172.7z M250.5,107.5c-6.6-24-16.6-45.7-30-66.6
		c-13.3,21.2-23.2,42.8-29.6,66.6C210.9,107.5,230.3,107.5,250.5,107.5z"/>
	<path class="st0" d="M453.4,294.1c-44.4-0.2-96.7-14.7-146.9-37.7c-30.9-14.2-60-31.5-88.7-49.7c-2.6-1.6-5.4-3.5-3.2-7.1
		c1.9-3.2,4.7-2.4,7.3-0.8C275.4,230.8,333.6,249,395,257c97.3,12.6,191.3,0.7,280.8-40.7c11.1-5.2,21.7-11.6,32.5-17.4
		c2.7-1.5,5.5-2.5,7.4,0.7c1.9,3.1,0,5.3-2.6,7c-48.2,30.7-98,58.3-153.5,74C528.6,289.2,497.1,294.2,453.4,294.1z"/>
</g>
</svg>
