<svg version="1.1" id="Capa_1" xmlns="http://www.w3.org/2000/svg" xmlns:xlink="http://www.w3.org/1999/xlink" x="0px" y="0px"
	 viewBox="0 0 4742 840" style="enable-background:new 0 0 4742 840;" xml:space="preserve">
<style type="text/css">
	.st0{fill:#E0D3FB;}
</style>
<g>
	<path id="svg_1" class="st0" d="M4626.1,264.9c-25.3,1.8-50.5,2.7-74.8,2.7c-20.6,0-55.2-0.9-88.9-2.7c-7.5,4.6-8.4,19.1-1.9,26.4
		l31.8,6.4c14,2.7,17.8,7.3,17.8,15.5c0,3.6-11.2,39.2-33.7,88.4l-28.1,61.1c-12.2,26.4-26.2,55.6-29.9,56.5
		c-2.8-0.9-14-22.8-31.8-69.3l-41.2-104.8c-15.9-40.1-15-43.8,6.5-48.3l28.1-5.5c6.5-6.4,5.6-22.8-1.9-26.4
		c-31.8,1.8-66.4,2.7-99.2,2.7c-34.6,0-73-0.9-103.8-2.7c-10.3,3.6-10.3,19.1-2.8,26.4l18.7,3.6c35.5,7.3,42.1,21,64.5,77.5
		l75.8,191.4c14,34.7,15.9,53.8,15.9,67.5c0,38.3-10.6,60.3-30.2,87.6c-9.4,12.8-26.2,18.2-39.3,18.2l-20.6,0.9
		c-26.2,0-47.7,11-47.7,41c0,26.4,15.9,48.3,51.5,48.3c30.9,0,55.2-14.6,71.1-49.2c39.3-83.8,106-219.8,138.7-281.8l47.7-93
		c29-56.5,46.8-83,57.1-92.1c12.2-12.8,42.1-17.3,53.3-20C4635.4,285,4635.4,267.6,4626.1,264.9L4626.1,264.9z M4166,299.5
		c0-23.7-18.7-44.7-51.5-44.7c-31.8,0-62.7,27.3-91.7,47.4c-5.6,0-9.4-4.6-9.4-10.9c0-8.2,0.9-23.7,1.9-41
		c-1.9-5.5-7.5-8.2-13.1-8.2c-28.1,16.4-77.6,36.5-117.9,49.2c-3.7,4.5-3.7,17.3-0.9,21l11.2,6.4c23.4,13.6,23.4,24.5,23.4,65.6v134
		c0,67.5-3.7,77.5-35.6,82l-16.8,2.7c-6.6,6.4-5.6,22.8,1.9,26.4c35.6-1.8,66.4-2.7,97.3-2.7c34.6,0,66.4,0.9,122.6,2.7
		c7.5-3.7,8.4-20,1.9-26.4l-36.5-3.6c-32.8-3.7-36.5-13.7-36.5-81.1V393.4c0-44.7,5.6-65.6,27.1-65.6c5.6,0,21.5,1.8,44.9,17.3
		c7.6,4.7,16.3,7.3,25.3,7.3C4138.8,352.4,4166,335.1,4166,299.5L4166,299.5z M3836.7,589.4c1.9-10-3.7-17.3-12.2-18.2
		c-15,10-26.2,16.4-44.9,16.4c-59.9,0-68.3-51.1-68.3-108.5V338.7c0-29.2,0.9-31,17.8-31h88.9c7.5-4.5,11.2-12.8,12.2-23.7
		c0-9.1-1.9-16.4-7.5-19.1H3730c-17.8,0-17.8-2.7-17.8-17.3v-54.7c-4.7-7.3-17.8-10-26.2-4.6c-13.1,24.6-33.7,43.8-51.4,56.5
		c-20.6,14.6-42.1,26.4-73.9,38.3c-8.4,5.5-6.6,20.1,2.8,24.6h32.7c15,0,16.8,0.9,16.8,32.8v185.1c0,63.8,15.9,114,104.8,114
		C3774.9,639.6,3818,615,3836.7,589.4L3836.7,589.4z M3342.7,336.9c0-26.4,22.5-47.4,52.4-47.4c36.5,0,66.4,34.6,80.5,76.6
		c6.5,5.5,22.4,2.7,25.2-4.6c0-41-4.7-69.3-14-88.4c-13.1-7.3-48.6-18.2-87-18.2c-77.6,0-140.3,41.9-139.4,113
		c0,58.4,50.5,92.1,99.2,114.9c32.7,15.5,63.6,37.4,63.6,71.1c0,31.9-23.4,51-52.4,51c-49.6,0-84.2-48.3-101-99.4
		c-6.5-6.4-20.6-5.5-26.2,1.8c-1.9,39.2,3.7,85.7,13.1,103c29.9,21.9,68.3,29.2,106.6,29.2c73.9,0,145.9-34.6,145.9-114
		c0-72-53.3-103-103.8-126.7c-35.6-16.4-62.7-35.6-62.7-62L3342.7,336.9z M3223.9,599.4c2.8-8.2-3.7-18.2-8.4-18.2
		c-2.8,0-15.9,10-31.8,10c-33.7,0-47.7-27.3-44.9-80.2l6.6-142.2c3.7-80.2-42.1-114-116-114c-47.7,0-115.1,31-144.1,57.4
		c-30.9,28.3-36.5,47.4-36.5,58.4c0,8.2,5.6,14.6,17.8,14.6c20.6,0,46.8-8.2,59.9-16.4c10.3-6.4,15.9-15.5,17.8-32.8
		c3.7-26.4,23.4-40.1,49.6-40.1c45.8,0,58.9,40.1,57.1,86.6l-0.9,23.7c0,9.1-2.8,17.3-21.5,23.7c-34.6,12.8-70.2,25.5-102.9,36.5
		c-64.6,21.9-77.6,52-77.6,84.8c0,45.6,31.8,88.4,95.4,88.4c33.7,0,61.7-12.8,79.5-23.7c14-8.2,20.6-12.8,25.2-12.8s8.4,4.6,15,10.9
		c17.8,19.1,44,25.5,67.4,25.5C3159.4,639.5,3205.2,624.9,3223.9,599.4L3223.9,599.4z M3047.1,480l-1.9,65.6
		c-0.9,21.9-11.2,43.8-44.9,43.8c-35.5,0-52.4-29.2-52.4-52.9c0-39.2,24.3-52,50.5-61.1c16.8-6.4,33.7-10.9,41.1-10.9
		C3044.3,464.5,3047.1,470,3047.1,480L3047.1,480z M2788.9,423.4c0-93.9-58.9-168.6-160.9-168.6c-48.6,0-103.8,33.7-116,39.2
		c-4.7-0.9-7.5-6.4-7.5-11.9c0-8.2,1.9-19.1,4.7-35.6c-1.9-5.5-7.5-9.1-15-9.1c-28.1,18.2-84.2,43.7-121.6,53.8
		c-4.7,4.5-4.7,15.5-0.9,21l11.2,7.3c23.4,16.4,23.4,23.7,23.4,64.7v344.5c0,67.5-3.7,77.5-35.6,82l-24.3,2.7
		c-6.6,6.4-5.6,22.8,1.9,26.4c37.4-1.8,73.9-2.7,104.8-2.7c34.6,0,71.1,0.9,119.8,2.7c7.5-3.7,8.4-20.1,1.9-26.4l-33.7-3.6
		c-32.7-3.7-36.5-13.7-36.5-81.1v-67.3c0-18.2,5.6-23.7,14-25.5c8.4,1.8,29.9,3.6,41.2,3.6C2697.1,639.6,2788.8,550.2,2788.9,423.4
		L2788.9,423.4z M2684.1,453.6c0,83.9-35.6,149.5-100.1,149.5c-14,0-37.4-8.2-49.6-18.2c-19.6-16.4-29.9-30.1-29.9-58.3V387.9
		c0-38.3,2.8-53.8,10.3-62c11.2-10.9,29-18.2,50.5-18.2C2638.3,307.7,2684.1,367,2684.1,453.6z M2306.2,442.6
		c0-118.5-91.7-187.8-197.4-187.8c-109.4,0-204.9,76.6-204.9,198.7c0,119.4,89.8,186,197.4,186
		C2212.6,639.6,2306.2,572.1,2306.2,442.6L2306.2,442.6z M2195.8,458.1c0,70.2-18.7,145-83.3,145c-67.4,0-98.2-80.2-98.2-163.2
		c0-101.2,37.4-148.6,85.1-148.6C2168.6,291.3,2195.8,381.6,2195.8,458.1L2195.8,458.1z M1885.1,299.5c0-23.7-18.7-44.7-51.5-44.7
		c-31.8,0-62.7,27.3-91.7,47.4c-5.6,0-9.3-4.6-9.3-10.9c0-8.2,0.9-23.7,1.9-41c-1.9-5.5-7.5-8.2-13.1-8.2
		c-28.1,16.4-77.7,36.5-117.9,49.2c-3.7,4.5-3.7,17.3-0.9,21l11.2,6.4c23.3,13.6,23.3,24.6,23.3,65.6v134c0,67.5-3.8,77.5-35.6,82
		l-16.8,2.7c-6.6,6.4-5.6,22.8,1.9,26.4c35.6-1.8,66.4-2.7,97.3-2.7c34.6,0,66.4,0.9,122.6,2.7c7.5-3.7,8.4-20,1.9-26.4l-36.4-3.6
		c-32.8-3.7-36.5-13.7-36.5-81.1V393.4c0-44.7,5.6-65.6,27.1-65.6c5.6,0,21.5,1.8,44.9,17.3c7.6,4.7,16.3,7.3,25.3,7.3
		C1857.9,352.4,1885.1,335.1,1885.1,299.5L1885.1,299.5z M1547.3,583c-13.1,3.7-27.1,6.4-40.2,6.4c-22.4,0-23.4-45.6-23.4-96.6
		V340.5c0-33.7,0.9-60.2,2.8-77.5c-0.9-4.6-4.7-7.3-9.3-8.2c-18.7,9.1-84.2,15.5-146.9,16.4c-7.5,3.6-7.5,20.1-0.9,24.6l15,4.6
		c35.6,10,41.2,14.6,41.2,72.9V511c0,33.7-1.9,42-11.2,51.1c-15.9,14.6-40.2,22.8-61.8,22.8c-66.4,0-76.7-50.2-76.7-103.9V340.5
		c0-44.7,0.9-66.5,2.8-77.5c-0.9-4.6-4.7-7.3-9.3-8.2c-20.6,7.3-73.9,15.5-130,16.4c-7.5,2.7-7.5,19.1-1.9,23.7l13.1,3.6
		c23.4,7.3,27.1,13.7,27.1,77.5v142.2c0,75.7,27.1,121.2,111.3,121.2c46.8,0,87.9-21,127.2-43.8c5.6,0,8.4,2.7,9.4,10
		c0.9,9.1-0.9,22.8-2.8,33.7c0.9,4.6,3.7,8.2,8.4,9.1c40.2-18.2,112.3-30.1,153.4-34.6C1556.8,606.7,1554.9,587.5,1547.3,583
		L1547.3,583z M800.8,422.6c0-10.9,1.9-11.8,19.7-11.8h161.9c37.4,0,58.9-3.6,64.6-11.9c3.7-7.3,4.7-12.8,4.7-21
		c0-79.3-71.1-123.1-140.3-123.1c-125.4,0-197.4,99.4-197.4,202.4c0,103.9,72,182.3,180.6,182.3c57.1,0,126.3-27.3,158.1-100.3
		c-0.9-8.2-11.2-17.3-20.6-14.6c-21.5,33.7-52.4,45.6-89.8,45.6C858.8,570.2,800.8,504.6,800.8,422.6L800.8,422.6z M808.3,367.9
		c0-19.1,29-78.4,91.7-78.4c40.2,0,61.7,26.4,61.7,59.3c0,8.2-3.7,15.5-9.3,19.1c-6.5,3.6-18.7,6.4-45.8,6.4h-85.1
		C810.1,374.3,808.3,371.5,808.3,367.9L808.3,367.9z M560.5,460.9c-55.6,3.8-109.1,22.8-154.7,54.8l0,0
		c-45.7,31.9-81.8,75.7-104.4,126.7c55.6-3.8,109.1-22.8,154.7-54.8l0,0C501.8,555.7,537.9,511.9,560.5,460.9L560.5,460.9z
		 M446.3,380.1c39.5-39.4,67.4-88.8,80.8-142.9c-110.2,27.5-196.2,113.5-223.7,223.7C357.5,447.5,406.9,419.6,446.3,380.1
		L446.3,380.1z M280.2,316.4c58.5-97.3,58.5-219,0-316.4C221.7,97.3,221.7,219,280.2,316.4z M256.9,460.9
		C229.5,350.7,143.4,264.7,33.2,237.2c13.4,54.1,41.4,103.5,80.8,142.9l0,0C153.5,419.6,202.9,447.5,256.9,460.9L256.9,460.9z
		 M154.7,515.7c-45.6-32-99.1-51-154.7-54.8c46.2,103.8,145.8,173.6,259.2,181.5C236.6,591.5,200.5,547.6,154.7,515.7L154.7,515.7z"
		/>
	<path id="svg_2" class="st0" d="M4738.3,290.7c-2.1-4.9-5.1-9.4-8.9-13.1c-16.5-16-42.7-16-59.1,0c-3.8,3.7-6.9,8.2-9,13.1
		c-2.3,5.2-3.5,10.8-3.4,16.5c-0.1,5.7,1.1,11.4,3.4,16.6c2.1,5,5.2,9.5,9,13.3c3.8,3.8,8.4,6.7,13.4,8.7c10.4,4.3,22,4.3,32.4,0
		c5-2,9.5-4.9,13.4-8.7c3.8-3.8,6.8-8.3,8.9-13.3c2.3-5.2,3.5-10.9,3.4-16.6C4741.8,301.5,4740.7,295.9,4738.3,290.7 M4731.6,321.4
		c-1.7,4.2-4.2,8.1-7.4,11.4c-3.1,3.2-6.8,5.8-10.9,7.5c-4.3,1.8-8.9,2.7-13.6,2.7c-4.7,0-9.3-0.9-13.6-2.7c-4.1-1.8-7.9-4.3-11-7.5
		c-3.1-3.3-5.6-7.1-7.2-11.4c-3.5-9.1-3.5-19.1,0-28.2c5.2-13,17.8-21.4,31.8-21.4c4.7-0.1,9.3,0.9,13.6,2.7
		c4.1,1.7,7.8,4.3,10.9,7.5c3.1,3.2,5.6,7,7.4,11.1C4735,302.3,4735,312.3,4731.6,321.4"/>
	<path id="svg_3" class="st0" d="M4715.9,306.6c2.4-2,3.7-5.3,3.7-9.7s-1.4-8.1-4.1-10.4s-7.1-3.5-13-3.5h-18.8v48.8h7.5v-21h8
		l13.3,21h8.1l-13.9-21.5C4710.1,309.9,4713.2,308.7,4715.9,306.6 M4699.1,304.7h-7.9V289h10.1c1.3,0,2.5,0.1,3.8,0.3
		c1.2,0.2,2.3,0.6,3.4,1.1c1,0.5,1.9,1.3,2.5,2.3c0.7,1.2,1,2.5,0.9,3.8c0.1,1.6-0.2,3.2-1.1,4.6c-0.6,1.1-1.6,1.9-2.8,2.3
		c-1.3,0.6-2.7,0.9-4.1,1C4702.5,304.6,4700.9,304.6,4699.1,304.7"/>
</g>
</svg>
