<svg version="1.1" id="Capa_1" xmlns="http://www.w3.org/2000/svg" xmlns:xlink="http://www.w3.org/1999/xlink" x="0px" y="0px"
	 viewBox="0 0 883.5 378" style="enable-background:new 0 0 883.5 378;" xml:space="preserve">
<style type="text/css">
	.st0{fill:#E0D3FB;}
</style>
<path class="st0" d="M316.9,11.2h-98.9v128.5H111.2V11.2H12.3v355.9h98.9V230.5h106.8v136.6h98.9V221.7h-67.6L316.9,70V11.2z"/>
<path class="st0" d="M428.9,229h117v-80.6h-117V96c45.1,0.1,90.1,0.2,135,0.2l-0.9-85c-77.3,0-154.5,0-231.7,0v153h69l-68.5,153.6
	v0.4h-0.6V367h232v-84.9H428.7L428.9,229z"/>
<path class="st0" d="M805.1,237.7c35.2-21,56.5-56.7,56.5-100.3c0-74.5-55.7-126.2-132.3-126.2H575.2v355.9h98V258.3h35.6
	l57.7,108.8h109.4L805.1,237.7z M717.8,175.7H673V98.4h44.8c27.5,0,43.2,16.2,43.2,38.5S745.2,175.7,717.8,175.7z"/>
</svg>
