<svg version="1.1" id="Capa_1" xmlns="http://www.w3.org/2000/svg" xmlns:xlink="http://www.w3.org/1999/xlink" x="0px" y="0px"
	 viewBox="0 0 764.8 302.2" style="enable-background:new 0 0 764.8 302.2;" xml:space="preserve">
<style type="text/css">
	.st0{fill:#E0D3FB;}
</style>
<g>
	<path class="st0" d="M755.3,151.3L755.3,151.3c0-14.6,0.1-29.1,0-43.7c-0.1-12.5-3.3-24.2-9.8-35c-1.5-2.5-8.4-13.5-22-22.5
		c-2.7-1.8-5.1-3.1-6.8-4c-2.7-1.2-5.3-2.3-7.8-3.4c-7.2-3.2-14.9-4.8-22.7-5.9c-11.5-1.6-23.1-1-34.7-0.8c-5.4,0.1-10.8,0-16.1,0
		c-14.9,0.1-29.8,0.1-44.6,0.2c-10.2,0-20.4,0.4-30.6,0.1c-14.7-0.4-29.3-0.8-44-1.8c-14.1-0.9-28.2-2.3-42.3-3.9
		c-30.2-3.5-59.9-9.4-88.7-19.4c-2.6-0.9-4.8-0.8-7.3,0c-18.8,6.3-37.8,11.6-57.4,14.7c-14,2.2-28.1,4.2-42.3,5.8
		c-13.1,1.5-26.3,2.5-39.5,3.4c-9,0.6-18.1,0.8-27.1,1c-11.3,0.2-22.7,0.2-34,0.2c-21.7-0.1-43.4-0.3-65.1-0.4
		c-8.9,0-17.7-0.2-26.6,0c-11.5,0.3-22.5,2.6-33,7.1l-16.8,9.6C17.6,66.5,8.2,85.2,8,108.6c-0.2,27.3-0.1,54.6,0,81.9
		c0,3,0.1,6,0.3,8.9c0.9,13.1,5.2,25,13.1,35.4c14.7,19.4,35.2,28.3,58.7,30.7c7.8,0.8,15.7,0.6,23.5,0.5c21.6,0,43.3-0.3,64.9-0.3
		c15.2,0,30.4,0,45.6,0.2c10.5,0.2,21,0.6,31.5,1.4c13.2,0.9,26.3,2.1,39.5,3.7c13.4,1.6,26.8,3.7,40.1,5.9
		c18.5,3.1,36.5,8.4,54.3,14.3c1.5,0.5,2.9,0.5,4.4,0c9.9-3,19.8-6.2,29.8-8.9c17.3-4.7,35-7.8,52.9-9.9c15.3-1.8,30.6-3.6,46-4.8
		c13.5-1.1,27-1.7,40.5-1.9c20.4-0.3,40.8,0,61.1,0.1c20.7,0.1,41.5,0.3,62.2,0.1c10.9-0.1,21.5-2.1,31.7-6.2
		c28.8-11.6,45.6-32.3,47.1-63.8C755.9,181.1,755.3,166.2,755.3,151.3z M698.4,231.5c-11.1,4.6-22.7,5.6-34.6,5.1
		c-6-0.3-11.9-0.1-17.9-0.2c-14.6-0.1-29.2-0.3-43.9-0.4c-9.9-0.1-19.7-0.3-29.6-0.4c-7.2-0.1-14.3-0.3-21.4-0.1
		c-13.6,0.4-27.2,0.9-40.7,1.7c-12.2,0.8-24.5,1.8-36.7,3.1c-28,3.1-55.7,7.4-82.8,15.4c-0.6,0.2-1.3,0.3-1.8,0.6
		c-5.1,2.7-10.1,1.9-15.4,0.2c-18.5-5.9-37.4-10.1-56.6-12.9c-14.4-2.1-28.8-4.1-43.2-5.5c-13-1.3-26-2.2-39-2.8
		c-15.1-0.7-30.2-1-45.3-1.1c-22.6-0.1-45.2,0.2-67.8,0.3c-10.3,0.1-20.6,0.3-30.9,0.2c-10.3-0.1-20.4-1.9-29.7-6.7
		c-11.4-5.9-18.9-14.8-21.1-27.7c-0.4-2.2-0.6-4.5-0.6-6.8c0-28.1,0-56.2,0-84.3c0-16,7.5-27.6,21.5-35c8.5-4.5,17.8-6.6,27.4-6.6
		c14.6-0.1,29.2,0.2,43.8,0.3c10.6,0.1,21.1,0.1,31.7,0.1c14.2,0,28.5,0.2,42.7-0.1c14-0.3,27.9-0.9,41.9-1.8
		c13.2-0.9,26.4-2,39.5-3.5c30.8-3.5,61.1-8.8,90.7-18.3c2.1-0.7,3.9-0.6,6,0C402,50.1,419.8,54.3,438,57c13.9,2.1,27.9,4,41.9,5.6
		c11.8,1.3,23.7,2.2,35.5,2.8c16.5,0.8,33,1.2,49.5,1.4c12.5,0.2,24.9-0.3,37.4-0.4c9.9-0.1,19.9-0.3,29.8-0.4
		c11.9-0.1,23.8-0.2,35.7-0.4c11.5-0.3,22.7,1.3,33.2,6.3c11.8,5.6,19.7,14.5,22,27.6c0.4,2.1,0.6,4.3,0.6,6.4c0,15.1,0,30.1,0,45.2
		c0,14.4-0.2,28.7,0,43.1C724,213.3,713.2,225.4,698.4,231.5z"/>
	<g>
		<path class="st0" d="M70.4,94.1c9.5,0,18.8,0,28.4,0c0,12.2,0,24.3,0,36.6c7.2,0,14.2,0,21.4,0c0-12.2,0-24.3,0-36.6
			c9.6,0,18.9,0,28.4,0c0,35.4,0,70.9,0,106.6c-9.3,0-18.7,0-28.3,0c0-0.9,0-1.7,0-2.5c0-12.2,0-24.3,0-36.5c0-1.9-0.5-2.5-2.4-2.5
			c-5.6,0.1-11.1,0-16.7,0.1c-0.7,0-1.4,0.1-2.2,0.1c0,13.8,0,27.3,0,41.1c-0.7,0.1-1.2,0.2-1.7,0.2c-8.3,0.1-16.6,0.1-24.9,0.2
			c-1.7,0-2.1-0.5-2.1-2.2c0-34.2,0-68.5,0-102.7C70.3,95.4,70.4,94.8,70.4,94.1z"/>
		<path class="st0" d="M667.4,123.3c0-9.7,0-19.4,0-29.3c9.5,0,18.8,0,28.3,0c0,0.8,0,1.5,0,2.2c0,17.8,0,35.6,0,53.3
			c0,16.3,0,32.5,0.1,48.8c0,1.9-0.4,2.5-2.4,2.5c-7.7-0.1-15.4,0-23.2-0.1c-0.7,0-1.4-0.1-2.2-0.1c0-2,0-3.9,0-5.9
			c-0.4,0.1-0.6,0.1-0.7,0.2c-6.1,6.4-13.9,8.2-22.3,7.9c-9-0.3-15.7-4.8-20.6-12c-4.3-6.2-6.5-13.2-7.7-20.6
			c-1.7-10-1.8-20,1.4-29.8c2.9-8.8,7.5-16.3,16.2-20.4c9.5-4.5,19.1-3.9,28.7,0C664.4,120.8,665.7,122.2,667.4,123.3z M639.1,159.1
			c0,4.4,0.5,8.3,2.3,11.9c2.6,5.5,7.5,8.6,13.3,8.2c5.9-0.4,9.5-3.9,11.3-9.2c2.4-6.9,2.3-13.9-0.2-20.8c-1.9-5.1-5.5-8.5-11-8.9
			c-5.9-0.4-10.2,2.3-13.1,7.4C639.6,151.3,639.1,155.4,639.1,159.1z"/>
		<path class="st0" d="M347,200.7c-9.5,0-18.8,0-28.3,0c0-35.6,0-71.1,0-106.6c9.3,0,18.5,0,28,0c0,11,0,22,0,33.1
			c0.5-0.1,0.7-0.1,0.8-0.2c3.9-5.6,9.4-8.3,16-8.9c5.5-0.6,11-0.8,16.3,1.1c9.9,3.5,14.8,10.9,16.1,21c0.4,2.9,0.4,5.8,0.4,8.7
			c0,16.5,0,33,0,49.6c0,0.7,0,1.4,0,2.3c-9.3,0-18.6,0-28.1,0c0-0.8,0-1.6,0-2.3c0-13.5,0-27.1,0-40.6c0-2.2-0.2-4.4-0.5-6.6
			c-1-6.5-4.8-8.6-11.3-8.1c-5.2,0.4-8,3.2-9,8.5c-0.3,1.5-0.4,3.1-0.4,4.7c0,14,0,28.1,0,42.1C347,199.1,347,199.9,347,200.7z"/>
		<path class="st0" d="M558.2,119.9c0,2.2,0,4.4,0,6.6c0.4-0.2,0.7-0.2,0.7-0.3c3.9-5.5,9.3-8.2,15.9-8.8c5.2-0.5,10.5-0.8,15.6,0.7
			c9.8,3,15.3,9.9,17.1,19.8c0.4,2.2,0.5,4.5,0.5,6.8c0,17.9,0,35.8,0.1,53.7c0,1.9-0.4,2.5-2.4,2.5c-8-0.1-16,0-23.9-0.1
			c-0.7,0-1.4-0.1-2.1-0.1c0-4.6,0-9,0-13.4c0-11.5,0-23-0.1-34.6c0-1.2-0.3-2.5-0.6-3.7c-1.3-5.2-4.8-7.3-11.1-6.7
			c-5.3,0.4-8.5,3.6-9.3,8.9c-0.3,1.8-0.4,3.7-0.4,5.5c0,13.9,0,27.7,0,41.6c0,0.8,0,1.5,0,2.5c-9.5,0-18.8,0-28.3,0
			c0-27,0-53.8,0-80.8C539.3,119.9,548.6,119.9,558.2,119.9z"/>
		<path class="st0" d="M197.4,117.3c15.3,0.7,27.4,6,35,19.2c3.6,6.1,5,12.9,5.3,20c0.4,7.9-0.4,15.5-3.5,22.8
			c-5.4,12.8-15.1,20.5-28.6,23c-15.9,2.9-29.4-1.9-39.6-14.7c-4.9-6.1-7.2-13.3-7.9-21c-0.9-8.6-0.4-17.2,2.9-25.4
			c5.2-12.8,15-20,28.2-22.8C192.1,117.7,195.1,117.6,197.4,117.3z M213.6,160.1c-0.4-2.5-0.5-4.8-1-7c-1.6-7-7-11.8-13.7-12.1
			c-7.4-0.4-13.3,3.5-15.4,10.3c-1.7,5.6-1.7,11.2,0.2,16.8c2.2,6.5,7.8,10.3,14.7,10.1c6.7-0.2,12.1-4.2,14-10.7
			C213,165,213.2,162.4,213.6,160.1z"/>
		<path class="st0" d="M454.2,146.5c0.3-4.2,0.7-8,1-11.8c0.2-2.3,0.3-4.6,0.7-6.8c0.2-1,0.7-2.2,1.5-2.8c5.9-4.8,12.9-6.8,20.3-7.5
			c7.3-0.7,14.6-0.8,21.9,1c12.1,3,18.7,11.1,18.7,23.6c0.1,18.9,0,37.9,0,56.8c0,1.1-0.1,1.9-1.6,1.9c-7.5-0.1-14.9,0-22.4,0
			c-0.4,0-0.7-0.1-1.2-0.2c0-1.9,0-3.7,0-5.9c-0.7,0.5-1.1,0.7-1.4,1c-6.5,6.7-14.6,8.1-23.4,6.8c-2.5-0.4-5-0.9-7.3-1.8
			c-6.5-2.4-10.4-7.2-11.9-13.9c-1.2-5.3-1.3-10.5,0.3-15.7c2.2-6.9,7.1-11.4,13.5-14.1c5.7-2.4,11.8-4.1,17.7-6.2
			c2.5-0.9,5.1-1.6,7.5-2.7c3.3-1.5,4.4-3.5,3.9-6.1c-0.5-2.8-2.6-4.5-6-4.9c-5.3-0.6-10.5-0.1-15.5,1.8c-4.9,1.9-9.5,4.4-14.3,6.6
			C455.5,145.9,455,146.1,454.2,146.5z M495.3,163.7c-3,0.9-5.8,1.6-8.5,2.5c-1.9,0.6-3.8,1-5.5,1.9c-2.1,1-4.3,2.1-5.8,3.7
			c-3.8,3.9-2.3,9.7,2.8,11.6c4.8,1.8,11.5-0.4,14.4-4.8C495.6,174,495.4,168.8,495.3,163.7z"/>
		<path class="st0" d="M307.1,147c-7.6-3.2-15.1-4.7-22.9-2.2c-6.1,1.9-9.8,6.1-10.9,12.4c-0.9,5.1-0.7,10.1,1.4,14.9
			c2.4,5.3,6.6,8,12.3,8.2c6.8,0.2,13.4-0.9,20-3.4c0,3.9,0,7.7,0,11.5c0,3.4-0.1,6.8,0,10.3c0.1,1.5-0.5,2.1-1.8,2.3
			c-3.5,0.5-7,1.3-10.5,1.5c-5.6,0.4-11.2,0.7-16.8,0.5c-15.5-0.5-26.4-9-30.7-23.9c-3.8-13.1-4-26.2,0.8-39.1
			c4.9-13.1,14.6-20.3,28.3-22c8.5-1.1,16.9-0.7,25.2,1.5c5.5,1.5,5.5,1.6,5.5,7.3C307.1,133.5,307.1,140.2,307.1,147z"/>
		<path class="st0" d="M408.9,94c9.4,0,18.7,0,28.1,0c0,0.7,0.1,1.4,0.1,2.1c0,34.2,0,68.5,0,102.7c0,1.5-0.3,2.1-2,2.1
			c-8.2-0.1-16.3-0.1-24.5,0c-1.5,0-2-0.4-2-1.9c0-34.4,0-68.9,0-103.3C408.8,95.2,408.8,94.7,408.9,94z"/>
	</g>
</g>
</svg>
