<svg version="1.1" id="Capa_1" xmlns="http://www.w3.org/2000/svg" xmlns:xlink="http://www.w3.org/1999/xlink" x="0px" y="0px"
	 viewBox="0 0 1203.2 254.8" style="enable-background:new 0 0 1203.2 254.8;" xml:space="preserve">
<style type="text/css">
	.st0{fill:none;}
	.st1{fill:#DED1F9;}
	.st2{fill:#FFFFFF;}
	.st3{fill:#003487;}
</style>
<g>
	<rect x="-40.9" y="-14.2" class="st0" width="1292" height="283.2"/>
	<g>
		<g>
			<path class="st1" d="M749.7,104.3l6.7,2.1c-1,3.8-2.8,6.6-5.2,8.4c-2.4,1.8-5.5,2.7-9.2,2.7c-4.6,0-8.3-1.6-11.3-4.7
				c-2.9-3.1-4.4-7.4-4.4-12.8c0-5.7,1.5-10.2,4.4-13.4c3-3.2,6.9-4.8,11.7-4.8c4.2,0,7.6,1.2,10.3,3.7c1.6,1.5,2.7,3.6,3.5,6.3
				l-6.9,1.6c-0.4-1.8-1.3-3.2-2.5-4.2c-1.3-1-2.9-1.6-4.7-1.6c-2.6,0-4.6,0.9-6.2,2.8c-1.6,1.8-2.4,4.8-2.4,8.9
				c0,4.4,0.8,7.5,2.4,9.3c1.6,1.8,3.6,2.8,6.1,2.8c1.8,0,3.4-0.6,4.8-1.8C748.2,108.7,749.1,106.9,749.7,104.3z"/>
			<path class="st1" d="M760.8,104.2c0-2.2,0.5-4.3,1.6-6.4c1.1-2.1,2.6-3.6,4.6-4.7c2-1.1,4.2-1.6,6.6-1.6c3.8,0,6.9,1.2,9.3,3.7
				s3.6,5.6,3.6,9.3c0,3.8-1.2,6.9-3.7,9.4s-5.5,3.7-9.2,3.7c-2.3,0-4.5-0.5-6.5-1.6c-2.1-1-3.7-2.5-4.7-4.5
				C761.4,109.5,760.8,107,760.8,104.2z M767.6,104.5c0,2.5,0.6,4.4,1.8,5.7c1.2,1.3,2.6,2,4.3,2s3.2-0.7,4.3-2
				c1.2-1.3,1.8-3.2,1.8-5.7c0-2.4-0.6-4.3-1.8-5.6c-1.2-1.3-2.6-2-4.3-2s-3.2,0.7-4.3,2C768.2,100.2,767.6,102.1,767.6,104.5z"/>
			<path class="st1" d="M791,107.8v-6.6h13v6.6H791z"/>
			<path class="st1" d="M804.9,92h3.7v-1.9c0-2.1,0.2-3.7,0.7-4.7c0.4-1,1.3-1.9,2.5-2.5c1.2-0.7,2.7-1,4.5-1c1.9,0,3.7,0.3,5.5,0.8
				l-0.9,4.6c-1-0.2-2.1-0.4-3-0.4c-1,0-1.6,0.2-2.1,0.7c-0.4,0.4-0.6,1.3-0.6,2.6V92h4.9v5.2h-4.9V117h-6.6V97.2h-3.7V92z"/>
			<path class="st1" d="M840.2,117v-3.7c-0.9,1.3-2.1,2.4-3.6,3.2c-1.5,0.8-3,1.1-4.7,1.1c-1.7,0-3.2-0.4-4.5-1.1
				c-1.3-0.7-2.3-1.8-2.9-3.1c-0.6-1.3-0.9-3.2-0.9-5.5V92h6.6v11.5c0,3.5,0.1,5.7,0.4,6.5c0.2,0.8,0.7,1.4,1.3,1.9s1.5,0.7,2.4,0.7
				c1.1,0,2.1-0.3,3-0.9c0.9-0.6,1.5-1.4,1.8-2.3c0.3-0.9,0.5-3.2,0.5-6.7V92h6.6v25H840.2z"/>
			<path class="st1" d="M875.9,117h-6.6v-12.7c0-2.7-0.1-4.4-0.4-5.2c-0.3-0.8-0.7-1.4-1.4-1.8c-0.6-0.4-1.4-0.7-2.3-0.7
				c-1.1,0-2.2,0.3-3.1,0.9c-0.9,0.6-1.5,1.5-1.9,2.5c-0.3,1-0.5,2.9-0.5,5.7V117h-6.6V92h6.1v3.7c2.2-2.8,4.9-4.2,8.2-4.2
				c1.5,0,2.8,0.3,4,0.8c1.2,0.5,2.1,1.2,2.7,2c0.6,0.8,1.1,1.7,1.3,2.8c0.2,1,0.4,2.5,0.4,4.4V117z"/>
			<path class="st1" d="M905.5,117h-6.1v-3.7c-1,1.4-2.2,2.5-3.6,3.2c-1.4,0.7-2.8,1-4.2,1c-2.9,0-5.3-1.2-7.4-3.5
				c-2-2.3-3.1-5.5-3.1-9.7c0-4.2,1-7.4,3-9.6c2-2.2,4.5-3.3,7.5-3.3c2.8,0,5.2,1.2,7.2,3.5V82.6h6.6V117z M887.9,104
				c0,2.7,0.4,4.6,1.1,5.8c1.1,1.7,2.6,2.6,4.5,2.6c1.5,0,2.8-0.6,3.9-1.9c1.1-1.3,1.6-3.2,1.6-5.8c0-2.9-0.5-4.9-1.5-6.2
				c-1-1.3-2.4-1.9-4-1.9c-1.6,0-2.9,0.6-3.9,1.9C888.4,99.7,887.9,101.5,887.9,104z"/>
			<path class="st1" d="M926.5,109.1l6.6,1.1c-0.8,2.4-2.2,4.3-4,5.5c-1.8,1.3-4.1,1.9-6.9,1.9c-4.3,0-7.6-1.4-9.6-4.3
				c-1.6-2.3-2.5-5.1-2.5-8.6c0-4.1,1.1-7.4,3.2-9.7c2.2-2.3,4.9-3.5,8.2-3.5c3.7,0,6.6,1.2,8.8,3.7c2.1,2.5,3.2,6.2,3.1,11.3h-16.5
				c0.1,2,0.6,3.5,1.6,4.6c1,1.1,2.3,1.6,3.8,1.6c1,0,1.9-0.3,2.6-0.8C925.6,111.2,926.1,110.3,926.5,109.1z M926.9,102.4
				c0-1.9-0.5-3.4-1.5-4.4c-0.9-1-2.1-1.5-3.4-1.5c-1.4,0-2.6,0.5-3.6,1.6c-0.9,1-1.4,2.5-1.4,4.3H926.9z"/>
			<path class="st1" d="M961.7,117h-6.1v-3.7c-1,1.4-2.2,2.5-3.6,3.2c-1.4,0.7-2.8,1-4.2,1c-2.9,0-5.3-1.2-7.4-3.5
				c-2-2.3-3.1-5.5-3.1-9.7c0-4.2,1-7.4,3-9.6c2-2.2,4.5-3.3,7.5-3.3c2.8,0,5.2,1.2,7.2,3.5V82.6h6.6V117z M944.1,104
				c0,2.7,0.4,4.6,1.1,5.8c1.1,1.7,2.6,2.6,4.5,2.6c1.5,0,2.8-0.6,3.9-1.9c1.1-1.3,1.6-3.2,1.6-5.8c0-2.9-0.5-4.9-1.5-6.2
				c-1-1.3-2.4-1.9-4-1.9c-1.6,0-2.9,0.6-3.9,1.9C944.6,99.7,944.1,101.5,944.1,104z"/>
			<path class="st1" d="M981.3,117V82.6h6.6V95c2-2.3,4.5-3.5,7.2-3.5c3,0,5.6,1.1,7.5,3.3c2,2.2,3,5.4,3,9.5c0,4.3-1,7.5-3,9.8
				c-2,2.3-4.5,3.5-7.4,3.5c-1.4,0-2.8-0.4-4.2-1.1c-1.4-0.7-2.6-1.8-3.6-3.2v3.7H981.3z M987.9,104c0,2.6,0.4,4.5,1.2,5.7
				c1.1,1.8,2.7,2.6,4.6,2.6c1.5,0,2.7-0.6,3.7-1.9c1-1.2,1.5-3.2,1.5-5.9c0-2.9-0.5-4.9-1.6-6.2c-1-1.3-2.4-1.9-4-1.9
				c-1.6,0-2.9,0.6-3.9,1.8C988.4,99.6,987.9,101.5,987.9,104z"/>
			<path class="st1" d="M1007.9,92h7l6,17.7l5.8-17.7h6.8l-8.8,24l-1.6,4.3c-0.6,1.5-1.1,2.6-1.7,3.3c-0.5,0.8-1.1,1.4-1.8,1.9
				c-0.7,0.5-1.5,0.8-2.5,1.1c-1,0.3-2.1,0.4-3.4,0.4c-1.3,0-2.5-0.1-3.7-0.4l-0.6-5.2c1,0.2,2,0.3,2.8,0.3c1.5,0,2.7-0.5,3.4-1.4
				c0.7-0.9,1.3-2.1,1.7-3.4L1007.9,92z"/>
		</g>
		<g>
			<path class="st1" d="M739,149.8v5.3h-4.5v10.1c0,2,0,3.2,0.1,3.6c0.1,0.3,0.3,0.6,0.6,0.8c0.3,0.2,0.7,0.3,1.1,0.3
				c0.6,0,1.5-0.2,2.7-0.6l0.6,5.1c-1.5,0.7-3.3,1-5.2,1c-1.2,0-2.3-0.2-3.2-0.6c-1-0.4-1.7-0.9-2.1-1.6c-0.4-0.6-0.8-1.5-0.9-2.6
				c-0.1-0.8-0.2-2.3-0.2-4.7v-10.9h-3v-5.3h3v-5l6.6-3.9v8.8H739z"/>
			<path class="st1" d="M750.2,140.3V153c2.1-2.5,4.7-3.7,7.6-3.7c1.5,0,2.9,0.3,4.1,0.8c1.2,0.6,2.1,1.3,2.8,2.2
				c0.6,0.9,1,1.8,1.3,2.9s0.3,2.7,0.3,5v14.6h-6.6v-13.2c0-2.6-0.1-4.3-0.4-5c-0.2-0.7-0.7-1.3-1.3-1.7c-0.6-0.4-1.4-0.6-2.4-0.6
				c-1.1,0-2.1,0.3-2.9,0.8c-0.9,0.5-1.5,1.3-1.9,2.4c-0.4,1.1-0.6,2.7-0.6,4.8v12.5h-6.6v-34.5H750.2z"/>
			<path class="st1" d="M787.5,166.8l6.6,1.1c-0.8,2.4-2.2,4.3-4,5.5s-4.1,1.9-6.9,1.9c-4.3,0-7.6-1.4-9.6-4.3
				c-1.6-2.3-2.5-5.1-2.5-8.6c0-4.1,1.1-7.4,3.2-9.7c2.2-2.3,4.9-3.5,8.2-3.5c3.7,0,6.6,1.2,8.8,3.7c2.1,2.5,3.2,6.2,3.1,11.3h-16.5
				c0.1,2,0.6,3.5,1.6,4.6c1,1.1,2.3,1.6,3.8,1.6c1,0,1.9-0.3,2.6-0.8C786.6,169,787.1,168.1,787.5,166.8z M787.9,160.2
				c0-1.9-0.5-3.4-1.5-4.4c-0.9-1-2.1-1.5-3.4-1.5c-1.4,0-2.6,0.5-3.6,1.6c-0.9,1-1.4,2.5-1.4,4.3H787.9z"/>
			<path class="st1" d="M813.2,174.8v-34.5h25.6v5.8h-18.6v7.6h17.3v5.8h-17.3v9.4h19.3v5.8H813.2z"/>
			<path class="st1" d="M861.7,174.8V171c-0.9,1.3-2.1,2.4-3.6,3.2c-1.5,0.8-3,1.1-4.7,1.1c-1.7,0-3.2-0.4-4.5-1.1
				c-1.3-0.7-2.3-1.8-2.9-3.1c-0.6-1.3-0.9-3.2-0.9-5.5v-15.8h6.6v11.5c0,3.5,0.1,5.7,0.4,6.5c0.2,0.8,0.7,1.4,1.3,1.9
				c0.6,0.5,1.5,0.7,2.4,0.7c1.1,0,2.1-0.3,3-0.9c0.9-0.6,1.5-1.4,1.8-2.3c0.3-0.9,0.5-3.2,0.5-6.7v-10.5h6.6v25H861.7z"/>
			<path class="st1" d="M881,174.8h-6.6v-25h6.1v3.5c1-1.7,2-2.8,2.8-3.3c0.8-0.5,1.8-0.8,2.9-0.8c1.5,0,3,0.4,4.3,1.2l-2,5.8
				c-1.1-0.7-2.1-1.1-3.1-1.1c-0.9,0-1.7,0.3-2.4,0.8c-0.6,0.5-1.1,1.4-1.5,2.8c-0.4,1.3-0.6,4.1-0.6,8.4V174.8z"/>
			<path class="st1" d="M891.9,161.9c0-2.2,0.5-4.3,1.6-6.4c1.1-2.1,2.6-3.6,4.6-4.7c2-1.1,4.2-1.6,6.6-1.6c3.8,0,6.9,1.2,9.3,3.7
				c2.4,2.5,3.6,5.6,3.6,9.3c0,3.8-1.2,6.9-3.7,9.4s-5.5,3.7-9.2,3.7c-2.3,0-4.5-0.5-6.5-1.6c-2.1-1-3.7-2.5-4.7-4.5
				C892.4,167.2,891.9,164.8,891.9,161.9z M898.7,162.3c0,2.5,0.6,4.4,1.8,5.7c1.2,1.3,2.6,2,4.3,2s3.2-0.7,4.3-2
				c1.2-1.3,1.8-3.2,1.8-5.7c0-2.4-0.6-4.3-1.8-5.6c-1.2-1.3-2.6-2-4.3-2s-3.2,0.7-4.3,2C899.2,157.9,898.7,159.8,898.7,162.3z"/>
			<path class="st1" d="M922.6,149.8h6.2v3.7c0.8-1.3,1.9-2.3,3.2-3.1c1.4-0.8,2.9-1.2,4.5-1.2c2.9,0,5.4,1.1,7.4,3.4
				c2,2.3,3,5.4,3,9.5c0,4.2-1,7.4-3.1,9.7c-2,2.3-4.5,3.5-7.4,3.5c-1.4,0-2.6-0.3-3.7-0.8c-1.1-0.5-2.3-1.5-3.5-2.8v12.6h-6.6
				V149.8z M929.2,161.9c0,2.8,0.6,4.9,1.7,6.2c1.1,1.3,2.5,2,4.1,2c1.5,0,2.8-0.6,3.8-1.8c1-1.2,1.5-3.2,1.5-6.1
				c0-2.6-0.5-4.6-1.6-5.8c-1-1.3-2.4-1.9-3.9-1.9c-1.6,0-3,0.6-4,1.9C929.7,157.6,929.2,159.4,929.2,161.9z"/>
			<path class="st1" d="M966.7,166.8l6.6,1.1c-0.8,2.4-2.2,4.3-4,5.5c-1.8,1.3-4.1,1.9-6.9,1.9c-4.3,0-7.6-1.4-9.6-4.3
				c-1.6-2.3-2.5-5.1-2.5-8.6c0-4.1,1.1-7.4,3.2-9.7c2.2-2.3,4.9-3.5,8.2-3.5c3.7,0,6.6,1.2,8.8,3.7c2.1,2.5,3.2,6.2,3.1,11.3h-16.5
				c0.1,2,0.6,3.5,1.6,4.6c1,1.1,2.3,1.6,3.8,1.6c1,0,1.9-0.3,2.6-0.8C965.8,169,966.3,168.1,966.7,166.8z M967.1,160.2
				c0-1.9-0.5-3.4-1.5-4.4c-0.9-1-2.1-1.5-3.4-1.5c-1.4,0-2.6,0.5-3.6,1.6c-0.9,1-1.4,2.5-1.4,4.3H967.1z"/>
			<path class="st1" d="M983.9,157.4l-6-1.1c0.7-2.4,1.8-4.2,3.5-5.4c1.6-1.2,4.1-1.7,7.3-1.7c2.9,0,5.1,0.3,6.6,1s2.5,1.6,3,2.7
				c0.6,1.1,0.9,3,0.9,5.9l-0.1,7.7c0,2.2,0.1,3.8,0.3,4.9c0.2,1,0.6,2.2,1.2,3.3h-6.5c-0.2-0.4-0.4-1.1-0.6-2
				c-0.1-0.4-0.2-0.6-0.2-0.8c-1.1,1.1-2.3,1.9-3.6,2.5c-1.3,0.5-2.7,0.8-4.1,0.8c-2.6,0-4.6-0.7-6.1-2.1c-1.5-1.4-2.2-3.2-2.2-5.3
				c0-1.4,0.3-2.7,1-3.8c0.7-1.1,1.6-2,2.8-2.5c1.2-0.6,3-1.1,5.3-1.5c3.1-0.6,5.2-1.1,6.4-1.6v-0.7c0-1.3-0.3-2.2-0.9-2.7
				c-0.6-0.5-1.8-0.8-3.5-0.8c-1.2,0-2.1,0.2-2.8,0.7C984.9,155.5,984.3,156.3,983.9,157.4z M992.8,162.8c-0.8,0.3-2.2,0.6-4,1
				c-1.8,0.4-3,0.8-3.6,1.2c-0.9,0.6-1.3,1.4-1.3,2.3c0,0.9,0.3,1.7,1,2.4c0.7,0.7,1.6,1,2.6,1c1.2,0,2.3-0.4,3.4-1.2
				c0.8-0.6,1.3-1.3,1.6-2.2c0.2-0.6,0.3-1.6,0.3-3.2V162.8z"/>
			<path class="st1" d="M1028.5,174.8h-6.6V162c0-2.7-0.1-4.4-0.4-5.2s-0.7-1.4-1.4-1.8c-0.6-0.4-1.4-0.7-2.3-0.7
				c-1.1,0-2.2,0.3-3.1,0.9c-0.9,0.6-1.5,1.5-1.9,2.5c-0.3,1-0.5,2.9-0.5,5.7v11.3h-6.6v-25h6.1v3.7c2.2-2.8,4.9-4.2,8.2-4.2
				c1.5,0,2.8,0.3,4,0.8s2.1,1.2,2.7,2c0.6,0.8,1.1,1.7,1.3,2.8c0.2,1,0.4,2.5,0.4,4.4V174.8z"/>
			<path class="st1" d="M1048.5,140.3h7V159c0,3,0.1,4.9,0.3,5.8c0.3,1.4,1,2.5,2.1,3.4c1.1,0.9,2.7,1.3,4.6,1.3
				c2,0,3.5-0.4,4.5-1.2s1.6-1.8,1.8-3c0.2-1.2,0.3-3.1,0.3-5.9v-19.1h7v18.1c0,4.1-0.2,7.1-0.6,8.8c-0.4,1.7-1.1,3.2-2.1,4.3
				c-1,1.2-2.4,2.1-4.1,2.8s-3.9,1-6.6,1c-3.3,0-5.8-0.4-7.5-1.1c-1.7-0.8-3-1.7-4-3c-1-1.2-1.6-2.5-2-3.8c-0.5-2-0.7-4.9-0.7-8.7
				V140.3z"/>
			<path class="st1" d="M1106,174.8h-6.6V162c0-2.7-0.1-4.4-0.4-5.2c-0.3-0.8-0.7-1.4-1.4-1.8c-0.6-0.4-1.4-0.7-2.3-0.7
				c-1.1,0-2.2,0.3-3.1,0.9c-0.9,0.6-1.5,1.5-1.9,2.5c-0.3,1-0.5,2.9-0.5,5.7v11.3h-6.6v-25h6.1v3.7c2.2-2.8,4.9-4.2,8.2-4.2
				c1.5,0,2.8,0.3,4,0.8s2.1,1.2,2.7,2c0.6,0.8,1.1,1.7,1.3,2.8c0.2,1,0.4,2.5,0.4,4.4V174.8z"/>
			<path class="st1" d="M1112.7,146.4v-6.1h6.6v6.1H1112.7z M1112.7,174.8v-25h6.6v25H1112.7z"/>
			<path class="st1" d="M1124.5,161.9c0-2.2,0.5-4.3,1.6-6.4c1.1-2.1,2.6-3.6,4.6-4.7c2-1.1,4.2-1.6,6.6-1.6c3.8,0,6.9,1.2,9.3,3.7
				c2.4,2.5,3.6,5.6,3.6,9.3c0,3.8-1.2,6.9-3.7,9.4c-2.4,2.5-5.5,3.7-9.2,3.7c-2.3,0-4.5-0.5-6.5-1.6c-2.1-1-3.7-2.5-4.7-4.5
				C1125.1,167.2,1124.5,164.8,1124.5,161.9z M1131.3,162.3c0,2.5,0.6,4.4,1.8,5.7c1.2,1.3,2.6,2,4.3,2c1.7,0,3.2-0.7,4.3-2
				c1.2-1.3,1.8-3.2,1.8-5.7c0-2.4-0.6-4.3-1.8-5.6c-1.2-1.3-2.6-2-4.3-2c-1.7,0-3.2,0.7-4.3,2
				C1131.9,157.9,1131.3,159.8,1131.3,162.3z"/>
			<path class="st1" d="M1178.2,174.8h-6.6V162c0-2.7-0.1-4.4-0.4-5.2c-0.3-0.8-0.7-1.4-1.4-1.8c-0.6-0.4-1.4-0.7-2.3-0.7
				c-1.1,0-2.2,0.3-3.1,0.9c-0.9,0.6-1.5,1.5-1.9,2.5c-0.3,1-0.5,2.9-0.5,5.7v11.3h-6.6v-25h6.1v3.7c2.2-2.8,4.9-4.2,8.2-4.2
				c1.5,0,2.8,0.3,4,0.8c1.2,0.5,2.1,1.2,2.7,2c0.6,0.8,1.1,1.7,1.3,2.8c0.2,1,0.4,2.5,0.4,4.4V174.8z"/>
		</g>
	</g>
	<path class="st2" d="M586.1,129.9"/>
	<path class="st3" d="M586.1,128.4"/>
	<path class="st1" d="M477.9,55.3v146.1h216.4V55.3H477.9z M532.7,126.3l5.6,0l1.7-5.3l1.7,5.3h5.6l-4.5,3.2l1.7,5.2l-4.4-3.2
		l-4.4,3.2l1.7-5.2L532.7,126.3z M550.6,157.9l-4.4-3.3l-4.4,3.3l1.7-5.2l-4.5-3.2l5.6,0l1.7-5.3l1.7,5.3h5.6l-4.5,3.2L550.6,157.9z
		 M548.9,106.6l1.7,5.2l-4.4-3.2l-4.4,3.2l1.7-5.2l-4.5-3.2l5.6,0l1.7-5.3l1.7,5.3h5.6L548.9,106.6z M561.3,86.5l1.7-5.3l1.7,5.3
		h5.6l-4.5,3.2l1.7,5.2l-4.4-3.2l-4.4,3.2l1.7-5.2l-4.5-3.2L561.3,86.5z M567.5,174.7l-4.4-3.2l-4.4,3.2l1.7-5.2l-4.5-3.2l5.6,0
		l1.7-5.3l1.7,5.3h5.6l-4.5,3.2L567.5,174.7z M584.3,80.3L586,75l1.7,5.3h5.6l-4.5,3.2l1.7,5.2l-4.4-3.2l-4.4,3.2l1.7-5.2l-4.5-3.2
		L584.3,80.3z M590.5,180.8l-4.4-3.2l-4.4,3.2l1.7-5.2l-4.5-3.2l5.6,0l1.7-5.3l1.7,5.3h5.6l-4.5,3.2L590.5,180.8z M613.4,174.7
		l-4.4-3.2l-4.4,3.2l1.7-5.2l-4.5-3.2l5.6,0l1.7-5.3l1.7,5.3h5.6l-4.5,3.2L613.4,174.7z M611.8,89.7l1.7,5.2l-4.4-3.3l-4.5,3.3
		l1.7-5.2l-4.5-3.3l5.6,0l1.7-5.3l1.7,5.3h5.6L611.8,89.7z M624.2,103.3l1.7-5.3l1.7,5.3h5.6l-4.5,3.2l1.7,5.2l-4.4-3.2l-4.4,3.2
		l1.7-5.2l-4.5-3.2L624.2,103.3z M630.3,157.9l-4.4-3.3l-4.4,3.3l1.7-5.2l-4.5-3.2l5.6,0l1.7-5.3l1.7,5.3h5.6l-4.5,3.2L630.3,157.9z
		 M636.4,134.7l-4.4-3.3l-4.4,3.3l1.7-5.2l-4.5-3.2l5.6,0l1.7-5.3l1.7,5.3h5.6l-4.5,3.2L636.4,134.7z"/>
	<g>
		<path class="st1" d="M43.7,58h-15v46.1c4.9-0.9,9.9-1.8,15-2.7V58z"/>
		<path class="st1" d="M120.6,92.4c4.9-0.4,9.8-0.7,14.8-1.1v-4.7h12.3V74h-12.3V60.7h-14.8V74h-6.2v12.7h6.2V92.4z"/>
		<path class="st1" d="M289.6,88.5h0.8V73c-8.8-0.4-13.6,4.3-16.6,11.5V74h-14.8v15.3c7.7,0.2,15.3,0.5,22.8,0.9
			C284,89.1,286.6,88.5,289.6,88.5z"/>
		<path class="st1" d="M86.3,86.8c3.8,1.8,5.5,4.5,6,8.2c4.7-0.5,9.4-1,14.3-1.4c-1.7-7.6-6.2-14-13.2-17.6c-3.2-1.6-7-3-11.2-3
			c-4.2,0-8,1.3-11.2,3C62.1,80.5,57.2,89.3,57,99.4c0,0,0,0,0,0c0,0.3,0,0.5,0,0.8v0.2v25.8h14.8v-1.9v-21.7v-5.1c0,0,0-0.1,0-0.1
			c0,0,0,0,0,0c0-5,1.6-8.4,6.1-10.6c1-0.5,3.1-0.9,4.2-0.9S85.3,86.3,86.3,86.8z"/>
		<path class="st1" d="M339.9,94.4c2.5,0.2,5,0.5,7.4,0.7c-2-12.2-10-22.1-24.9-22.1c-11.9,0-21,7.6-24.4,18h0
			c-0.9,2.9-1.4,5.9-1.4,9.1v0.2c0,16,11.6,27,27.3,27c9.4,0,16.5-3.7,21.3-9.7l-8.5-7.5c-4.1,3.8-7.7,5.4-12.7,5.4
			c-6.6,0-11.3-3.5-12.8-10.2h36.3c0.1-1.4,0.2-2.7,0.2-3.9c0-2.1-0.2-4.2-0.5-6.2C344.9,94.9,342.4,94.6,339.9,94.4z M311.1,96
			c0.3-1.5,0.6-2.8,1.2-4c-2.1-0.2-4.2-0.3-6.3-0.4c2.1,0.1,4.3,0.3,6.3,0.4c1.8-4.4,5.3-7.1,10.1-7.1c5.5,0,9.1,3.5,10.5,8.8
			c0,0,0,0,0,0c0.2,0.7,0.3,1.5,0.5,2.3H311.1z"/>
		<path class="st1" d="M43.7,101.4c-5.1,0.8-10.1,1.7-15,2.7v22.1h15V101.4z"/>
		<path class="st1" d="M147.4,124v-11.9c-2.1,1.2-4.6,1.8-7.3,1.8c-3.3,0-4.8-1.7-4.8-5.1V91.3c-5,0.3-9.9,0.7-14.8,1.1v19
			c0,12.1,6.1,15.7,15.2,15.7C140.7,127.1,144.3,125.9,147.4,124z"/>
		<path class="st1" d="M183.3,127.4c9.4,0,16.5-3.7,21.3-9.7l-8.5-7.5c-4.1,3.8-7.7,5.4-12.7,5.4c-6.6,0-11.3-3.5-12.8-10.2H207
			c0.1-1.4,0.2-2.7,0.2-3.9c0-4.4-0.7-8.7-2.2-12.6c0,0,0,0,0,0c-3.4-9.1-11-15.8-23.2-15.8c-11.6,0-20.4,7.1-24,17.1c0,0,0,0,0,0
			c-1.1,3.1-1.7,6.5-1.7,10.1v0.2C156,116.4,167.6,127.4,183.3,127.4z M181.8,84.9c3.6,0,6.5,1.5,8.4,4.1c0,0,0,0,0,0
			c1.4,1.8,2.3,4.2,2.6,7h-22.3c0.4-2.5,1.3-4.7,2.5-6.5C175,86.6,178,84.9,181.8,84.9z"/>
		<path class="st1" d="M218.2,126.2H233v-19.3c0-10.5,4.3-16.4,11.6-18c0,0,0,0,0,0c1.3-0.3,2.8-0.4,4.3-0.4h0.8V73
			c-8.8-0.4-13.6,4.3-16.6,11.5V74h-14.8v14.7c0,0,0,0,0,0V126.2z"/>
		<path class="st1" d="M258.9,126.2h14.8v-19.3c0-8.7,2.9-14.2,8.1-16.7c-7.5-0.4-15.2-0.6-22.8-0.9V126.2z"/>
		<path class="st1" d="M409.3,104.1V74h-14.8v6.8c-4-4.4-8.8-7.8-16.8-7.8c-11.6,0-22.4,8.2-23.1,22.9c4.6,0.5,9.1,1.1,13.6,1.7
			c-4.5-0.6-9-1.1-13.6-1.7c0,0.5-0.1,0.9-0.1,1.4v0.2c0,15.5,11,24.3,23.2,24.3c7.9,0,12.7-3.2,17-8.5v2.5
			c0,9.3-4.8,14.2-14.9,14.2c-6.9,0-12.3-1.8-17.6-4.8l-5.1,11.1c6.6,3.5,14.6,5.5,23.1,5.5c10.1,0,17.6-2.1,22.5-7
			c4.4-4.4,6.6-11.2,6.6-20.5L409.3,104.1C409.3,104.1,409.3,104.1,409.3,104.1z M382,109.6c-7.1,0-12.6-4.8-12.6-11.9h0
			c0-0.1,0-0.1,0-0.2v-0.2c0-7.1,5.5-12.1,12.7-12.1c7.2,0,12.8,5,12.8,12.1v0.2c0,1.4-0.2,2.7-0.6,3.8c0,0,0,0,0,0
			C392.5,106.4,387.8,109.6,382,109.6z"/>
		<path class="st1" d="M92.4,124.3v1.9h14.8v-25.8v-0.2c0-2.3-0.3-4.5-0.7-6.6c-4.8,0.4-9.6,0.9-14.3,1.4c0.1,0.8,0.2,1.6,0.2,2.5
			v5.1V124.3z"/>
		<path class="st1" d="M145.4,160.8V155h-12.1v18v25.8h12.7v-20.7c0-2.6,0.5-4.8,1.3-6.5c1.8-3.8,5.5-5.7,10.3-5.7
			c1,0,1.8,0.1,2.8,0.2v-11.7C153.7,154.4,148.5,156.6,145.4,160.8z"/>
		<path class="st1" d="M187.5,154.4c-11.4,0-20.3,6.3-23.1,15.9c-0.6,2.1-1,4.3-1,6.7c0,13.2,10.2,22.5,24.1,22.5
			c13.9,0,24-9.4,24-22.5c0-3.2-0.6-6.1-1.7-8.8C206.4,159.8,198.1,154.4,187.5,154.4z M187.5,189.1c-6.3,0-11.2-4.6-11.2-12.1
			c0-3.1,0.8-5.6,2.2-7.6c2-2.9,5.3-4.6,9-4.6c3.4,0,6.4,1.4,8.4,3.8c1.7,2.1,2.8,4.9,2.8,8.4C198.7,184.5,193.9,189.1,187.5,189.1z
			"/>
		<path class="st1" d="M111.8,175.6v1.1c0,8.1-4.2,11.8-10.1,11.8c-5.5,0-8.7-3.2-8.8-10.2c0-0.1,0-0.2,0-0.4V155H80.1v24.7
			c0,0.2,0,0.4,0,0.5c0.2,13.1,7.8,19.1,18.7,19.1c5.4,0,10.3-2,13.6-5.9v5.2h12V174v-19h-12.7V175.6z"/>
		<path class="st1" d="M243.7,154.4c-5.9,0-10.6,1.9-13.8,5.7v-5h-12.1v13v46.6h12.7v-20.4c3.3,3.6,7.7,5.3,13.2,5.3
			c12.3,0,21.8-8.8,21.8-22.5c0-3-0.5-5.7-1.3-8.2C261.2,159.8,253.3,154.4,243.7,154.4z M241.5,189.1c-6.3,0-11.1-4.6-11.1-12.1
			c0-3.8,1.2-6.8,3.2-8.9c2-2.1,4.8-3.2,7.9-3.2c3.3,0,6.1,1.2,8.1,3.5c1.9,2.1,3,5,3,8.7C252.6,184.5,247.8,189.1,241.5,189.1z"/>
		<path class="st1" d="M294.5,154.4c-10.5,0-18.9,5.9-22,14.7c-0.8,2.4-1.3,5-1.3,7.8c0,13,9.8,22.5,25,22.5c7.9,0,14-2.4,18.1-7.1
			l-6.8-7.3c-3,2.9-6.3,4.2-11,4.2c-6.7,0-11.3-3.3-12.5-8.8H317c0.1-1.1,0.2-2.4,0.2-3.4c0-1.7-0.1-3.2-0.4-4.7
			C314.9,161.1,305.9,154.4,294.5,154.4z M283.8,173.1c0.2-1.2,0.6-2.3,1-3.3c1.7-3.6,5.2-5.8,9.8-5.8c5,0,8.9,2.8,10.3,7.3
			c0.2,0.6,0.3,1.2,0.4,1.8H283.8z"/>
		<polygon class="st1" points="41.8,187.6 41.8,175.1 68.3,175.1 68.3,164.8 41.8,164.8 41.8,152.4 71.8,152.4 71.8,141.9 
			28.7,141.9 28.7,190.5 28.7,198.8 72.8,198.8 72.8,188.2 41.8,188.2 		"/>
	</g>
</g>
</svg>
