<svg version="1.1" id="Capa_1" xmlns="http://www.w3.org/2000/svg" xmlns:xlink="http://www.w3.org/1999/xlink" x="0px" y="0px"
	 viewBox="0 0 595.3 301.1" style="enable-background:new 0 0 595.3 301.1;" xml:space="preserve">
<style type="text/css">
	.st0{fill:#E0D3FB;}
</style>
<g>
	<path class="st0" d="M131.7,24.5c0,5.8,0,11.6,0,17.4c0,5.6,0.6,11.2,1.2,16.8c0.5,4.8,0.9,9.6,1.4,14.5c0.5,4.8,1,9.6,1.4,14.3
		c0.5,5.9,1.6,11.7,1.7,17.7c0,2.8,0,5.7,0.4,8.8c0.6-3.2,0.9-6.1,1.1-9.2c0.2-3.1,0.2-6.1,0-9.2c-0.3-3.9,0.3-7.9,0.5-11.8
		c0.3-4.2,0.6-8.4,1-12.5c0.4-4.8,0.8-9.6,1.2-14.4c0.4-3.9,0.7-7.8,1.2-11.6c0.4-3.6,1.1-7.2,1.6-10.8c0.2-1.6,0.5-3.2,0.2-4.9
		c-1,3-1.4,6.2-2,9.3c-0.5-0.4-0.4-0.9-0.5-1.3c-0.9-3.8-1.7-7.7-2.6-11.5c-0.2-0.8-0.1-1.2,0.9-1.1c2.7,0.1,5.4,0.5,8.1,0.8
		c0.8,0.1,1.6,0.4,2.3,0.8c1.4,0.9,2.8,1.9,4.2,3c0.3,0.2,0.6,0.6,1.1,0.4c0.5-0.2,0.4-0.7,0.5-1.1c0-0.1,0-0.1,0-0.2
		c-0.1-1.7-0.1-1.7,1.6-1.4c3.4,0.6,6.8,1.4,10.2,2.2c0.8,0.2,1.2,0.6,1.3,1.4c0.1,1,0.3,2,0.6,3c0.2,0.7-0.1,1.4-0.2,2
		c-2.3,9.1-5.1,18-7.3,27.1c-0.5,1.9-0.9,3.9-1.1,5.9c0,0.4-0.2,0.8,0.1,1.1c0.4-0.1,0.3-0.4,0.4-0.7c2.7-8.9,5.5-17.8,8.4-26.7
		c0.6-2,1.1-4,1.7-6c0.2-0.6,0.5-1,1-1.3c0.8-0.5,1.6-1.1,2.4-1.7c0.2-0.1,0.4-0.3,0.6-0.2c0.3,0.1,0.1,0.4,0.1,0.6
		c-0.6,3.9-1.2,7.9-1.9,11.8c-0.1,0.8-0.6,1.5-1,2.2c-1.6,3-3.2,5.9-4.7,8.9c-2.2,4.4-3.7,9.1-5.3,13.8c-2.5,6.9-5,13.8-7.3,20.8
		c-2.3,7.1-4.4,14.2-6.1,21.5c-0.2,0.9-0.3,1.8-0.2,2.7c0.1,0.9,0.5,1.1,1.2,0.5c1.2-1,2.1-2.2,2.9-3.5
		c6.3-10.3,12.4-20.7,17.9-31.5c2.5-4.8,4.5-9.9,6.6-14.9c1.5-3.5,2.6-7,3.5-10.7c0.7-2.8,2.2-5.3,3.5-7.8c1.7-3.1,3.5-6.1,4.8-9.4
		c0.3-0.9,0.8-1.1,1.7-0.7c0.9,0.5,0.7,1,0.4,1.7c-2.5,5.7-5,11.5-7.4,17.2c-3.4,8-6.7,16-10.1,24c-0.1,0.2-0.2,0.4-0.1,0.6
		c1.8-3.1,3.5-6.2,5.3-9.3c2.5-4.5,5-9.1,7.5-13.6c2.1-3.6,3.5-7.5,4.6-11.5c0.6-2.2,1.4-4.3,2.1-6.5c0.3-1,0.8-1.1,1.7-0.7
		c0.9,0.4,1.7,0.9,2.6,1.3c0.7,0.3,0.7,0.7,0.4,1.3c-2,4.1-3.9,8.1-5.9,12.2c-2.2,4.6-4.5,9.1-6.7,13.6c-0.1,0.2-0.3,0.4-0.2,0.8
		c0.8-1.2,1.6-2.2,2.3-3.3c4.6-6.5,9.1-13.1,13.7-19.6c0.4-0.5,0.6-1.3,1.5-0.4c0.3,0.3,0.8,0.2,1.3,0.2c2-0.2,3.6,0.5,5.3,1.5
		c5,3.1,9.8,6.5,14.3,10.2c1,0.9,1,0.9-0.1,1.6c-6.3,4-11.6,9.2-16.7,14.6c-3.6,3.8-7,7.8-10.3,11.9c-0.1,0.1-0.2,0.2-0.1,0.5
		c1-1,2.1-1.9,3.1-2.9c3.8-3.7,7.6-7.4,11.8-10.6c2.9-2.2,6.2-3.9,9.1-6.1c1.2-0.9,2.4-1.9,3.6-2.8c0.9-0.7,1.4-1.8,1.9-2.8
		c0.3-0.6,0.5-0.8,1.2-0.3c1.4,1.2,2.7,2.5,3.9,3.9c0.4,0.4,0.4,0.7-0.2,0.9c-1.7,0.7-2.8,1.9-3.9,3.3c-1,1.4-2.5,2.3-3.8,3.4
		c-3.4,3-6.8,5.8-10,9c-0.4,0.4-0.7,0.8-1,1.4c1.5-0.8,3.1-1.7,4.6-2.5c3.6-2,7.2-4.1,10.8-6.1c1.2-0.7,2.5,0,3.7,0
		c0.5,0,0.2,0.5,0,0.8c-0.5,1-1,2.1-1.2,3.2c-0.1,0.7-0.1,1.3,0.3,1.9c0.5,0.7,0.2,1-0.3,1.4c-4.8,4.2-9.5,8.5-13.9,13.1
		c-0.7,0.8-1.4,1.6-2,2.6c1.9-1.2,3.8-2.3,5.7-3.5c5.3-3.3,10.7-6.4,15.8-10c0.5-0.4,0.8-0.3,0.8,0.3c0.1,0.6,0.5,0.8,1.1,0.7
		c0.6-0.1,1.1-0.2,1.7-0.5c0.7-0.3,1.5-0.7,2.2-1c1.9-0.8,2.2-0.6,3.1,1.2c1.3,2.8,2.4,5.6,3.5,8.4c0.5,1.2,0.4,2.3,0,3.5
		c-0.6,1.4-1.4,2.7-2.2,4c-0.3,0.5-0.9,0.3-1.2,0.8c-0.4,0.9-0.5,1.7-0.3,2.6c0.6,2.7,2.3,4.7,4.3,6.3c1.3,1.1,2.7,2.1,4.1,3.1
		c0.5,0.4,0.8,0.9,0.9,1.5c0.5,3.9,0.9,7.8,1.2,11.8c0.3,4.2,0.3,8.4,0.1,12.6c-0.3,9-1.1,18.1-4.1,26.7c-0.2,0.5-0.3,1-0.6,1.5
		c-2.9,5.1-4.6,10.7-6.6,16.3c-1.4,4-3.2,7.8-5,11.7c-0.4,0.9-1,1.3-1.9,1.4c-1.6,0.2-3.2,0.6-4.7,1.3c-1,0.5-1.3,1.1-1.1,2.2
		c0.3,1.5,1,2.9,1.5,4.3c0.3,0.8,0.3,1.4-0.2,2.1c-3.1,5.1-6.3,10.1-9.7,15.1c-0.8,1.2-2,1.8-2.9,2.9c-0.3,0.4-0.9,0.3-1.5,0.1
		c0.1-0.2,0.2-0.3,0.2-0.3c1.4-0.8,1.4-0.9,0.1-1.9c-4-3-8.3-5.6-12.5-8.2c-5.7-3.5-11.5-6.9-17.1-10.8c-1.5-1-2.6-2.4-3.9-3.6
		c-3.8-3.5-7.7-7.1-11.5-10.6c-0.7-0.6-1.3-1.4-1.7-2.2c-3-5.3-6.4-10.4-10.1-15.3c-1.9-2.6-3.5-5.4-5.2-8.1
		c-0.3-0.4-0.3-0.8,0.1-1.1c1.7-1.8,3.1-3.8,3.9-6.2c0.2-0.6,0.5-0.6,0.8-0.1c1.4,2.1,3,4.1,2,6.9c-0.3,0.8,0.1,1.5,0.7,2.1
		c2.7,2.2,5.4,4.3,8.7,5.5c1.7,0.6,3.5,0.3,5.3,0.2c1.6-0.1,3.1-0.3,4.6-0.5c0.5-0.1,0.9,0,1.1,0.4c5,6.9,11.9,11.7,18.9,16.2
		c2.6,1.7,5.3,3.4,8.1,4.8c0.9,0.4,1.7,0.8,2.7,0.8c0.3,0,0.7,0.2,0.9-0.2c0.1-0.3-0.2-0.6-0.5-0.8c-1.6-1.5-3.4-2.7-5.2-4
		c-4.3-3.1-8.9-5.9-12.9-9.3c-1.7-1.4-3.3-2.9-4.7-4.6c-0.2-0.2-0.5-0.4-0.4-0.7c0.1-0.3,0.5-0.2,0.8-0.1c6.2,0.7,12.4,1.4,18.3,3.3
		c2.4,0.8,4.2,2.6,6.3,4c4.6,3.2,9,6.7,13.9,9.5c0.3,0.2,0.6,0.5,1.3,0.5c-3.8-3-7.5-6-11.2-8.9c0-0.1,0.1-0.1,0.1-0.2
		c1,0.4,2,0.8,3.1,1.3c3.6,1.5,7.1,3,10.7,4.5c1.1,0.5,2.3,0.8,3.6,0.9c0.6,0.1,1.1,0.1,1.5-0.4c0.4-0.6,0.1-1.2-0.3-1.6
		c-2.3-2.4-3-5.5-4.3-8.3c-0.6-1.3-1.2-2.6-1.8-4c-0.4-0.8-0.8-1.5-1.3-2.3c-1.4-2.3-3.2-3.9-5.8-4.7c-5.8-1.9-11.7-4-17.8-4.9
		c-3.1-0.5-6.2-0.9-9.4-0.6c-0.2,0-0.4,0-0.6,0.3c0.5,0.5,1.1,0.6,1.7,0.8c4.4,1.6,8.9,2.6,13.3,3.9c3.6,1.1,7.2,2.2,10.6,3.8
		c1.3,0.6,2.4,1.5,3.1,2.8c0.7,1.3,1.5,2.6,2.2,3.9c0.5,0.9,0.3,1.2-0.7,1.3c-1.7,0.1-3.3-0.4-4.8-1.1c-1.2-0.5-2.3-1.2-3.5-1.8
		c-5.2-3-10.8-5-16.7-6.2c-6-1.2-11.9-2.7-17.8-3.7c-3-0.5-6-0.8-9-1.4c-1.6-0.3-3.2-0.9-4.4-2.1c-1.4-1.3-3.1-2.1-4.8-2.9
		c-1.9-0.9-3.5-2.1-5.3-3.2c-0.5-0.3-0.7-0.7-0.5-1.3c0.5-2.6,0.4-5.3,0.2-7.9c0-0.6,0-0.9,0.7-1c9.4-0.9,18.4-3.7,27.4-6
		c6.1-1.6,12.2-2.6,18.5-2.8c4.4-0.2,8.5,0.9,12.7,2.2c5.4,1.7,10.5,4.1,15.7,6.2c0.4,0.2,0.7,0.4,1.1,0.5c2.8,0.8,3.9,3.1,4.8,5.4
		c0.5,1.2-0.1,1.8-1.4,1.5c-1-0.3-2-0.8-2.9-1.2c-6.4-3.3-13-5.8-20.1-7.2c-3.7-0.7-7.5-0.6-11.2,0.6c-5.6,1.8-11.4,2.9-17.3,2.8
		c-4,0-7.9,0.5-11.7,1.2c-0.9,0.2-1.9,0.3-2.9,0.4c0,0.1,0,0.2,0,0.3c1.5,0,3.1,0.1,4.6,0c2.9-0.2,5.9-0.2,8.8-0.6
		c6.5-0.8,13.1-1.1,19.7-0.8c4.5,0.2,9.1-0.2,13.5,0.8c1.2,0.3,2.3,0.5,3.4,1.2c2.7,1.6,5.4,3.2,8.1,4.8c0.1,0.1,0.3,0.2,0.6,0.5
		c-1.6,0-3-0.4-4.3-0.6c-5.4-0.8-10.8-1.7-16.3-1.9c-3.3-0.1-6.5,0.4-9.7,1c-4.8,0.9-9.5,1-14.4,0.8c-5.2-0.2-10.3-0.1-15.5,0.4
		c1,0.5,2.1,0.5,3.1,0.6c4.7,0.6,9.4,0.5,14.1,0.2c8.4-0.5,16.8-1.1,25,1.2c4,1.1,7.6,2.9,11.4,4.4c4,1.6,8.1,3.2,12.4,4
		c0.5,0.1,1,0.1,1.5,0.1c0.4,0,0.9,0,1.2-0.4c0.2-0.5-0.1-0.9-0.3-1.2c-0.9-1-1.8-2.1-2.8-3c-1.2-1-2.2-2.2-3.3-3.3
		c-0.3-0.3-0.6-0.6-0.3-1c0.2-0.4,0.7-0.2,1-0.2c4.2,0.4,7.6-1.3,10.3-4.4c1.5-1.7,1.5-3.8,0.5-5.8c-0.7-1.3-1.6-2.5-2.5-3.6
		c-0.3-0.4-0.6-0.7-0.9-1.1c-1.5-2.1-1.4-2.7,0.4-4.4c1.5-1.4,2.9-3,4.2-4.5c0.5-0.6,0.6-0.9-0.2-1.3c-1.4-0.7-2.7-1.5-4.2-2
		c-1.3-0.5-2.7-0.6-4-0.4c-2.2,0.3-4.3,0.7-6.6,1.3c0.2,0.5,0.7,0.5,1,0.6c1.6,0.6,3.3,1.2,4.9,1.8c0.7,0.3,1,0.6,0.6,1.4
		c-0.7,1.6-1.4,3.2-2,4.8c-0.3,0.8-0.6,0.9-1.4,0.5c-4.2-2.2-8.7-3.6-13.3-4.5c-3.8-0.7-7.5-0.6-11.3-0.1c-12.2,1.5-24.3,4-36.2,7.1
		c-3.2,0.8-6.2,2.2-9.5,2.5c-1.4,0.1-2.8,0.4-4.2,0.6c-0.6,0.1-0.9-0.1-1-0.7c-0.5-2.3-1.2-4.5-2.2-6.7c-0.4-0.8,0.1-1,0.6-1.2
		c4.5-1.9,9-4,13.5-6c2.9-1.3,5.7-2.6,8.6-3.9c4.3-2,8.9-2.9,13.3-4.2c9-2.7,18.2-5.2,27-8.5c0.8-0.3,1.6-0.5,2.3-1.2
		c-0.7-0.4-1.4-0.2-2-0.1c-4.3,0.6-8.3,1.8-12.4,3.1c-5.8,1.8-11.6,3.8-17.3,5.6c-0.3,0.1-0.7,0.3-1.1,0.1c0.6-0.6,1.4-0.8,2.1-1.1
		c3.2-1.4,6.5-2.7,9.6-4.3c3.4-1.7,6.5-3.7,9.1-6.5c3.1-3.2,6.8-5.7,10.5-8c3.9-2.4,7.6-4.9,11.3-7.5c1.7-1.2,3.4-2.4,5.3-3.3
		c0.3-0.1,0.7-0.3,0.5-0.7c-0.1-0.4-0.4-0.5-0.8-0.5c-0.8-0.1-1.6,0.2-2.3,0.5c-5.5,2.8-10.9,5.7-16,9.1c-2.9,1.9-5.3,4.4-7.5,7
		c-3.9,4.5-8.7,7.9-13.9,10.6c-3.8,2-7.8,3.4-11.7,5.1c-5.5,2.4-10.8,5.1-16.2,7.7c-4.2,2-8.4,4-12.5,6c-0.6,0.3-1,0.2-1.3-0.4
		c-0.4-0.8-0.9-1.5-1.4-2.2c-0.5-0.7-0.4-1.1,0.3-1.6c5.9-4.3,12-8.4,19.2-10.4c1.6-0.4,3-1.2,4.6-1.7c4.3-1.4,7.8-4.3,11.2-7.1
		c4-3.4,8-6.8,11.6-10.7c3.8-4.1,7.8-8,11.7-12.1c-0.7,0.5-1.4,1-2,1.6c-4.5,3.9-9.1,7.7-13.9,11.3c-4.1,3.1-8.7,5.3-13.2,7.7
		c-5.9,3.2-12,6.2-17.4,10.3c-2.2,1.7-4.1,3.7-6.5,5.2c-0.9,0.5-1.7,1.1-2.7,1.3c-0.4,0.1-0.9,0.2-1.2-0.2c-0.3-0.4-0.1-0.8,0.2-1.2
		c0.3-0.5,0.6-0.9,1-1.3c2.9-3.2,5.5-6.6,8.6-9.6c2.8-2.7,6-4.7,9.9-5.8c3.6-1,6.9-3,10.3-4.7c2.9-1.4,5-3.7,7.1-5.9
		c2.6-2.7,5.2-5.5,8-8c2.2-1.9,3.4-4.5,4.4-7.4c-1,0.5-1.5,1.2-2.2,1.8c-2.8,2.4-5.5,4.8-8.2,7.3c-2.4,2.1-5.1,3.6-7.7,5.2
		c-1.6,1-3.2,1.9-4.7,2.9c-1.5,0.9-3,1.5-4.7,1.8c-0.6,0.1-1.2,0.1-1.8,0c-1.6-0.4-1.9-1.3-0.8-2.4c4.8-5.1,9.5-10.4,14.5-15.4
		c2.7-2.8,4.6-6.2,6.6-9.4c3.3-5.5,6.6-11,9.9-16.6c0.4-0.7,0.7-1.5,0.9-2.3c0.2-1-0.2-1.8-1-2.4c-0.5-0.3-0.9-0.3-1.3,0.1
		c-2.6,3-5.2,5.9-7.8,8.9c-2.8,3.4-4.8,7.3-6.9,11.2c-1.6,2.9-3.2,5.8-4.9,8.7c-2.8,4.7-6.6,8.5-10.7,11.8
		c-9.1,7.1-15.7,16.1-21.2,26.1c-1.2,2.1-2.4,4.2-3.5,6.4c-0.4,0.7-0.6,0.9-1.4,0.3c-4.6-3.7-9.8-5.9-15.7-6.6
		c-1-0.1-1.1-0.7-1.1-1.4c-0.1-5.1-1.5-9.9-2.6-14.8c-1.4-6.5-3-13-4.1-19.6c-0.2-1.3-0.4-2.5-0.4-3.8c0.1-6.8-0.5-13.6-1-20.5
		c-0.6-7.8-1.7-15.5-3.4-23c-0.7-3-0.7-5.9-0.9-8.9c-0.1-1.3,0.4-1.7,1.7-1.8c0.6,0,1.3,0.1,1.9-0.2
		C127.7,24.5,129.7,24.5,131.7,24.5z M142.8,118c0.1,0,0.2,0.1,0.3,0.1c1.3-3.4,2.8-6.7,3.9-10.2c2.5-7.7,4.8-15.4,7.2-23.1
		c2.8-9,5.2-18,6.7-27.3c1-6.2,1.7-12.5,4-18.4c0.7-2,1.4-4,1.4-6.1c0-0.3,0.2-0.8-0.3-0.9c-0.4-0.1-0.5,0.4-0.6,0.7
		c-1.3,2.5-2.2,5.2-3,7.9c-1,3.1-1.6,6.4-2.7,9.5c-0.1,0.4-0.2,1.1-0.8,1c-0.5-0.1-0.3-0.8-0.3-1.2c0.3-4.6,1.5-9.1,1.9-13.6
		c0.2-1.9,0.5-3.8,0.5-5.7c-0.2,0.2-0.3,0.4-0.4,0.5c-2.8,7.3-5.4,14.8-6.8,22.5c-2.4,12.9-5.2,25.7-6.8,38.7
		c-0.7,6-2.5,11.9-3.2,17.9C143.5,112.8,143.1,115.4,142.8,118z M225,204.2c-0.8-0.4-1.5-0.8-2.3-1.2c-9-4.6-18.2-8.8-27.1-13.5
		c-3.3-1.7-6.3-3.7-8.6-6.7c-1.1-1.4-2.4-2.5-4-3.4c-2.2-1.3-4.3-2.6-5.9-4.6c-0.2-0.3-0.5-0.6-1-0.3c-2.1,1.1-2.4,1.9-1.4,4
		c1.2,2.6,2.8,4.9,4.5,7.2c1,1.3,2.2,2.4,3.6,3.2c6.6,3.8,13.2,7.7,19.9,11.3c0.3,0.2,0.6,0.5,1.3,0.3c-3-3.3-6.4-5.9-9.6-8.7
		c0.7,0.2,1.3,0.5,1.9,0.8c7.6,4,15.2,7.9,23.3,10.8C221.4,204.1,223.1,204.7,225,204.2z M199.8,128c2.8,0,5.5-0.4,8.1-0.7
		c9.7-1.1,19.3-2.8,29-4.1c1.7-0.2,3.5-0.5,4.9-1.6c1.6-1.3,3.5-1.7,5.5-1.8c0.8,0,1.5,0,2.3,0c0.4,0,0.8,0,0.9-0.4
		c0.1-0.4-0.1-0.7-0.4-0.9c-0.7-0.5-1.4-0.9-2.3-1c-3.5-0.4-7-1-10.4-1.1c-4.9-0.1-9.7,0.9-14.5,1.7c-2.5,0.4-5,1.1-7.2,2.5
		c-4.7,2.8-9.5,5.4-14.8,6.9C200.4,127.5,200.1,127.6,199.8,128z M142.9,106.8c0.3-0.3,0.3-0.7,0.3-1c0.4-2.9,0.8-5.7,1.2-8.6
		c1-6.9,1.9-13.9,3-20.8c1.2-8.2,2.3-16.5,3.9-24.6c0.9-4.6,1.9-9.1,1.6-13.9c-0.1-1.8-0.4-3.5-0.9-5.2c-0.1-0.2-0.1-0.6-0.4-0.6
		c-0.3,0-0.3,0.3-0.4,0.6c-0.1,0.6-0.3,1.1-0.4,1.7c-0.3,1.8-0.6,3.6-0.8,5.4c-0.5,4.9-1.4,9.8-2.1,14.7c-0.7,5.8-1.4,11.5-2,17.3
		c-0.6,5.4-1.1,10.8-1.6,16.2c-0.4,4-0.7,8-1,12C143,102.2,142.8,104.5,142.9,106.8z M208.4,205.6c0.2,0.5,0.5,0.6,0.7,0.8
		c4.3,3.1,8.7,6.2,13,9.2c2.2,1.5,1.5,1.7,3.7-0.4c0,0,0-0.1,0.1-0.1c0.5-0.5,0.4-0.7-0.2-1c-1.5-0.7-2.9-1.3-4.3-2
		C217.1,209.9,212.8,207.8,208.4,205.6z M188.4,131.1c-6.2,0.8-12,3-17.6,5.5C176.8,135.4,183,134.3,188.4,131.1z"/>
	<path class="st0" d="M10.1,135.2C10.1,135.2,10.2,135.2,10.1,135.2c1.5-2.1,3.5-2.2,5.8-2.2c6.9-0.1,13.8-0.3,20.7-0.4
		c2.6,0,5.3,0.1,8-0.4c-0.4-0.6-0.9-0.6-1.4-0.7c-3.7-0.9-7.4-1.1-11.2-1.2c-5.8-0.1-11.6-0.5-17.4-1c-1-0.1-2-0.1-3-0.2
		c-0.7-0.1-1-0.4-1-1.1c0.4-5.3,0.9-10.7,1.6-16c0.1-1,0.5-1.3,1.4-1.4c1.5-0.1,2.9,0.2,4.3,0.5c5.8,1.2,11.6,2.9,17.5,3.8
		c4.3,0.6,8.6,0.9,13,0.2c0.4-0.1,0.8,0,1.2,0.1c12.8,3.4,25.6,6.6,38.2,10.9c5.2,1.8,10.3,4.2,15.3,6.5c2.5,1.2,2.4,1.2,1.6,3.7
		c-0.4,1.2-0.7,2.3-1,3.5c-0.2,0.8-0.5,1-1.3,0.8c-2.9-0.8-5.8-1.3-8.7-1.6c-3.2-0.3-6.4-0.6-9.6-0.8c-5.2-0.4-10.5-0.7-15.7-1
		c-2.2-0.1-4.5-0.1-6.7-0.1c-8.7,0-17.4,0-26.2,0.1c-7.6,0.1-15.2,0.3-22.8,0.4c-0.8,0-1.7,0-2.5,0C10.1,136.8,10.1,136,10.1,135.2z
		 M11.9,124.1c5,0.3,10,0.5,14.9,0.9c6.5,0.5,13,1.3,19.4,2.4c5.1,0.9,10.1,1.9,15.2,2.7c7.8,1.2,15.6,2.1,23.3,3
		c1.7,0.2,3.3,0.4,5,0.5c1.4,0.1,2.7-1,3-2.2c0.2-1-0.6-2-2.1-2.5c-1.8-0.6-3.6-1.1-5.5-1.4c-5.9-1.2-11.9-1.4-17.9-1.3
		c-4.1,0.1-8.1-0.2-12.1-0.8c-8.7-1.3-17.4-1.9-26.1-2.2C23.2,122.7,17.6,123.4,11.9,124.1z"/>
	<path class="st0" d="M135.6,24.5c0.6,0.3,1.2,0.2,1.8,0.2c0.7,0,1,0.3,1,1c0.3,3.2,0.6,6.3,0.8,9.5c0.2,2.6,0.3,5.2,0.4,7.8
		c0.1,3.1-0.2,6.1-0.5,9.2c-0.3,4.1-0.7,8.2-1,12.3c-0.2,2.8-0.5,5.6-0.7,8.4c0,0.3-0.1,0.6-0.4,0.9c-0.2-2.2-0.5-4.4-0.7-6.6
		c-0.5-5.2-1-10.4-1.5-15.6c-0.4-4.5-0.8-9.1-1.2-13.6c-0.4-4-0.7-8.1-0.8-12.1c0-0.4,0-0.9,0-1.3C133.9,24.5,134.8,24.5,135.6,24.5
		z"/>
	<path class="st0" d="M308.7,175.9c1.1-5.7,2.1-11.5,3.3-17.3c2.8-13.7,5.3-27.5,8.7-41c1.9-7.7,4.2-15.4,7.8-22.5
		c1.6-3.2,3.7-6.1,6.7-8.1c2.1-1.4,4.4-2.2,6.9-2.3c1.6-0.1,2.6,0.9,3.3,2.2c1.1,1.9,1.9,4.1,2.5,6.2c2.2,7.4,3.6,15,4.8,22.6
		c1.5,9.3,2.1,18.7,3.5,28.1c1.2,8.3,2.6,16.5,4.5,24.6c0.1,0.4,0.2,0.8,0.3,1.3c0.4-0.2,0.4-0.5,0.5-0.8c4-12.3,7.9-24.6,11.7-37
		c5.7-19.1,12.1-37.9,19.8-56.3c1-2.3,2.2-4.6,4-6.4c2.2-2.3,5.1-2.6,8-2.5c1.4,0.1,2,1.4,2.4,2.5c0.8,2,1.4,4.2,1.8,6.4
		c1.5,7.4,2.4,14.8,3.3,22.3c0.8,6.5,1.4,13,2.1,19.5c0.5,4.7,0.8,9.4,1.2,14.1c0.7,9.7,1.6,19.3,3.2,28.9c1.1,7.1,2.2,14.2,4,21.2
		c0.4,1.7,1,3.4,1.5,5.1c0.5,1.8,1.4,3.3,2.8,4.6c1.6,1.5,2.5,3.3,2.5,5.6c0,0.9-0.3,1.6-0.8,2.3c-2.5,2.9-5.7,4.1-9.5,3.8
		c-0.2,0-0.4-0.1-0.5-0.1c-3.1,0.1-4.7-1.7-5.6-4.4c-1.7-5.1-2.5-10.5-3.4-15.8c-1.3-7.9-2.4-15.8-3.4-23.7
		c-0.7-5.7-1.4-11.5-1.8-17.2c-0.6-7.6-1.4-15.1-2.1-22.7c-0.6-6.7-1.3-13.4-2.2-20.1c-0.4-2.9-0.8-5.8-1.5-8.7
		c-0.4,0.3-0.5,0.7-0.6,1c-4.1,10.5-7.6,21.1-10.8,31.8c-4.3,14.3-8.1,28.7-12.8,42.8c-1.7,4.9-3.4,9.8-5.9,14.4
		c-2,3.7-5.4,5.9-9.1,7.6c-1.4,0.6-3,0.5-4.5,0.4c-1.3-0.2-2-1-2.5-2.2c-1-2.5-1.5-5.1-2-7.8c-2.1-10.4-4.2-20.8-5.8-31.3
		c-1.1-7.5-2.1-15-3.2-22.4c-1.1-7.7-2-15.4-3.5-23c0-0.2,0-0.4-0.3-0.6c-0.5,0.5-0.8,1.1-1.2,1.7c-2.7,5-4.1,10.4-5.6,15.8
		c-2.6,9.7-4.5,19.6-6.8,29.4c-2.6,11.1-4.7,22.3-6.7,33.5c-1.2,6.8-2.3,13.7-3.4,20.5c-0.2,1.4-0.8,2.5-1.8,3.4
		c-2,1.9-4.3,3.1-7,3.5c-1.7,0.2-3.3-0.7-4.2-2.3c-1-1.9-1.2-4-1.3-6.1c-0.3-6-1-12-1.7-18c-0.7-6.3-1.5-12.6-2.2-18.8
		c-0.7-6.1-1.5-12.3-2.3-18.4c-0.7-6-1.5-12-2.4-18c-1.4-9.3-3.2-18.4-5.3-27.6c-0.7-3.1-1.5-6.2-2.2-9.4c-0.5-2.5,0.3-4.5,2-6.2
		c2.1-1.9,4.7-3,7.6-3.1c1.7,0,2.3,0.4,2.9,2c0.9,2.2,1.3,4.5,1.7,6.8c1.2,6.9,2,13.9,2.9,20.9c0.6,5.6,1.4,11.1,1.9,16.7
		c0.8,9.4,2.4,18.8,3.4,28.2C307,162.2,307.9,169.1,308.7,175.9z"/>
	<path class="st0" d="M46.9,71.3c-3.5-2.9-7-5.8-10.6-8.7c-0.7-0.6-0.7-1-0.1-1.6c6.2-7,13.3-12.9,21.2-17.8
		c0.7-0.4,1.1-0.3,1.5,0.3c2.3,3.2,4.7,6.4,7,9.7c0.2,0.3,0.4,0.5,0.7,0.7c-0.9-1.7-1.8-3.4-2.7-5.1c-1.1-2.1-2.2-4.2-3.3-6.2
		c-0.4-0.7-0.3-1.1,0.4-1.6c3.8-2.1,7.7-3.9,11.8-5.6c0.7-0.3,1.1-0.1,1.5,0.4c1.6,2.1,3,4.3,3.8,7c1,3.6,3.1,6.7,5,9.8
		c0.7,1.1,1.4,2.2,2.2,3.3c0.3-0.2,0.2-0.4,0.1-0.5c-2.2-6.4-4.5-12.7-7.6-18.8c-0.3-0.6-0.6-1.2-1-1.8c-0.4-0.6-0.3-0.9,0.4-1.1
		c3.3-1.2,6.6-2.2,9.9-3.2c0.9-0.3,1.1,0.3,1.3,0.9c1.2,3.7,2.4,7.5,3.4,11.3c0.5,2.2,1.5,4.2,2.8,6.1c3.6,5.1,7.8,9.8,12.2,14.2
		c-0.8-1.8-1.6-3.6-2.5-5.3c-4.4-9-7.8-18.4-12.3-27.3c-0.4-0.8-0.2-1.2,0.7-1.3c2.9-0.7,5.8-1.4,8.7-1.8c1.4-0.2,2.8,0.2,3.9,1
		c3.1,2.1,5.7,4.7,6.8,8.4c0.1,0.3,0.3,0.7,0.4,1c0.3-0.2,0.2-0.4,0.1-0.5c-1-3.1-0.4-6.2,0.1-9.2c0.1-0.6,0.2-1.2,0.9-1.4
		c0.7-0.2,1.1,0.2,1.5,0.6c1.8,1.7,2.5,3.9,2.8,6.4c1.3,9.3,3.1,18.5,4.7,27.7c1,5.4,1.7,10.8,1.7,16.4c0,4.4,0.3,8.7,0.5,13.1
		c0,0.4,0,0.7-0.2,1.1c-0.1-0.8-0.3-1.7-0.4-2.5c-1.3-8-2.5-16-4.9-23.8c-1-3.1-2.8-5.7-4.4-8.5c-1.3-2.4-2.7-4.7-4.3-7
		c-0.4,0.3-0.2,0.7-0.1,0.9c1.8,8.4,3.6,16.7,5.4,25.1c1.3,6.2,2.8,12.3,5.3,18.1c1,2.4,2.5,4.6,3.8,6.8c2.1,3.7,4.1,7.3,5.1,11.5
		c0.4,1.5,0.6,3,0.4,4.6c-0.1,0.7-0.4,1.1-1.2,1.1c-0.9,0-1.8,0.1-2.7,0.2c-0.7,0.1-0.8-0.4-1-0.9c-0.7-2.8-1.5-5.6-2.1-8.4
		c-1.8-8.1-5.3-15.4-9.2-22.7c-2.8-5.4-5.6-10.8-8.2-16.3c-1-2.2-2.9-3.9-4.4-5.8c-2.8-3.4-5.6-6.7-8.5-10c-2.3-2.7-3.7-5.7-4.2-9.2
		c-0.2-1.7-0.6-3.3-1.3-4.9c-0.2-0.5-0.4-1.1-1.1-1.1c-0.6,0-0.7,0.7-0.8,1.1c-0.8,3.1-0.9,6.1,0.6,9c1.9,3.9,4.2,7.6,5.9,11.6
		c0.7,1.5,1.2,3,1.7,4.6c1.3,3.4,3.2,6.4,5.2,9.4c3.2,4.8,6.4,9.6,9.7,14.4c4.3,6.3,7.1,13.3,10,20.2c1.2,3,2.2,6.1,4,8.8
		c0.4,0.5,0.2,0.8-0.4,0.9c0,0-0.1,0-0.1,0c-3,0.8-2.3,1.4-3.8-1.6c-2.4-4.7-4.7-9.4-6.6-14.3c-1.7-4.2-4.2-8-6.7-11.8
		c-5.7-8.8-12.4-16.9-18.7-25.3c-4.7-6.3-9.4-12.6-14-19.1c-0.2-0.3-0.3-0.7-0.9-0.8c0.3,0.7,0.5,1.3,0.8,1.9
		c2.1,5.3,5.4,9.8,8.9,14.2C86.1,68,90.7,73.8,94.7,80c3,4.7,6.2,9.4,8.9,14.2c1.8,3.1,3,6.6,4.8,9.7c2.2,3.7,4.6,7.2,6.5,11
		c0.8,1.6,1.4,3.3,2.2,5c0.3,0.7,0.2,1.1-0.5,1.5c-1.9,1-3.6,2.2-5.1,3.7c-0.6,0.7-1,0.6-1.4-0.2c-2.7-4.6-5.8-8.8-9.1-12.9
		c-5.4-6.5-11.8-11.7-19.1-16c-5.8-3.4-11.5-6.9-17.5-10c-4.5-2.3-9.2-4.4-14.2-5.6c-3.8-0.9-7.5-2.3-11.2-3.4
		c1.9,1,3.8,2.1,5.7,3.2c6.2,3.7,11.8,8.1,17.7,12.3c8.7,6.2,17.4,12.5,26.1,18.7c0.4,0.3,0.7,0.6,1.2,0.9c-0.4,0.3-0.6,0.1-0.8,0
		c-7.1-2.7-14.2-5.5-20.6-9.6c-3.7-2.3-6.9-5.2-10.3-7.9c-4.2-3.2-8.5-6.1-13.4-8.2c-0.7-0.3-1.3-0.6-2.1-0.7
		c-0.1,0.6,0.3,0.8,0.6,1.1c2.2,2.1,4.7,4,7.1,5.9c2.9,2.3,5.9,4.5,8.8,6.7c0.2,0.2,0.5,0.3,0.7,0.5c0.2,0.2,0.5,0.4,0.4,0.7
		c-0.1,0.4-0.5,0.4-0.8,0.4c-1.3-0.1-2.6-0.2-3.9-0.4c-5.9-1-11.7-2.6-17.4-4.6c-3.7-1.3-7.5-2.5-11.5-2.8c-0.7-0.1-1.8-0.3-2.1,0.4
		c-0.2,0.7,0.8,1,1.4,1.3c3.8,2,7.9,3.1,11.9,4.4c10.8,3.4,21.6,6.6,32,11.1c4.8,2,9.3,4.8,13.9,7c3.9,1.9,7.7,3.8,11.6,5.8
		c0.3,0.2,0.6,0.3,0.8,0.7c-0.7-0.2-1.4-0.4-2-0.6c-13.2-4-26.6-7.7-40-11c-1-0.3-2-0.6-2.9-1.2c-1.2-0.8-2.6-1.4-4-1.8
		c-5.6-1.6-10.7-4.4-15.5-7.7c-1.7-1.2-3.5-2.3-5.3-3.1c-3.2-1.5-5.5-4-7.8-6.7c-0.4-0.5-0.3-0.9-0.1-1.4c0.8-2,2.3-3.4,4.2-4.4
		c0.9-0.5,1.7-0.9,2.6-1.4c1.1-0.7,1.1-1.3,0.2-2.3c-0.9-1-1.2-3.9-0.5-5.1c2.1-3.7,4.5-7.3,7.1-10.8c0.6-0.8,1.1-0.9,2-0.5
		c4.3,1.9,8.6,3.8,12.9,5.7C46.9,71.4,46.9,71.4,46.9,71.3z M111.6,116c-0.4-1-1.2-1.6-1.8-2.4c-6.4-7.4-13-14.7-20-21.5
		c-4.5-4.4-9.1-8.8-11.9-14.7c-0.2-0.3-0.4-0.6-0.6-0.9c-2.2-3-4.8-5.5-7.5-7.9c-4.6-4.1-9.2-8-14.5-11.2c-1.9-1.2-3.9-2.3-6-3.2
		c0.1,0.2,0.2,0.4,0.3,0.5c2.6,2.5,5.3,4.9,7.9,7.4c3.7,3.5,7.5,6.9,10.9,10.6c0.3,0.4,1,0.7,0.6,1.3c-0.4,0.6-1,0.2-1.5,0
		c-0.2,0-0.4-0.1-0.6-0.2c-3.3-1.3-6.2-3.2-8.9-5.6c-3.9-3.5-7.9-6.8-12.1-9.9c-0.5-0.4-1.1-0.7-1.9-1.2c0.1,0.4,0.1,0.5,0.2,0.6
		c0.3,0.5,0.5,1,0.8,1.4c2.8,4.3,6.4,7.8,10.2,11.2c5.8,5.1,11.7,10,17.9,14.6c11,8,21.8,16.3,32,25.5
		C107.2,112.3,109.4,114.1,111.6,116z"/>
	<path class="st0" d="M157.6,215.4c-1.5,10.2-0.9,20,2.2,29.7c1.1,3.5,2,7,3.8,10.3c1,1.8,2.1,3.5,4.1,4.6c-1.5,0.5-3,1.1-4.5,1.6
		c-0.4,0.1-0.6-0.2-0.7-0.5c-2.1-5.7-4.9-11.1-6.9-16.9c-1.1-3.2-1.6-6.4-1.8-9.8c-0.3-5.3-0.2-10.5,0.2-15.7
		c0.3-5.4-0.7-10.5-1.7-15.7c0-0.2-0.1-0.4-0.3-0.6c0.1,1.4,0.2,2.8,0.3,4.1c0.3,3.1,0.5,6.2,0.6,9.3c0.1,2.7-0.5,5.4-0.7,8.1
		c-0.3,3.8-0.5,7.6-0.7,11.5c-0.1,2.3-0.2,4.5,0.5,6.7c1,3.1,2.2,6.1,3.5,9.1c1.1,2.4,2.3,4.8,3.7,7.1c0.7,1.1,1.5,2.2,2.6,3.1
		c0.5,0.4,0.4,0.6-0.1,0.8c-2.5,0.8-5,1.6-7.6,2.4c-0.9,0.3-1-0.3-1.1-0.9c-0.9-3.6-1.7-7.1-2.5-10.7c-1.4-6.2-2.6-12.4-3.7-18.6
		c-0.8-4.7-0.5-9.3,0.2-14c0.7-4.4,1.4-8.9,1.2-13.4c-0.1-3.1-0.8-6.1-1.1-9.1c-0.5-4.6-1.1-9.1-1.7-13.7c-0.2-1.6-0.6-3.3-0.9-5.2
		c-0.2,1,0,1.7,0,2.4c0.2,3.2,0.5,6.3,0.7,9.5c0.2,4.7,0.6,9.5,0.5,14.2c0,2.7-0.8,5.2-1.4,7.8c-1.4,6.1-2.8,12.2-3.5,18.4
		c-0.5,3.8-0.2,7.5,0.2,11.2c0.5,4.7,1.4,9.4,2.4,14c0.4,1.9,1.3,3.4,2.4,4.9c0.9,1.2,1.8,2.5,2.7,3.7c0.4,0.5,0.3,0.7-0.3,1
		c-2,0.7-4,0.5-6,0.3c-1.1-0.1-2.2-0.3-3.3-0.4c-0.5-0.1-0.9-0.3-1.1-0.8c-1.9-5-4.1-10-4.9-15.4c-0.4-2.7,0.1-5.5,0.4-8.2
		c0.6-6,1.7-11.9,2.8-17.9c0.6-3.6,0.6-7.3,0.2-11c-0.3-2.3-0.4-4.7-0.6-7c-0.2,2.3-0.4,4.6-0.5,6.9c-0.2,6.4-1.5,12.7-2.7,19
		c-1.3,6.3-3.2,12.5-4.6,18.8c-0.4,1.9-0.8,3.8-1,5.8c-0.2,2.3,0.4,4.5,0.7,6.7c0,0.3,0.1,0.6,0.2,1c0.1,0.5-0.1,0.7-0.6,0.6
		c-1.6-0.3-3.2-0.6-4.8-0.8c-0.9-0.2-0.8-0.8-0.7-1.4c0.6-3.4,1.2-6.8,1.8-10.2c1.7-10.5,4-20.8,6-31.2c0.7-3.8,1.1-7.6,0.9-11.5
		c-0.3-4.6-0.1-9.3,0.6-13.9c0.1-0.8,0.3-1.6,0.6-2.4c2-5.5,3.5-11.2,5.7-16.6c0.5-1.2,0.9-2.4,1.2-3.7c0.1-0.6,0.4-1,1-1.1
		c5.6-1.5,10.9-3.6,15.7-7c0.8-0.5,1,0,1.3,0.5c1.7,2.9,3.2,6,4.7,9c1.4,2.7,3,5.4,5,7.7c2.3,2.8,4,6.1,5.8,9.3
		c3.6,6.1,7,12.4,11,18.3c0.8,1.2,1.7,2.4,2.8,3.4c1.2,1.1,1.8,2.6,2.5,4c1.3,2.9,2.2,5.8,2.8,8.9c0.1,0.6,0.5,1.4-0.1,1.7
		c-0.6,0.3-1-0.6-1.3-1c-2.7-3.4-5.5-6.7-8.2-10.1c-6.3-8-12.6-16.1-18.6-24.3c-2.6-3.5-4.3-7.4-6.6-11.1c-2.2-3.6-4.3-7.2-6.6-10.7
		c0.6,1.8,1.3,3.7,1.9,5.5c6.8,18.9,13.9,37.7,20.9,56.6c1,2.8,2,5.7,2.5,8.7c0.4,2.5,1.4,4.9,2.5,7.3c-2.9-16-7.8-31.4-13.2-46.9
		c1.1,0.3,1.4,1,1.8,1.5c3.1,4.1,5.7,8.5,8.5,12.9c2.7,4.3,4.5,9.1,6,13.9c1.1,3.2,2.4,6.3,4,9.2c0.2,0.4,0.5,0.6,0.8,0.9
		c1.2,0.9,2.3,1.8,3.5,2.7c0.5,0.4,0.7,0.7,0.5,1.4c-0.6,1.8-1.1,3.5-1.6,5.3c-0.1,0.5-0.4,0.8-0.8,1.1c-5.2,3.2-10.3,6.5-16.1,8.5
		c-1.2,0.4-1.1,0.4-1.2-0.8c-0.2-2.6-1.2-5-2.1-7.4c-2-5.1-4.2-10.1-6.5-15c-1.8-3.9-2.6-7.9-2.7-12.2
		C158.1,220.8,157.8,218.2,157.6,215.4z"/>
	<path class="st0" d="M433.6,154.3c0-11.8,2.5-21.9,6.8-31.5c3.8-8.4,8.7-16.1,15.2-22.7c5.6-5.7,11.9-10.5,19.7-12.9
		c6.7-2.1,13.4-2.4,20,0.2c4,1.5,7.2,3.9,8.5,8.2c1.5,4.9,0.3,9.3-2.5,13.3c-3.1,4.4-7.3,7.5-11.8,10.3c-9.9,6.1-20.8,10-32,12.7
		c-2.4,0.6-4.9,1.1-7.3,1.5c-0.7,0.1-1.1,0.5-1.3,1.2c-1.5,6.2-2.2,12.4-1.9,18.7c0.3,4.9,1.3,9.6,4.3,13.7c3.1,4.3,7.3,6.5,12.5,7
		c6.7,0.7,13.2-0.3,19.2-3.5c4.4-2.4,7.8-5.9,11-9.7c6-7.5,10.9-15.6,14.8-24.4c0.3-0.8,0.7-1.6,1.2-2.3c0.6-1,1.4-1.6,2.6-1.4
		c1.2,0.2,1.8,1.1,2,2.2c0.3,1.7,0.2,3.3-0.3,4.9c-3.6,12.1-8.8,23.2-17.5,32.6c-3.4,3.7-6.9,7.1-11.2,9.7
		c-5.2,3.1-10.7,4.7-16.7,5.2c-5.7,0.5-11.3-0.1-16.6-2.2c-9.8-4-15.7-11.3-17.7-21.7C433.8,160,433.5,156.6,433.6,154.3z
		 M492.9,102.5c0-1.9-0.7-3-1.8-3.8c-1.2-0.9-2.7-1.5-4.2-1.8c-5.4-1.2-10.5-0.1-15.2,2.6c-9.1,5.3-15.3,13.2-19.4,22.8
		c-0.1,0.3-0.4,0.7-0.1,1c0.3,0.3,0.7,0.1,1,0c11.5-2.1,22-6.6,31.7-12.9c2.5-1.7,5-3.5,6.9-5.9C492.4,103.8,492.9,103,492.9,102.5z
		"/>
	<path class="st0" d="M71.4,240.3c1.1-1.2,2.1-2.4,3.2-3.6c4.9-5.6,9.8-11.1,14.6-16.8c2-2.4,3.6-5.2,5.4-7.8
		c2.6-3.8,5.1-7.6,7.7-11.4c0.2-0.3,0.3-0.6,0.6-0.7c0.3,0.3,0.1,0.5,0,0.8c-1.5,4.9-3.1,9.9-5.1,14.7c-1.1,2.8-3.1,5-4.9,7.2
		c-5.5,6.7-10.8,13.5-15.9,20.5c-0.2,0.2-0.4,0.5-0.5,1c0.5-0.5,1-0.8,1.4-1.3c5.5-5.4,10.8-10.8,16.1-16.5c2.5-2.7,4.3-5.9,6.3-8.9
		c0.4-0.6,0.8-1.1,1.2-1.7c0.3,0.4,0.1,0.7,0,0.9c-4.2,8.9-8.4,17.7-13,26.4c-0.3,0.6-0.7,1.1-1.2,1.5c-2,1.9-3.9,3.8-6,5.5
		c0.5-0.7,1-1.4,1.5-2.1c0,0-0.1-0.1-0.1-0.1c-0.6,0.6-1.3,1.3-1.9,1.9c-0.5,0.5-0.9,0.6-1.5,0.2c-2.3-1.1-4.6-2.2-6.8-3.4
		c-1.7-0.9-3.5-1.8-5.1-2.8c-0.6-0.4-1-0.8-1.2-1.5c-0.5-1.6-1.1-3.2-1.7-4.8c-0.2-0.6-0.1-0.9,0.3-1.4c4.8-6.2,9.6-12.3,14.4-18.5
		c0.3-0.4,0.6-0.8,0.7-1.3c-0.4,0.4-0.8,0.8-1.1,1.2c-5.2,5.8-10.3,11.5-15.5,17.3c-0.3,0.3-0.5,0.6-1,0.6c-1.9,0.3-3.8,0.7-5.8,1
		c-0.9,0.2-1.4-0.4-2-0.9c-0.5-0.4,0-0.6,0.2-0.9c1.4-1.5,2.8-2.9,4.2-4.4c7.8-8.3,15.5-16.7,22.2-25.9c1.1-1.5,2.2-3.1,3.3-4.6
		c-0.1-0.1-0.1-0.1-0.2-0.2c-0.6,0.6-1.1,1.2-1.7,1.7c-3.2,3.3-6.4,6.5-9.6,9.8c-6.8,7-13.7,13.9-20.5,20.9
		c-1.2,1.2-1.2,1.2-2.5,0.2c-1.3-1-2.6-2.1-3.9-3.1c-0.5-0.4-0.6-0.7,0-1.2c5.8-5.1,11.5-10.1,17.2-15.2
		c6.9-6.2,13.6-12.6,19.8-19.4c2.7-2.9,5.5-5.7,8.2-8.5c4.6-4.8,9.1-9.5,13.7-14.3c1.6-1.7,3.6-3,5.5-4.4c0.5-0.4,0.8-0.2,1.2,0.2
		c0.9,1,1.8,2,2.6,3c1,1.3,2.3,2.1,3.8,2.8c1.1,0.4,1.1,0.5,0.4,1.4c-2.8,3.2-5.4,6.4-7.9,9.8c-1.9,2.6-3.2,5.6-4.8,8.4
		c-2.9,5-5.9,9.8-9.7,14.2c-4,4.7-7.4,10-11.3,14.8c-3,3.6-6.1,7.1-8.8,10.9C73.8,234.1,72.4,237.1,71.4,240.3z"/>
	<path class="st0" d="M524.7,165.8c0-9.2-0.1-18.4,0-27.6c0.1-4.8,0-9.7,0.2-14.5c0.2-4.7,0-9.5,0.2-14.2c0.2-4.2,0.1-8.5,0.2-12.7
		c0.2-7.6,0.2-15.2,0.5-22.8c0.1-4.1-0.1-8.2,0.8-12.3c0.5-2.6,1.1-5.1,2.4-7.4c1.4-2.5,3.5-3.9,6.3-4.2c2.3-0.2,3.7,0.8,4.2,3.1
		c0.5,2.4,0.6,4.9,0.4,7.3c-0.2,2.5-0.1,4.9-0.3,7.4c-0.5,5.7-0.8,11.4-1.1,17.1c-0.2,3.1-0.3,6.3-0.5,9.4c-0.3,6-0.6,12-0.8,18
		c-0.1,3.5-0.2,7-0.3,10.5c-0.2,6-0.3,12.1-0.5,18.1c-0.2,5.4,0,10.8-0.2,16.2c-0.1,2.9-0.1,5.9-0.1,8.8c-0.2,6,1,11.8,3.4,17.3
		c0.8,1.8,1.5,3.6,2.1,5.5c0.8,2.1,0.3,3.8-1.5,5.1c-2.5,1.8-5.4,2.3-8.5,2.1c-1.1-0.1-1.9-0.8-2.6-1.7c-2.2-2.9-3.1-6.2-3.7-9.7
		C524.1,178.2,524.4,172,524.7,165.8z"/>
	<path class="st0" d="M70.7,181.3c-2.3,1.8-4.3,3.5-6.3,5.2c-3,2.4-6.1,4.8-9.1,7.2c-3.8,3-8.3,4.9-12.4,7.4
		c-4.9,3-10.2,5.1-15.8,6.5c-0.8,0.2-1.2,0.1-1.6-0.6c-0.4-0.8-0.4-1.3,0.6-1.7c4.1-1.7,8.4-3.1,12.4-4.9c2.3-1.1,4.5-2.3,6.3-4.2
		c2.4-2.5,5-4.9,7.5-7.4c0.2-0.2,0.5-0.5,0.6-0.9c-2.6,1.1-5.2,2.2-7.8,3.2c-6,2.4-12,4.8-18.1,6.8c-0.9,0.3-1.3,0.2-1.6-0.8
		c-0.7-2.8-2-5.4-2.9-8.1c-0.6-1.9-0.4-2.5,1.4-3.2c2.2-0.8,4.4-1.6,6.7-2.3c4.5-1.6,8.1-4.5,11.8-7.2c0.5-0.4,1.1-0.8,1.9-1.5
		c-4.4-0.1-8.5-0.2-12.6,0.5c0-0.1,0-0.3,0-0.4c1.7-0.4,3.4-0.7,5.1-1.1c11.7-2.5,23.5-4.8,35-7.9c11-2.9,22.1-5.1,33.3-6.8
		c0.8-0.1,1.3,0.1,1.7,0.8c0.5,0.8,1.1,1.6,1.7,2.4c0.8,1.1,0.8,1.1-0.4,1.5c-5,1.7-10,3.5-14.8,5.8c-2.5,1.2-4.8,2.7-6.8,4.7
		c-7.2,7.2-14.9,14.1-22.3,21.1c-7,6.5-15.2,10.8-24.1,14.1c-3,1.1-6.1,2-9.2,3c-0.4,0.1-0.9,0.3-1.3-0.2c-0.8-0.8-0.8-1,0.3-1.5
		c7.4-3.6,14.9-7.1,22.1-11.1c1.9-1,3.6-2.3,5.1-3.8c4.7-4.5,9-9.4,13.4-14.1C70.4,181.8,70.5,181.6,70.7,181.3z"/>
	<path class="st0" d="M579.4,125.9c0,4.3,0.1,8.5,0,12.8c-0.1,2.7-0.2,5.5-0.1,8.2c0.1,5.8,0.2,11.6,0.4,17.5
		c0.3,9.2,1.7,18.2,3.1,27.2c0.4,2.7,0.9,5.4,0.9,8.2c0.1,3.8-4.4,6.7-7.9,5.3c-1-0.4-1.7-1.2-2.2-2.2c-1.3-2.4-1.8-5-2.1-7.7
		c-0.9-6.3-1.3-12.6-1.8-18.9c-0.4-6.1-0.8-12.1-1.1-18.2c-0.2-4.7-0.4-9.3-0.6-14c-0.2-5.3-0.4-10.6-0.7-15.9
		c-0.2-6.2-0.5-12.5-0.7-18.7c0-2.2-0.4-4.3,0-6.5c0.5-2.9,2.3-4.2,5.3-3.9c4.2,0.5,6.1,2.5,6.8,7.1c0.7,4.6,0.7,9.3,0.7,14
		C579.5,122.1,579.5,124,579.4,125.9C579.4,125.9,579.4,125.9,579.4,125.9z"/>
	<path class="st0" d="M13.4,151.1c1.7-0.1,3.3,0.1,4.8,0.2c6.4,0.2,12.7-0.5,19-1.3c3.5-0.5,7-0.6,10.5-0.8
		c6.9-0.4,13.8-0.7,20.7-0.9c3.5-0.1,7.1-0.3,10.6-0.4c6-0.2,11.9-0.4,17.9-0.8c-2.5-0.2-5-0.5-7.6-0.7c-5.1-0.4-10.2-0.9-15.3-1.3
		c-5.2-0.4-10.4-0.6-15.6-0.1c-7.3,0.6-14.6,1.3-21.9,2.1c-7.3,0.8-14.6,1.7-21.8,2.9c-1.2,0.2-1.3,0.1-0.9-1.1
		c0.7-2.3,2.2-3.9,3.8-5.6c0.9-0.9,1.8-1.7,1.2-3.2c-0.2-0.5,0.3-0.5,0.6-0.5c2.1,0,4.3,0,6.4,0.1c3.6,0.2,7.3,0.5,10.9,0.8
		c5,0.4,9.9,0.7,14.9,1c3.8,0.2,7.5,0,11.3-0.3c3.7-0.3,7.5-0.8,11.2-0.9c4.1-0.1,8.2,0.3,12.3,0.6c3.1,0.3,6.3,0.5,9.4,0.8
		c1.9,0.2,3.8,0.7,5.7,1c0.6,0.1,0.9,0.3,0.7,1c-0.8,2.2-0.7,4.4-0.1,6.6c0.2,0.8,0.1,1.2-0.8,1.3c-1.6,0.1-3.1,0.2-4.7,0.3
		c-4.3,0.2-8.6,0.4-12.9,0.5c-8.6,0.2-17.2-0.5-25.8-0.3c-6.2,0.2-12.3,1-18.4,2.1c-5,0.9-10.1,1.7-15.1,2.6
		c-0.5,0.1-0.9,0.1-1.4-0.1c-2.6-1.3-5.2-2.6-7.8-3.9C14.6,152.4,13.9,152,13.4,151.1z"/>
	<path class="st0" d="M103.6,158.4c-7.6-1-15.2,1.1-23,2.5c-8.9,1.7-17.7,3.7-26.6,5.2c-8.2,1.4-16.2,3.6-24.4,5.2
		c-5.7,1.2-11.5,2.3-17.3,2.8c-0.9,0.1-1.2-0.2-1.3-1c-0.2-2.7-0.4-5.5-0.7-8.2c-0.1-0.9,0.3-1.4,1.2-1.5c9.6-1.7,19.2-3.5,28.8-5.2
		c6.9-1.2,13.9-2.4,20.9-3.2c2.8-0.3,5.6-0.5,8.4-0.7c7.9-0.4,15.9-0.8,23.8-1.1c2.6-0.1,5.1-0.2,7.7-0.4c1.1-0.1,1.8,0.1,2.2,1.3
		c0.4,1.1,1,2,1.5,3C105.6,158.5,105.6,158.5,103.6,158.4z"/>
	<path class="st0" d="M110.3,165c-0.1,0.4-0.5,0.5-0.8,0.7c-3.9,2.4-7.6,5-11.1,8c-4.2,3.7-8,7.8-12,11.8
		c-5.4,5.3-10.6,10.6-16,15.9c-4,3.9-7.9,7.8-11.9,11.7c-4,3.8-8.4,7.3-12.4,11.2c-0.7,0.7-1.4,1.3-2.1,1.9c-0.4,0.4-0.8,0.4-1.2,0
		c-1.3-1.2-2.6-2.4-3.9-3.6c-0.5-0.5-0.5-0.9,0.1-1.3c6.3-5.8,12.4-12,19.4-17c6-4.2,11.3-9.1,16.5-14.1c2.9-2.8,5.6-5.7,8.5-8.5
		c2.3-2.1,4.7-4,7.3-5.6c6-3.9,12-7.8,17.9-11.7C109.5,164,110.3,164.3,110.3,165z"/>
	<path class="st0" d="M121.5,216.1c-0.1,2.3-1.4,4.9-2.8,7.6c-3.8,7.2-7.9,14.1-11.4,21.4c-1.4,2.9-2.7,5.8-3.7,8.9
		c-0.3,0.8-0.6,1.2-1.6,1c-2.1-0.5-4.2,0-6.4-0.1c-0.4,0-0.9,0.2-1.1-0.2c-0.2-0.3,0.2-0.7,0.4-1c4.8-7.9,9.6-15.7,14.1-23.7
		c2.7-4.7,4.7-9.7,6.2-15c0.5-1.7,1.1-3.4,1.8-5c0.3-0.7,0.7-0.7,1.3-0.4C120.3,210.6,121.5,212.8,121.5,216.1z"/>
	<path class="st0" d="M111.5,208.6c0.3-2.7,0.6-5.2,0.9-7.6c0.8-8.2,2.7-16.1,5.2-23.9c0.4-1.4,1.1-2.6,1.8-3.8
		c0.3-0.5,0.7-0.7,1.2-0.6c1.8,0.4,3.7,0.5,5.6,0.5c1.1,0,1.2,0.1,0.7,1.1c-1.9,3.9-3.6,7.9-5.1,12c-1,2.6-1.4,5.3-2,8
		c-0.3,1.3-0.7,2.6-0.9,3.9c-0.7,3.2-2.9,5.5-4.9,7.8C113.3,206.8,112.7,207.8,111.5,208.6z"/>
	<path class="st0" d="M571.3,76.9c-5,0-8.6-2.7-11.5-6.4c-1.1-1.4-1-3.1-0.3-4.7c1-2.3,2.8-3.9,5.2-4.8c1.1-0.4,2.2-0.4,3.4,0.1
		c2.8,1.2,4.8,3.3,6.7,5.6c1.1,1.3,2.2,2.6,3.1,4.1c1.3,2.1,0.8,4.1-1.5,5.2C574.8,76.7,573.1,76.9,571.3,76.9z"/>
	<path class="st0" d="M87.2,250.7c-0.2-1,0.3-2.1,0.9-3.2c2.1-4,4.6-7.7,7.2-11.4c3.7-5.3,6.3-11.1,8.2-17.2
		c0.7-2.3,2.4-3.4,4.5-4.1c1.2-0.4,1.8,0.3,1.5,1.5c-0.4,1.6-1.2,3-2,4.4c-3.5,6.4-7,12.7-10.5,19.1c-2.4,4.3-3.7,9-5.1,13.7
		c-0.4,1.3-0.4,1.4-1.7,0.9c-0.2-0.1-0.4-0.2-0.6-0.2C87.2,253.3,87.2,253.3,87.2,250.7z"/>
	<path class="st0" d="M123.7,229.6c-0.3,2.1-0.6,4.2-0.9,6.3c-1.2,8.5-2.8,17-4.7,25.4c-0.2,1-0.6,1.4-1.6,1.1
		c-1.1-0.3-2.3-0.6-3.5-0.8c-0.9-0.2-1.1-0.6-0.8-1.4c1.9-5.6,3.8-11.2,5.5-16.9c1.4-4.6,3.7-8.9,5.5-13.3c0-0.1,0.2-0.2,0.2-0.3
		C123.6,229.5,123.6,229.6,123.7,229.6z"/>
	<path class="st0" d="M158.1,94c1-2.5,2-5.1,3.1-7.6c2.3-5.7,3.7-11.7,5.8-17.5c1.9-5.2,3.8-10.5,6.2-15.5c0.2-0.4,0.4-0.8,0.7-1.2
		c0.2,1.5,0.1,3,0.3,4.4c0.1,1,0.1,2.1,0.3,3.1c0.2,1,0,1.9-0.4,2.7c-3.3,6.2-5.8,12.7-8.1,19.3c-0.7,2.2-1.8,4.2-3.4,6
		c-1.5,1.7-2.7,3.7-3.8,5.7c-0.1,0.2-0.3,0.5-0.4,0.7C158.2,94.1,158.1,94.1,158.1,94z"/>
	<path class="st0" d="M192.4,218c2.5,3.6,4.9,7.3,7.5,10.7c1.8,2.4,3.7,4.6,6.2,6.3c1.2,0.9,1.2,1.8-0.1,2.6c-1.9,1.2-4,1.6-6.1,2.1
		c-0.7,0.2-0.8-0.4-1-0.9c-1.1-3.3-2.1-6.7-3.1-10c-1-3.4-2.1-6.8-3.1-10.1C192.5,218.5,192.5,218.3,192.4,218z"/>
	<path class="st0" d="M121.3,227.6c-0.6,1.7-1.1,3.3-1.7,5c-3,8.6-5.8,17.4-8.5,26.1c-0.1,0.5-0.1,1.2-0.6,1.3
		c-0.5,0-0.5-0.8-0.8-1.2c-0.6-1-1-2.2-2.2-2.9c-0.6-0.3-0.2-0.8-0.1-1.3c1.3-4.9,3.9-9.2,6.5-13.6c2.6-4.3,5.3-8.6,7-13.3
		c0-0.1,0.1-0.2,0.2-0.2C121.2,227.6,121.2,227.6,121.3,227.6z"/>
	<path class="st0" d="M125.5,198.4c-0.6-1.6-0.5-3.1-0.7-4.5c0-0.2,0-0.4,0-0.5c-0.5-4.4,0.5-8.4,3.2-12c1.8-2.4,3.1-5.1,4.3-7.9
		c0.2-0.4,0.4-0.7,0.8-0.7c1-0.2,1.9-0.4,2.9-0.5c0.6-0.1,0.7,0.2,0.5,0.7c-0.3,0.8-0.6,1.5-1,2.1c-4,6-6.9,12.5-8.8,19.5
		c-0.3,1.1-0.7,2.3-1,3.4C125.7,198,125.6,198.1,125.5,198.4z"/>
	<path class="st0" d="M107.5,130c-0.3-2.6-1.9-3.8-3.6-5c-3.7-2.8-7.7-5-11.7-7.3c-0.4-0.2-1.1-0.3-0.9-0.9c0.2-0.5,0.8-0.2,1.3-0.2
		c0.1,0,0.1,0,0.2,0c0.9,0,1.9,0.1,2.4-0.7c0.5-0.8-0.2-1.5-0.6-2.2c-0.4-0.6-0.9-1.1-1.1-1.9c0.7,0.1,1.1,0.6,1.5,1
		c3.2,3.3,6.4,6.6,9.3,10.1c1.2,1.5,2.6,2.9,4,4.3c0.4,0.4,0.6,0.8,0.2,1.3C108.2,128.9,108,129.4,107.5,130z"/>
	<path class="st0" d="M40.7,214.8c-0.9,1.2-1.8,1.9-2.6,2.7c-0.2,0.2-0.4,0.4-0.7,0.6c-1.7,1.5-1.7,1.5-3.2-0.2
		c-0.4-0.5-1.3-1-1.1-1.5c0.2-0.6,1.2-0.5,1.8-0.6C36.9,215.5,38.6,215.2,40.7,214.8z"/>
</g>
</svg>
