<svg version="1.1" id="Capa_1" xmlns="http://www.w3.org/2000/svg" xmlns:xlink="http://www.w3.org/1999/xlink" x="0px" y="0px"
	 viewBox="0 0 467.8 254.8" style="enable-background:new 0 0 467.8 254.8;" xml:space="preserve">
<style type="text/css">
	.st0{fill:#DFD2FA;}
</style>
<path class="st0" d="M327.1,112.6c-17.7,0.1-17.8,0.4-24.6-15.7c-2.9-6.9-5.7-13.7-8.7-20.7C288.5,63.5,283,50.3,277,36.1
	c-6.6,15.1-12.5,28.9-18.4,42.3c-1.8,4.3-3.6,8.4-5.5,12.6c-1.4,3.4-2.8,6.7-4.4,10.1c-3.2,6.9-8.7,10.7-16.5,10.9H232
	c-7.7-0.2-13.2-4-16.5-10.9c-1.6-3.3-2.9-6.7-4.4-10.1c-1.8-4.2-3.6-8.4-5.5-12.6c-5.8-13.4-11.8-27.2-18.4-42.3
	c-5.9,14.2-11.5,27.4-16.8,40.1c-2.9,7-5.8,13.8-8.7,20.7c-6.8,16.2-6.8,15.8-24.6,15.7c-7-0.1-8.1-1.7-5.4-8.1
	c10-23.5,19.9-47.1,29.1-70.9c0.9-2.3,1.9-4.6,3-6.7c5-12,14.4-20,25.3-20c11.3,0,21.1,8.8,25.9,21.7c0,0,0,0.1,0.1,0.1
	c5.6,12.6,10.4,25.6,17.1,37c6.7-11.4,11.5-24.4,17.1-37c0,0,0-0.1,0.1-0.1c4.8-12.8,14.6-21.7,25.9-21.7c10.8,0,20.3,8.1,25.3,20
	c1.1,2.1,2,4.4,3,6.7c9.2,23.8,19.1,47.4,29.1,70.9C335.2,110.9,334.1,112.6,327.1,112.6z"/>
<path class="st0" d="M9.8,195.2c8.8-16.8,12.8-35.3,19.6-52.8c2.7-7.1,5.2-14.8,14.1-14.5c8.8,0.3,11.3,7.9,13.3,15.3
	c2.8,9.8,6.1,19.4,9.5,30.1c5.5-10.2,7.3-21,10.7-31.2c2.3-6.8,4.9-13.9,13.2-14.2c8.4-0.3,11.4,6.7,13.8,13.5
	c5.5,15.8,11.1,31.7,16.2,47.6c1,3.1,6.2,8.4-0.3,9.6c-5.3,1-13.7,4.5-16.6-5c-4-12.9-7.9-25.8-12.6-41.4
	c-3.9,12.9-7.2,23.2-10.1,33.7c-2,7.5-5.8,12.9-14.2,12.7c-7.8-0.2-11.3-5.3-13.2-12.5c-2.6-10.2-6-20.3-9.4-31.7
	c-6.3,10.4-7.7,21.5-11.3,31.7c-5.1,14.6-6.7,15.8-22.8,11.3C9.8,196.7,9.8,196,9.8,195.2z"/>
<path class="st0" d="M9.8,212.8c42.2,0.1,84.4,0.4,126.6,0.1c7.9-0.1,10.8,1.4,10.7,10c0,8.5-2.7,10.2-10.7,10.1
	c-42.2-0.5-84.4-0.4-126.6-0.5C9.8,226,9.8,219.4,9.8,212.8z"/>
<path class="st0" d="M349.7,177.9c-8-4.9-16.3-6.6-24.1-9.4c-12.3-4.5-18.3-13.1-16.6-23.8c2-12.3,8.9-17.3,23.6-17.3
	c6.6,0,13.3,0.4,19.9-0.1c7.3-0.6,10.3,1.2,10.4,9.4c0.1,8.6-4,9.5-10.8,9.1c-6.6-0.4-13.2-0.1-19.9,0c-1.8,0-4.1,0.1-4.3,2.3
	c-0.3,2,1.5,3,3.4,3.5c6.7,2,13.4,4,20,6.2c11.8,4,16.5,12.1,14.7,24.7c-1.6,10.9-8.5,16.4-20.9,16.5c-8.5,0.1-16.9-0.3-25.4,0.1
	c-7.1,0.3-11.4-0.1-11.5-9.5c-0.1-10.3,5.9-8.9,12.1-8.9c8.8,0,17.7-0.1,26.5-0.2C347.3,180.3,347.9,179.4,349.7,177.9z"/>
<path class="st0" d="M198.9,174.9c-9.2-1-19.6,2.2-16.6-11c0.1-0.3-0.1-0.9,0.1-1.1c7.3-8.5,16.9-1.8,25.2-3.7
	c4.9-1.1,7,1.3,7.4,6.6c1.1,16.9-8.3,31.2-22.4,33c-16.3,2.1-33.3-10.3-36.7-26.7c-4.7-23.1,10-42.7,33.7-44.4
	c4.8-0.3,9.6,0.5,14.3-0.2c10.1-1.5,11.6,3.7,11.1,12c-0.3,5.1-1.9,7.2-7.1,7c-7-0.3-14-0.5-20.9,0.3c-7.1,0.8-12.2,4.9-13.9,12.2
	c-1.8,7.6,0.6,14,7.2,18C185.6,180.3,191.6,181.9,198.9,174.9z"/>
<path class="st0" d="M386.5,233c-19.8,0-39.7-0.5-59.5,0.2c-9.3,0.4-8.8-4.5-9.1-10.8c-0.4-6.9,1.4-9.5,9.1-9.5
	c40.4,0.4,80.8,0.5,121.2,0c8.7-0.1,8.2,4.3,8.3,10.1c0,5.9,0.4,10.4-8.3,10.1C427.6,232.5,407,233,386.5,233z"/>
<path class="st0" d="M258.6,153.5c-7.7,13.3-15.3,24.6-21,36.9c-4.1,8.8-10.4,8.7-17.9,8.5c-4.6-0.1-4.9-2.3-3.1-5.6
	c11.3-20.5,22.6-41,34.2-61.4c3.8-6.8,9.2-6.3,12.8-0.1c11.8,20.2,23.2,40.7,34.6,61.1c1.1,1.9,2.4,5.2-0.3,5.3
	c-6,0.2-13.4,4.2-17.7-3.8c-4.7-8.7-9.2-17.5-13.8-26.3C264.1,163.6,261.6,159.1,258.6,153.5z"/>
<path class="st0" d="M411.8,153.5c-7.3,13.3-14.3,24.9-20.1,37.1c-3.5,7.4-8.5,9-15.7,8.3c-4.2-0.4-6.6-0.8-3.9-5.7
	c11.3-20.5,22.4-41.1,33.9-61.6c3.4-6,8.8-6.3,12.2-0.5c12,20.5,23.4,41.4,35,62.2c1,1.9,2.2,5.1-1,5.1c-5.4,0-11.9,3.4-15.9-3.5
	c-6.6-11.4-13.2-22.8-19.9-34.2C415.2,158.9,414,157.1,411.8,153.5z"/>
<path class="st0" d="M146.8,162.2c0,9.9-0.3,19.7,0.1,29.5c0.3,6.3-2.8,7.3-8,7c-4.8-0.3-9.7,0.9-9.6-6.8c0.3-19.3,0.4-38.7,0-58
	c-0.1-7.6,4.4-6.7,9.3-6.9c4.8-0.1,8.6-0.2,8.2,6.6C146.4,143.2,146.8,152.7,146.8,162.2z"/>
<path class="st0" d="M412.8,170.6c4.3,5.6,7.6,10.8,8.3,17.1c0.4,3.9-0.6,7.3-4.3,9.3c-3.2,1.7-6.5,1.6-9.3-0.6
	c-3.2-2.4-4.6-5.9-3.5-9.7C405.5,181.1,407.7,175.7,412.8,170.6z"/>
<path class="st0" d="M258.4,170.9c4.4,5.2,7.8,10.5,8.3,17.3c0.3,3.9-0.7,7.2-4.6,9c-3.2,1.5-6.5,1.3-9.3-0.8
	c-3.1-2.4-4.7-5.7-3.5-9.6C251.1,181,253.2,175.2,258.4,170.9z"/>
<g>
	<path class="st0" d="M185.3,241.8c-2.3,0.8-6.7,1.9-11,1.9c-6,0-10.4-1.5-13.4-4.5c-3-2.8-4.7-7.1-4.6-12c0-11,8-17.2,18.8-17.2
		c4.3,0,7.5,0.8,9.2,1.6l-1.6,6c-1.8-0.8-4.1-1.4-7.7-1.4c-6.2,0-10.9,3.5-10.9,10.7c0,6.8,4.3,10.8,10.4,10.8
		c1.7,0,3.1-0.2,3.7-0.5v-6.9H173v-5.8h12.3V241.8z"/>
	<path class="st0" d="M191.2,210.8c2.4-0.4,6-0.7,9.9-0.7c4.9,0,8.3,0.7,10.7,2.6c2,1.6,3,3.9,3,6.9c0,4.2-3,7.1-5.8,8.1v0.1
		c2.3,0.9,3.6,3.1,4.4,6.2c1,3.7,2.1,8,2.7,9.3h-7.6c-0.5-0.9-1.3-3.6-2.3-7.7c-0.9-4.1-2.3-5.2-5.3-5.3h-2.3v13h-7.4V210.8z
		 M198.6,225h2.9c3.7,0,5.9-1.9,5.9-4.7c0-3-2.1-4.5-5.5-4.6c-1.8,0-2.8,0.1-3.4,0.2V225z"/>
	<path class="st0" d="M227.4,210.4v19c0,5.7,2.2,8.6,6,8.6c3.9,0,6.1-2.7,6.1-8.6v-19h7.4v18.5c0,10.2-5.1,15-13.7,15
		c-8.3,0-13.2-4.6-13.2-15.1v-18.4H227.4z"/>
	<path class="st0" d="M253.3,210.8c2.3-0.4,5.5-0.7,10.1-0.7c4.6,0,7.9,0.9,10.1,2.6c2.1,1.7,3.5,4.4,3.5,7.6c0,3.2-1.1,6-3,7.8
		c-2.5,2.4-6.3,3.5-10.7,3.5c-1,0-1.9,0-2.5-0.1v11.8h-7.4V210.8z M260.7,225.8c0.6,0.1,1.4,0.2,2.5,0.2c4,0,6.4-2,6.4-5.4
		c0-3-2.1-4.8-5.8-4.8c-1.5,0-2.5,0.1-3.1,0.3V225.8z"/>
	<path class="st0" d="M312,226.5c0,10.8-6.6,17.4-16.2,17.4c-9.8,0-15.5-7.4-15.5-16.8c0-9.9,6.3-17.3,16-17.3
		C306.4,209.8,312,217.4,312,226.5z M288.1,227c0,6.5,3,11,8,11c5,0,7.9-4.8,7.9-11.2c0-5.9-2.8-11-8-11
		C291.1,215.7,288.1,220.5,288.1,227z"/>
</g>
</svg>
