<svg version="1.1" id="Capa_1" xmlns="http://www.w3.org/2000/svg" xmlns:xlink="http://www.w3.org/1999/xlink" x="0px" y="0px"
	 viewBox="0 0 1125.2 152.8" style="enable-background:new 0 0 1125.2 152.8;" xml:space="preserve">
<style type="text/css">
	.st0{fill:#E0D3FB;}
</style>
<g>
	<path class="st0" d="M147.9,115.1V56.2h20.7v58.9H147.9z"/>
	<path class="st0" d="M182.5,115.1V56.2h20.3l0.2,7.3c1.5-2.9,3.8-5.1,6.7-6.7c3-1.6,6.4-2.4,10.3-2.4c6.6,0,11.7,2.1,15.1,6.3
		c3.5,4.2,5.2,10.4,5.2,18.6v35.8h-20.7v-32c0-6.9-2.6-10.4-7.9-10.4c-2.8,0-5,1-6.5,2.9c-1.5,1.9-2.2,4.7-2.2,8.3v31.2H182.5z"/>
	<path class="st0" d="M253.8,115.1V56.2h20.7v58.9H253.8z"/>
	<path class="st0" d="M288.4,115.1V56.2h20.1l0.2,7.2c1.6-2.9,3.9-5.1,6.8-6.7c2.9-1.6,6.3-2.3,10.1-2.3c8.1,0,13.9,3.2,17.2,9.7
		c1.7-3,4.1-5.4,7.4-7.1c3.2-1.7,6.9-2.6,11-2.6c6.8,0,11.9,2.1,15.4,6.3c3.5,4.2,5.2,10.4,5.2,18.6v35.8h-20.5v-32
		c0-6.9-2.6-10.4-7.7-10.4c-5.6,0-8.3,3.7-8.3,11.2v31.2h-20.6v-32c0-6.9-2.5-10.4-7.6-10.4c-5.5,0-8.2,3.7-8.2,11.2v31.2H288.4z"/>
	<path class="st0" d="M418.6,116.9c-5.1,0-9.6-1.3-13.5-3.9c-3.9-2.6-7-6.3-9.2-11c-2.2-4.7-3.3-10.1-3.3-16.2
		c0-6,1.2-11.4,3.5-16.1c2.4-4.7,5.6-8.5,9.6-11.2c4-2.8,8.6-4.2,13.6-4.2c3.8,0,7.2,0.8,10.3,2.5c3,1.6,5.4,3.9,7.1,6.9l0.2-7.5
		h19.5v58.9h-19.5l-0.2-7.5c-1.8,3-4.2,5.3-7.3,6.9C426.2,116.1,422.6,116.9,418.6,116.9z M425,98.5c3.4,0,6.2-1.2,8.4-3.7
		c2.2-2.4,3.3-5.5,3.3-9.2c0-3.8-1.1-6.9-3.3-9.3c-2.2-2.4-5-3.6-8.4-3.6c-3.5,0-6.4,1.2-8.6,3.6c-2.2,2.4-3.3,5.5-3.3,9.3
		c0,3.7,1.1,6.8,3.3,9.2C418.6,97.3,421.5,98.5,425,98.5z"/>
	<path class="st0" d="M470.3,115.1V27.2h20.7v87.9H470.3z"/>
	<path class="st0" d="M504.9,115.1V56.2h20.7v58.9H504.9z"/>
	<path class="st0" d="M560.7,116.9c-4.6,0-9-0.5-13.4-1.6c-4.3-1.1-7.8-2.5-10.4-4.2l2.3-14.6c3,1.9,6.2,3.4,9.7,4.3
		c3.5,1,7,1.5,10.4,1.5c5.2,0,7.8-1.3,7.8-4c0-1.4-0.6-2.4-1.7-3.1c-1.1-0.7-3.5-1.6-7.2-2.6c-7.3-2-12.5-4.4-15.6-7.4
		c-3.1-2.9-4.6-6.9-4.6-12c0-5.9,2.2-10.6,6.7-13.9c4.5-3.3,10.7-5,18.5-5c4,0,7.9,0.4,11.8,1.3c3.9,0.8,7.1,2,9.7,3.4l-2.2,14.4
		c-6.1-3-12.1-4.4-17.9-4.4c-4.4,0-6.6,1.3-6.6,3.8c0,1.2,0.6,2.2,1.8,3s3.6,1.7,7.2,2.7c7.3,2,12.5,4.5,15.7,7.6
		c3.2,3.1,4.7,7.1,4.7,12.2c0,5.9-2.4,10.5-7.1,13.8C575.6,115.2,569.1,116.9,560.7,116.9z"/>
	<path class="st0" d="M717.3,115.1V56.2h20.1l0.2,10.4c1.2-3.7,3.1-6.5,5.7-8.5c2.6-2,5.6-3,9-3c2.6,0,4.8,0.4,6.7,1.1l-1.7,19.5
		c-1-0.4-2.2-0.7-3.7-1c-1.4-0.3-2.8-0.4-4-0.4c-7.8,0-11.8,5.2-11.8,15.5v25.2H717.3z"/>
	<path class="st0" d="M789.9,116.9c-5.1,0-9.6-1.3-13.5-3.9c-3.9-2.6-7-6.3-9.2-11c-2.2-4.7-3.3-10.1-3.3-16.2
		c0-6,1.2-11.4,3.5-16.1c2.4-4.7,5.6-8.5,9.6-11.2c4-2.8,8.6-4.2,13.6-4.2c3.8,0,7.2,0.8,10.3,2.5c3,1.6,5.4,3.9,7.1,6.9l0.2-7.5
		h19.5v58.9h-19.5l-0.2-7.5c-1.8,3-4.2,5.3-7.3,6.9C797.5,116.1,794,116.9,789.9,116.9z M796.3,98.5c3.4,0,6.2-1.2,8.4-3.7
		c2.2-2.4,3.3-5.5,3.3-9.2c0-3.8-1.1-6.9-3.3-9.3c-2.2-2.4-5-3.6-8.4-3.6c-3.5,0-6.4,1.2-8.6,3.6c-2.2,2.4-3.3,5.5-3.3,9.3
		c0,3.7,1.1,6.8,3.3,9.2C790,97.3,792.8,98.5,796.3,98.5z"/>
	<path class="st0" d="M841.6,115.1V56.2h20.7v58.9H841.6z"/>
	<path class="st0" d="M876.2,115.1V56.2h20.3l0.2,7.3c1.5-2.9,3.8-5.1,6.7-6.7c3-1.6,6.4-2.4,10.3-2.4c6.6,0,11.7,2.1,15.1,6.3
		c3.5,4.2,5.2,10.4,5.2,18.6v35.8h-20.7v-32c0-6.9-2.6-10.4-7.9-10.4c-2.8,0-5,1-6.5,2.9c-1.5,1.9-2.2,4.7-2.2,8.3v31.2H876.2z"/>
	<path class="st0" d="M947.6,115.1V56.2h20.7v58.9H947.6z"/>
	<path class="st0" d="M982.2,115.1V56.2h20.3l0.2,7.3c1.5-2.9,3.8-5.1,6.7-6.7c3-1.6,6.4-2.4,10.3-2.4c6.6,0,11.7,2.1,15.1,6.3
		c3.5,4.2,5.2,10.4,5.2,18.6v35.8h-20.7v-32c0-6.9-2.6-10.4-7.9-10.4c-2.8,0-5,1-6.4,2.9c-1.5,1.9-2.2,4.7-2.2,8.3v31.2H982.2z"/>
	<path class="st0" d="M1080.6,144.1c-2.8,0-5.7-0.2-8.7-0.6s-5.7-1-8.3-1.7c-2.6-0.7-4.6-1.5-6.2-2.5l2.2-16.9
		c2.4,1.3,5.2,2.4,8.7,3.3c3.4,0.9,6.6,1.3,9.5,1.3c11.4,0,17.1-5.3,17.1-16v-4.3c-3.8,6.2-9.7,9.2-17.8,9.2
		c-5.2,0-9.7-1.3-13.7-3.9c-4-2.6-7-6.2-9.3-10.8c-2.2-4.6-3.3-9.9-3.3-15.8c0-5.9,1.2-11.2,3.5-15.9c2.4-4.7,5.6-8.4,9.6-11.1
		c4-2.7,8.6-4.1,13.7-4.1c3.7,0,7.1,0.8,10.1,2.4c3,1.6,5.4,3.9,7.1,7l0.2-7.5h19.5v54.1c0,11-2.9,19.4-8.6,25.2
		C1100.2,141.2,1091.8,144.1,1080.6,144.1z M1083.2,97.9c3.4,0,6.2-1.2,8.4-3.6c2.2-2.4,3.3-5.5,3.3-9.2c0-3.8-1.1-6.9-3.3-9.3
		c-2.2-2.4-5-3.6-8.4-3.6c-3.5,0-6.4,1.2-8.6,3.6c-2.2,2.4-3.3,5.5-3.3,9.3c0,3.7,1.1,6.8,3.3,9.2
		C1076.8,96.7,1079.7,97.9,1083.2,97.9z"/>
	<g>
		<polygon class="st0" points="659.5,27.2 659.5,46.1 668.3,46.1 668.3,115.1 690.2,115.1 690.2,46.1 718.9,46.1 718.9,27.2 		"/>
		<rect x="638.2" y="8.7" class="st0" width="21.3" height="18.4"/>
	</g>
	<g>
		<polygon class="st0" points="111.3,27.2 82.2,80.9 53,27.2 32.1,27.2 32.1,97.3 52.8,97.3 52.8,70.4 75.6,113.9 88.8,113.9 
			111.4,70.6 111.4,113.9 132.1,113.9 132.1,27.2 		"/>
		<rect x="10.6" y="97.3" class="st0" width="20.7" height="16.6"/>
	</g>
	<g>
		<path class="st0" d="M624.8,116.9c-14.4,0-21.6-7.5-21.6-22.5V74h-9.7V58h9.7V43.3H623V58h16.2V74H623v15.8c0,3.4,0.6,5.8,1.7,7.2
			c1.1,1.4,3,2.1,5.8,2.1c3.7,0,6.8-0.7,9.3-2.1l2,16.5C637.6,115.8,632,116.9,624.8,116.9z"/>
	</g>
</g>
</svg>
