<svg version="1.1" id="Capa_1" xmlns="http://www.w3.org/2000/svg" xmlns:xlink="http://www.w3.org/1999/xlink" x="0px" y="0px"
	 viewBox="0 0 595.3 301.1" style="enable-background:new 0 0 595.3 301.1;" xml:space="preserve">
<style type="text/css">
	.st0{fill:#E0D3FB;}
</style>
<g>
	<path class="st0" d="M9,94.6c15.3,0,29.5-0.4,43.6,0.3c3.3,0.2,7.4,3.5,9.3,6.5c12,18.7,23.6,37.6,36.2,58.1
		c11.1-17.9,22-34.1,31.4-51.2c5.8-10.6,12.6-15.4,24.9-14c10.5,1.2,21.2,0.2,32.8,0.2c0,55.8,0,111,0,167c-14.6,0-29.3,0-45.3,0
		c0-30.2,0-60.6,0-91c-0.9-0.3-1.7-0.6-2.6-0.8c-13.5,20.4-26.9,40.8-41.4,62.7c-14.1-21.2-27.6-41.5-42.7-64.4
		c0,32.7,0,62.7,0,93.5c-15.9,0-30.6,0-46,0C9,206.3,9,151.1,9,94.6z"/>
	<path class="st0" d="M583,262.4c-12.6,0-24.6,0.5-36.5-0.3c-3.4-0.2-7.2-3.9-9.6-6.9c-20.2-25.4-40.1-51.1-60.2-76.7
		c-1.2-1.5-2.5-3-5.5-6.5c0,31.2,0,59.9,0,89.5c-15.7,0-30.4,0-45.9,0c0-54.9,0-110.1,0-166.8c13.4,0,27-0.3,40.7,0.3
		c2.3,0.1,4.9,3.6,6.7,6c19.5,24.7,38.8,49.5,58.2,74.2c1.4,1.8,3.1,3.5,6.1,7c0-30.1,0-58.1,0-86.8c15.7,0,30.4,0,46,0
		C583,150.3,583,205.5,583,262.4z"/>
	<path class="st0" d="M337.3,95.1c15.9,0,30.7,0,45.4,0c0.5,0.6,1.3,1.1,1.3,1.6c0.1,35,1.6,70-0.3,104.9c-2.1,39-28.3,61.7-71,64
		c-11.1,0.6-22.7-0.6-33.6-3.2c-29.4-6.8-48.3-26.9-49.8-57c-1.8-36.5-0.4-73.2-0.4-110.3c14.8,0,29.8,0,46.5,0c0,4,0,7.7,0,11.5
		c0.1,29-0.4,57.9,0.4,86.9c0.6,23.7,21.2,36.7,43.3,28c14.4-5.7,18-18.1,18.2-31.8c0.3-27.5,0.1-55.1,0.1-82.7
		C337.3,103.2,337.3,99.4,337.3,95.1z"/>
	<path class="st0" d="M234,24.2c47.4,0,93.9,0,141.2,0c0,13.5,0,26.7,0,40.6c-47,0-93.8,0-141.2,0C234,51.4,234,38.5,234,24.2z"/>
</g>
</svg>
