<svg version="1.1" id="Capa_1" xmlns="http://www.w3.org/2000/svg" xmlns:xlink="http://www.w3.org/1999/xlink" x="0px" y="0px"
	 viewBox="0 0 841.2 254.8" style="enable-background:new 0 0 841.2 254.8;" xml:space="preserve">
<style type="text/css">
	.st0{fill:#DDD0F8;}
</style>
<g>
	<path class="st0" d="M39.2,83.5c10.1,4.7,16.9,0,22.7-11.1c4.5-8.6,13.8-12.7,24.1-12.8c5.1-0.1,9.1,2,9.6,7.4
		c0.5,5-2.9,7.8-7.6,8.6c-3.3,0.6-6.6,1.2-9.4,3.1c-1.6,1.1-4.3,2.2-3.1,4.8c0.9,1.9,3.3,1.8,5.1,1.3c4.9-1.4,9.8-1.6,14.8-1.2
		c15.8,1.1,24.8,12.3,22.8,27.9c-1.9,15-3.5,30.1-4.9,45.1c-1.5,14.9-8.6,22.1-23.8,22.8c-3.3,0.2-5.7,1.4-8.1,3.5
		c-10.1,9-24.2,9.2-34.4,0.5c-3.1-2.6-6.1-3.9-10.2-4.1c-11.8-0.5-20.2-8.1-21.6-19.7c-1.9-16.2-3.6-32.4-4.8-48.7
		C9.1,92.5,18.2,83.4,39.2,83.5z"/>
	<path class="st0" d="M163.2,124.4c0-7.6-0.2-15.1,0.1-22.7c0.3-8.7,4.7-11.7,13.1-9.1c2.5,0.8,4.6,0.6,6.9-0.4
		c10.4-4.4,20.1-2.5,29,3.6c3.7,2.5,6,2,9.4-0.1c22.2-13.9,47.5-0.7,48.5,25.3c0.3,8.7,0.2,17.5,0,26.2c-0.1,5.4-1.7,10-8.2,10.5
		c-5.2,0.4-8.6-3.6-8.8-10.6c-0.2-8.3,0-16.6-0.1-24.8c-0.1-9.7-4.8-15.2-12.8-15.6c-8.6-0.4-14.3,4.5-15,14.3
		c-0.6,8.7-0.4,17.5-0.3,26.2c0,5.6-1.3,10.3-7.8,10.4c-6.4,0.1-8.2-4.6-8.3-10.2c-0.1-8.5,0.1-17-0.1-25.5
		c-0.2-9.4-5.8-15.2-14.2-15.3c-8.6,0-13.7,5.4-14,15.3c-0.2,8.5,0,17-0.1,25.5c0,5.6-2.1,10.1-8.4,10.2c-6.4,0.1-8.5-4.5-8.7-9.9
		C163.1,140.1,163.2,132.3,163.2,124.4z"/>
	<path class="st0" d="M833.8,113c0,11.4,0.1,22.7,0,34.1c-0.1,11.1-5,14.2-14.5,8.9c-2.4-1.3-3.9-0.4-5.9,0.4
		c-15,5.9-30.4,2.3-40-9.4c-10.1-12.3-11.2-27.7-2.8-40.1c9.2-13.7,23.8-19.1,39.8-13.9c6.2,2,7.6,0.4,7.3-5.4c-0.3-4,0-8,0-12.1
		c0-5,2.5-8.2,7.6-8.4c5.6-0.2,8,3.2,8.5,8.4c0,0.5,0,0.9,0,1.4C833.8,88.9,833.8,101,833.8,113z M783.5,125.5
		c0.1,10,7.2,16.8,17.3,16.6c9.1-0.2,16.3-7.9,16.2-17.3c-0.2-9.7-7.1-16.5-16.7-16.6C790.5,108.2,783.4,115.4,783.5,125.5z"/>
	<path class="st0" d="M536.8,125.3c0,8,0.3,16.1-0.1,24.1c-0.5,8.8-6.9,12.1-14.1,7.1c-3.6-2.4-5.8-0.4-8.4,0.6
		c-16,6.1-35.3-1.6-42.7-17.2c-7.6-16.1-1.5-36.2,13.8-44.4c9.2-4.9,18.8-6.4,28.8-2.4c3.1,1.2,5.9,1.8,9.4-0.1
		c6.9-3.9,12.8-0.5,13.3,7.5C537.2,108.8,536.8,117,536.8,125.3C536.8,125.3,536.8,125.3,536.8,125.3z M502.8,108.1
		c-10.6-0.3-17.1,5.9-17.4,16.3c-0.2,10.4,6.2,17.3,16.3,17.7c10,0.4,17.6-6.4,18-16.1C520.1,115.5,513.4,108.4,502.8,108.1z"/>
	<path class="st0" d="M341.7,100c-0.5,1.6-1,4.4-2.2,7c-11.1,24.9-22.3,49.7-33.5,74.5c-0.5,1.1-1,2.1-1.6,3.2
		c-2.6,4.3-6.4,5.8-10.9,3.7c-4.5-2.1-5.9-6-4.1-10.7c1.5-4,2.8-8.2,5-11.8c4.5-7.3,3.3-14-0.4-21.3c-6.7-13.3-12.6-27-19-40.5
		c-2.5-5.4-3-10.4,3.1-13.3c6.3-2.9,9.7,1.2,12.2,6.3c5,10.5,10,21,15,31.4c0.7,1.4,1,3.7,3.2,3.2c1-0.3,2-1.9,2.5-3.1
		c4.9-10.8,9.7-21.6,14.6-32.4c1.9-4.3,5-7.2,10-6C339.9,91.3,341.8,94.6,341.7,100z"/>
	<path class="st0" d="M759.7,124.8c0.1,19.5-14.4,34.3-33.9,34.5c-18.3,0.2-34.9-16.2-34.8-34.3c0.1-18.5,16.2-34.1,35-34.1
		C744.9,90.9,759.6,105.7,759.7,124.8z M743.4,125.3c0.1-10.1-7.1-17.2-17.6-17.2c-10.1,0-17.4,6.8-17.7,16.4
		c-0.3,9.6,7.5,17.5,17.3,17.7C735.7,142.4,743.3,135.2,743.4,125.3z"/>
	<path class="st0" d="M617.8,125c0.1-19.2,15.1-34.1,34.4-34.1c18.8,0,34.6,16,34.2,34.6c-0.3,18.5-16,33.9-34.4,33.8
		C632.8,159.2,617.8,144.1,617.8,125z M651.9,108.1c-10.1-0.1-17.8,7.4-17.8,17.2c0.1,9.3,7.8,16.8,17.4,16.9
		c10.4,0.1,17.8-6.8,17.9-16.9C669.6,115.2,662.4,108.2,651.9,108.1z"/>
	<path class="st0" d="M435.5,130.8c-5,0-10-0.1-15,0c-2,0-4.6-0.4-5.4,2.3c-0.6,2.3,0.9,4.1,2.4,5.6c6.4,6.3,14.1,7.2,22.5,5.4
		c2.8-0.6,5.4-1.8,8.2-2.5c3.9-1,7.2,0.1,8.8,4c1.5,3.6-0.2,6.5-3.2,8.6c-7.2,5-15.5,5.8-23.9,4.9c-14.1-1.5-26.3-7-30.6-21.6
		c-4.2-14.5-3.5-28.8,9.6-39.5c10.9-8.8,23.2-8.9,35.7-4.1c11.3,4.3,14.8,14.1,16.1,24.8c1,7.8-2.6,11.6-10.3,12
		C445.5,130.9,440.5,130.7,435.5,130.8C435.5,130.8,435.5,130.8,435.5,130.8z M429.6,104.3c-5.9,0.8-11,3.3-13.8,9.3
		c-1.6,3.4-0.8,5.5,3.3,5.6c5.5,0.1,10.9,0.2,16.4,0c2.8-0.1,7,1.5,7.9-2.6c0.9-3.9-1.3-7.4-4.6-9.7
		C436.2,105,433.1,104.6,429.6,104.3z"/>
	<path class="st0" d="M580.8,132.2c0-3.8-0.2-7.6,0-11.3c0.3-5.5,0-10.2-6.9-11.8c-3.2-0.7-4.5-4-4.3-7.4c0.2-3.4,2-6.5,5.1-6.9
		c6-0.9,7-5.5,8.9-9.8c5-11.2,13.9-17.1,25.9-18.2c5.4-0.5,10.4,1,11,7.3c0.6,6-3.7,8.2-9,8.7c-2.7,0.3-5.1,1.1-7.3,2.5
		c-2.5,1.5-5.3,3.4-4.8,6.4c0.5,3.1,3.9,1.7,6.1,2.2c4.2,1,7,3,7,7.6c0.1,5.1-2.7,8.6-7.5,8.7c-7.4,0.2-8.3,4.1-8.1,10.2
		c0.3,9.4,0.1,18.9,0.1,28.4c0,5.4-2.1,9.7-7.9,9.8c-6.2,0.1-8.4-4.4-8.3-10.1C580.9,143.1,580.8,137.7,580.8,132.2z"/>
	<path class="st0" d="M350.1,125.2c0-7.3-0.2-14.7,0.1-22c0.4-10.7,5.8-14,15.1-8.9c2.6,1.4,4.4,0.6,6.6-0.3
		c4.9-1.9,9.8-3.5,15.2-3.1c4.4,0.4,7.1,2.6,7.7,7c0.6,4.4-1.6,7.2-5.5,8.8c-0.9,0.4-1.8,0.6-2.7,0.8c-15.8,3.9-19.2,8.4-19.3,24.7
		c0,5.2,0,10.4,0,15.6c-0.1,5.6-2,10.1-8.4,10.1c-6.4,0.1-8.4-4.6-8.6-10C350,140.3,350.2,132.7,350.1,125.2
		C350.2,125.2,350.1,125.2,350.1,125.2z"/>
	<path class="st0" d="M562.7,113.4c0,11.3,0,22.7,0,34c0,5.6-1.4,10.6-8,11.5c-4.9,0.6-9.1-4.4-9.1-11.3c-0.2-23.1-0.1-46.2,0-69.4
		c0-5.5,1.7-10.6,8.5-11c5.2-0.3,8.4,4,8.5,11.6C562.8,90.3,562.7,101.8,562.7,113.4z"/>
</g>
</svg>
