<svg version="1.1" id="Capa_1" xmlns="http://www.w3.org/2000/svg" xmlns:xlink="http://www.w3.org/1999/xlink" x="0px" y="0px"
	 viewBox="0 0 589.6 347.9" style="enable-background:new 0 0 589.6 347.9;" xml:space="preserve">
<style type="text/css">
	.st0{fill:#DDD0F8;}
</style>
<g>
	<path class="st0" d="M414.3,6.1c1,0.5,2.2,0.3,3.3,0.5c6,1.1,11.3,3.7,15.9,7.6c1.6,1.3,3,2.7,4.5,4.1c1.5,1.4,2.6,3.1,3.3,5.1
		c1.7,4.4,2.7,9.1,2.9,13.8c0.1,1.2,0.2,2.4,0.3,3.6C444.6,46,444,51,443.2,56c-1.6,10.5-5.1,20.5-9,30.4c-2,5-4.3,9.9-6.6,14.8
		c-3.4,6.9-6.8,13.8-10.2,20.7c-3.8,7.7-8.1,15.2-12.4,22.6c-3.6,6.1-7.4,12.2-11.4,18c-4.7,6.7-9.4,13.3-15.4,18.9
		c-4,3.7-8.3,6.9-13.6,8.5c-5.6,1.7-11.2,1.4-16.6-0.9c-3.7-1.5-6.9-3.7-9.8-6.3c-4.4-3.9-8.6-8.1-12.6-12.4
		c-7-7.4-13.4-15.3-19.6-23.4c-3-4-6.3-7.7-9.5-11.6c-3.7-4.5-7.5-9-11.2-13.5c-0.1-0.2-0.3-0.3-0.4-0.5c-0.4-0.6-0.9-0.6-1.4-0.1
		c-0.9,0.9-1.9,1.7-2.8,2.6c-2.5,2.5-5,4.9-7.6,7.3c-5,4.6-10.1,9.2-15.2,13.7c-6.2,5.4-12.5,10.7-19,15.8
		c-9.3,7.3-18.9,14.3-29.2,20.3c-4.7,2.7-9.5,5.1-14.6,7c-8.2,3-16.6,3.8-25.2,1.5c-5-1.4-9.4-3.9-13.2-7.4c-2.5-2.2-4.3-5.1-5.7-8
		c-2.6-5.3-4-11-4.3-16.9c-0.5-8,0.9-15.7,3.1-23.3c3-10.4,6.6-20.6,10.7-30.7c2.6-6.3,5.3-12.5,8.3-18.7
		c3.4-7.2,7.2-14.3,11.3-21.1c2.5-4.1,5.2-8.2,7.8-12.2c5.1-7.9,10.3-15.8,15.7-23.5c2.5-3.5,5-7,7.8-10.2c2.1-2.4,4.6-4.2,7.2-5.9
		c3.6-2.3,7.4-4,11.6-4.9c0.8-0.2,1.7,0,2.5-0.5c1.6,0,3.3,0,4.9,0c0.3,0.1,0.6,0.2,0.9,0.3c2.8,0.3,5.4,1.2,8,2.5
		c4.7,2.3,8.5,5.7,11.9,9.7c5,5.9,9.9,12,14.9,18c3.9,4.8,7.8,9.5,11.7,14.3c4.6,5.6,9.3,11.2,13.9,16.8c2.3,2.8,4.7,5.7,7,8.5
		c0.6,0.8,0.7,0.8,1.4,0.1c0.8-0.7,1.4-1.4,2.2-2.1c5.3-4.8,10.4-9.7,15.8-14.4c4.4-3.8,8.8-7.8,13.2-11.5
		c6.2-5.3,12.6-10.5,19.1-15.5c6.5-5,13.2-9.9,20.2-14.3c4.4-2.7,9-5,13.6-7.2c4.6-2.2,9.3-3.8,14.3-4.6c1.3-0.2,2.7,0,3.9-0.5
		C411,6.1,412.6,6.1,414.3,6.1z M185.7,166.8c1-0.1,1.9-0.1,2.9-0.2c4-0.5,7.9-1.6,11.6-3.1c7.7-3,14.7-7.2,21.6-11.7
		c6.2-4.1,12.2-8.5,17.9-13.2c5.5-4.4,10.8-9.1,15.9-14c5.7-5.5,11.4-11.1,16.7-16.9c1-1.1,1.1-1.1,0.1-2.4c-2.3-2.9-4.7-5.8-7-8.7
		c-4.5-5.5-9-11.1-13.4-16.6c-3.6-4.6-7.5-9-12.2-12.6c-1.9-1.4-3.8-2.7-6-3.6c-4-1.7-8-1.2-11.9,0.2c-4.8,1.8-8.8,4.8-12.5,8.3
		c-3.7,3.5-6.7,7.5-9.8,11.5c-9.2,12-16.3,25.3-22.2,39.2c-3.7,8.7-6.8,17.7-9.4,26.8c-0.4,1.3-0.4,2.5,0,3.9c1.3,3.7,3,7,6.1,9.5
		C177.6,165.8,181.5,166.8,185.7,166.8z M317.1,89.9c1.5,1.8,2.9,3.5,4.3,5.2c5.2,6.2,10.3,12.5,15.7,18.5c4,4.5,8,9,12.3,13.1
		c1.1,1.1,2.3,2,3.6,2.8c2.2,1.4,4.6,2.1,7.2,2.2c4.1,0.1,7.7-1.3,11-3.6c2-1.4,3.8-3.1,5.6-4.7c2.8-2.3,5.4-4.9,7.7-7.6
		c5.2-6,9.7-12.5,13.7-19.2c2.5-4.2,4.8-8.6,7.2-13c4.2-7.8,8.3-15.6,11.8-23.8c2.2-5.1,4.2-10.3,5.7-15.6c0.6-2.2,0.4-4.2-1-6.1
		c-0.5-0.6-1-1.3-1.5-1.9c-4.1-4.6-9.1-7.2-15.4-7.3c-4.3-0.1-8.4,0.9-12.3,2.4c-4.2,1.6-8,4.1-11.9,6.2c-11.3,6-21.4,13.7-31,22.2
		c-3.9,3.4-7.6,7-11.5,10.5c-6,5.5-11.9,11.1-17.9,16.6C319.4,87.9,318.3,88.8,317.1,89.9z"/>
	<path class="st0" d="M4.3,235.8c2.8-0.2,5.7-0.1,8.5-0.1c2.9,0,5.7,0,8.6,0c1.2,0,2,0.4,2.7,1.3c4,5.5,8,10.9,12,16.4
		c6.3,8.6,12.5,17.2,18.8,25.8c7.9,10.9,15.9,21.8,23.8,32.7c0.3,0.3,0.4,0.8,1,1c0.3-0.6,0.2-1.3,0.2-1.9c0-24.1,0-48.3,0-72.4
		c0-3.3,0-2.9,2.9-2.9c4.2,0,8.5,0,12.7,0c1.7,0,1.8,0.1,1.8,1.8c0,0.3,0,0.6,0,0.9c0,33.5,0,67.1,0,100.6c0,3,0,2.7-2.8,2.7
		c-4.3,0-8.7,0-13,0c-1,0-1.7-0.3-2.3-1.1c-9.1-12.6-18.3-25.1-27.4-37.7c-9.5-13-18.9-26-28.4-39c-0.3-0.4-0.6-0.9-1.2-1.3
		c-0.3,0.7-0.2,1.3-0.2,1.9c0,24.7,0,49.5,0,74.2c0,0.7,0,1.3-0.1,2c0,0.6-0.4,0.9-1,0.9c-0.2,0-0.4,0-0.6,0c-5.3,0-10.7,0-16,0
		C4.3,306.4,4.3,271.1,4.3,235.8z"/>
	<path class="st0" d="M586.3,341.8c-0.7,0-1.4,0.1-2.1,0.1c-24.2,0-48.4,0-72.5,0c-2.8,0-2.7,0.1-2.7-2.7c0-33.6,0-67.2,0-100.8
		c0-2.9,0-2.7,2.7-2.7c23.6,0,47.1,0,70.7,0c2.5,0,2.5,0,2.5,2.5c0,3.5,0,7,0,10.5c0,2.3,0,2.3-2.4,2.3c-11.5,0-22.9,0-34.4,0
		c-6.3,0-12.6,0-18.9,0c-0.4,0-0.8,0-1.2,0c-1,0.1-1.1,0.2-1.2,1.2c0,0.3,0,0.6,0,0.9c0,8.1,0,16.3,0,24.4c0,2,0,2,2,2
		c15.4,0,30.7,0,46.1,0c2.5,0,2.5,0,2.5,2.5c0,3.2,0,6.3,0,9.5c0,0.5,0,0.9,0,1.4c0,0.7-0.4,1.1-1.2,1.1c-0.5,0-1,0-1.5,0
		c-15.2,0-30.3,0-45.5,0c-2.5,0-2.5,0-2.5,2.4c0,9.2,0,18.3,0,27.5c0,2.4,0,2.4,2.5,2.4c18.3,0,36.5,0,54.8,0c0.8,0,1.5,0,2.3,0.1
		C586.3,331.6,586.3,336.7,586.3,341.8z"/>
	<path class="st0" d="M345.3,314c0.8-1.6,1.1-3.2,1.6-4.8c4.3-14.4,8.7-28.7,13-43.1c2.9-9.6,5.8-19.1,8.6-28.6
		c0.5-1.8,0.6-1.8,2.4-1.8c3.3,0,6.5,0,9.8,0c1.6,0,1.7,0,2.1,1.6c2.1,7.1,4.3,14.2,6.4,21.4c3.4,11.4,6.8,22.8,10.2,34.2
		c1.9,6.3,3.8,12.6,5.6,18.9c0.1,0.4,0.1,0.9,0.5,1.2c0.4-0.2,0.4-0.6,0.5-0.9c3.1-9.3,6.1-18.7,9.1-28c4.7-14.5,9.4-28.9,14.2-43.4
		c0.4-1.3,0.8-2.5,1.2-3.8c0.2-0.8,0.7-1.1,1.6-1.1c5.3,0,10.6,0,15.9,0c1.2,0,1.4,0.3,0.9,1.7c-1.9,5.7-3.9,11.5-5.8,17.2
		c-4.6,13.6-9.2,27.2-13.8,40.8c-4.3,12.8-8.6,25.5-13,38.3c-0.7,2.2-1.5,4.3-2.2,6.5c-0.5,1.5-0.6,1.6-2.2,1.6c-4.1,0-8.2,0-12.4,0
		c-1.6,0-1.7-0.1-2.1-1.6c-2.2-7.1-4.4-14.3-6.6-21.4c-2.6-8.5-5.2-16.9-7.8-25.4c-2.6-8.6-5.3-17.1-7.9-25.7
		c-0.1-0.4-0.3-0.8-0.4-1.3c-0.5,0.4-0.5,0.9-0.7,1.4c-3.5,11.3-6.9,22.6-10.4,33.9c-3.7,12.2-7.5,24.4-11.2,36.6
		c-0.2,0.8-0.5,1.5-0.7,2.3c-0.2,0.8-0.7,1.2-1.5,1.2c-4.2,0-8.5,0-12.7,0c-0.8,0-1.4-0.3-1.6-1.1c-0.2-0.6-0.4-1.3-0.6-1.9
		c-4.5-13.2-8.9-26.3-13.4-39.5c-3.6-10.5-7.1-20.9-10.7-31.4c-3.4-10-6.8-20-10.2-30.1c-0.8-2.2-0.7-2.2,1.6-2.2
		c5.1,0,10.3,0,15.4,0c1.7,0,1.7,0,2.2,1.7c5.3,16.5,10.7,32.9,16,49.4c2,6.2,4.1,12.5,6.1,18.7c0.8,2.3,1.5,4.7,2.3,7
		C344.8,312.9,344.8,313.4,345.3,314z"/>
	<path class="st0" d="M169.3,288.6c0-16.8,0-33.6,0-50.4c0-2.5,0-2.5,2.5-2.5c23.7,0,47.3,0,71,0c2.5,0,2.5,0,2.5,2.5
		c0,3.7,0,7.3,0,11c0,1.8-0.1,1.9-1.9,1.9c-12.6,0-25.1,0-37.7,0c-5.4,0-10.9,0-16.3,0c-0.4,0-0.8,0-1.2,0c-0.8,0-1.1,0.4-1.1,1.1
		c0,0.3,0,0.6,0,0.9c0,8.2,0,16.4,0,24.6c0,0.3,0,0.5,0,0.8c0.1,1,0.2,1.1,1.2,1.2c0.5,0,0.9,0,1.4,0c15.2,0,30.4,0,45.7,0
		c2.5,0,2.5-0.1,2.5,2.5c0,3.3,0,6.6,0,9.9c0,1.9-0.1,2-2,2c-5.8,0-11.5,0-17.3,0c-9.6,0-19.1,0-28.7,0c-0.4,0-0.8,0-1.2,0
		c-1.4,0-1.5,0.1-1.5,1.6c0,9.7,0,19.3,0,29c0,1.6,0.1,1.6,1.8,1.6c16.5,0,33.1,0,49.6,0c2.2,0,4.5,0,6.7,0c1.5,0,1.7,0.1,1.7,1.7
		c0,4,0,8,0,12.1c0,1.5-0.2,1.6-1.7,1.7c-0.4,0-0.7,0-1.1,0c-24,0-48,0-71.9,0c-2.9,0-2.9,0-2.9-2.8
		C169.3,322.2,169.3,305.4,169.3,288.6z"/>
</g>
</svg>
