<svg version="1.1" id="Capa_1" xmlns="http://www.w3.org/2000/svg" xmlns:xlink="http://www.w3.org/1999/xlink" x="0px" y="0px"
	 viewBox="0 0 1801.4 378" style="enable-background:new 0 0 1801.4 378;" xml:space="preserve">
<style type="text/css">
	.st0{fill:#E0D3FB;}
</style>
<g>
	<path class="st0" d="M542.9,222.9H433.2c0.4,11.1,4.7,21.8,12.3,30c7.3,7.4,17.4,11.3,27.8,11c7.8,0.3,15.4-1.9,21.8-6.3
		c2.8-2.2,5.4-4.6,7.7-7.3c7.9-8.8,20.9-10.9,31.2-5l10.3,5.8c-4.1,7.2-9,14-14.6,20.2c-4.8,5.3-10.4,10-16.5,13.8
		c-5.9,3.6-12.3,6.3-19,7.9c-7.2,1.7-14.7,2.6-22.1,2.5c-22.8,0-41.1-7.3-55-22s-20.7-34.2-20.7-58.7c0-24.2,6.7-43.8,20.1-58.7
		c13.4-14.9,31.3-22.3,53.8-22.2c22.5,0,40.3,7.2,53.4,21.5c13.1,14.3,19.5,34.1,19.2,59.2V222.9z M506.5,194
		c-4.9-18.8-16.8-28.2-35.6-28.3c-4.1,0-8.2,0.6-12.1,2c-3.7,1.3-7.2,3.2-10.3,5.7c-3.1,2.5-5.8,5.5-7.9,8.9c-2.3,3.6-4,7.6-5,11.8
		H506.5z"/>
	<path class="st0" d="M687.6,138.1h1.4c15.8,0,28.6,12.8,28.6,28.6c0,0,0,0,0,0v118.9c0,3-2.4,5.4-5.4,5.4h-24.5
		c-3,0-5.5-2.4-5.5-5.4V283c0-2-1.6-3.6-3.6-3.6c-0.8,0-1.6,0.3-2.3,0.8c-11.5,9.7-26,15.1-41.1,15.3c-20,0.5-39.2-7.9-52.4-22.9
		c-13.7-15.6-20.6-35-20.6-58.4c0-22.9,6.9-42,20.6-57.3c12.9-14.9,31.7-23.3,51.5-22.9c14.3,0,28.1,5,39.1,14
		c2.4,1.9,5.8,1.4,7.6-0.9c0.7-1,1.2-2.1,1.2-3.3l0,0C682.1,140.6,684.6,138.1,687.6,138.1C687.6,138.1,687.6,138.1,687.6,138.1z
		 M598.3,214.1c0,14.7,3.9,26.6,11.8,35.8c7.5,9.1,18.7,14.2,30.5,14c12.1,0.4,23.7-4.5,31.7-13.5c16.1-20.9,16.1-50.1,0-71
		c-7.9-9-19.4-14.1-31.4-13.7c-11.7-0.2-22.9,4.9-30.4,13.8C602.2,189.2,597.9,201.5,598.3,214.1L598.3,214.1z"/>
	<path class="st0" d="M785.6,25.9V261c0,16.6-13.5,30.1-30.1,30.1h-5.3V56.2c0-16.7,13.6-30.3,30.3-30.3L785.6,25.9z"/>
	<path class="st0" d="M854.9,172v84.5c0,19.1-15.4,34.5-34.5,34.5c0,0,0,0-0.1,0l0,0c-0.5,0-0.9-0.4-0.9-0.9v-118
		c0-0.5-0.4-0.9-0.9-0.9c0,0,0,0,0,0h-10.7c-0.5,0-0.9-0.4-0.9-0.9c0,0,0,0,0,0v-31c0-0.5,0.4-1,0.9-1c0,0,0,0,0,0h10.7
		c0.5,0,1-0.4,1-0.9c0,0,0,0,0,0V79.1c0-19.2,3.3-32.8,10-40.8c9.2-11.1,22.6-16.6,40.2-16.6h0.2c13.3,0.4,23.8,11.4,23.5,24.6v17
		l-3.6-1.9c-5.8-3.3-12.2-5.3-18.8-5.8c-6.3,0-10.5,2.3-12.7,6.7c-2.2,4.5-3.3,12.9-3.3,25.5v49.5c0,0.5,0.4,0.9,0.9,0.9
		c0,0,0,0,0,0h11.6c14.3,0,26,11.6,26,26v6.1c0,0.5-0.4,1-1,1l0,0h-36.6C855.4,171.1,855,171.5,854.9,172z"/>
	<path class="st0" d="M898.9,204.8c1-13.4,5.8-26.2,13.9-36.9c17.4-22.7,39.8-34,67.3-34c21.7-0.4,42.7,8,58.1,23.4
		c31.4,31.9,31.3,83.2-0.2,115c-15.6,15.3-36.7,23.6-58.6,23.1c-21.6,0.5-42.5-8.1-57.5-23.6C904.4,254.5,896.8,232.2,898.9,204.8z
		 M934.6,214.1c0,15.3,4.1,27.4,12.3,36.3c18.4,17.9,47.8,18,66.3,0.2c8.3-8.9,12.4-20.8,12.4-35.7c0-14.9-4.2-26.7-12.4-35.6
		c-18.3-18-47.7-18-65.9,0C938.6,188.8,934.1,201.3,934.6,214.1z"/>
	<path class="st0" d="M1073.3,204.8c0.9-13.4,5.8-26.2,13.9-36.9c17.3-22.7,39.8-34,67.3-34c21.7-0.4,42.7,8,58.1,23.4
		c31.4,31.9,31.3,83.2-0.2,115c-15.6,15.3-36.7,23.6-58.6,23.1c-21.6,0.5-42.4-8.1-57.5-23.6
		C1078.9,254.5,1071.2,232.2,1073.3,204.8z M1109.1,214.1c0,15.3,4,27.4,12.1,36.3c18.4,17.9,47.8,18,66.3,0.2
		c8.3-8.9,12.4-20.8,12.4-35.7c0-14.9-4.1-26.8-12.4-35.7c-8.6-9.1-20.8-14.1-33.3-13.5c-12.4-0.5-24.4,4.5-32.8,13.5
		C1112.9,188.8,1108.5,201.3,1109.1,214.1z"/>
	<path class="st0" d="M1395.3,25.9h7.6v233c0,17.7-14.4,32-32.1,32h-3.5V275c-13.9,13.6-29.7,20.4-47.2,20.4
		c-19.9,0.4-39-8-52.1-22.9c-13.7-15.6-20.6-35-20.6-58.4c0-22.8,6.9-41.9,20.6-57.1c12.8-15.1,31.7-23.5,51.5-23.1
		c17.9,0,33.9,7.3,48,22V53.8C1367.5,38.4,1379.9,25.9,1395.3,25.9z M1283.6,214.1c0,14.7,3.9,26.6,11.8,35.8
		c7.5,9.1,18.7,14.2,30.5,14c12.1,0.4,23.7-4.5,31.7-13.5c16.1-20.9,16.1-50.1,0-71c-7.9-9-19.4-14.1-31.4-13.7
		c-11.7-0.2-22.9,4.9-30.5,13.8C1287.5,189.2,1283.2,201.5,1283.6,214.1L1283.6,214.1z"/>
	<path class="st0" d="M1423.3,119.2c-0.1-6,2.4-11.8,6.7-16c4.6-4.7,11-7.2,17.5-6.7c4.9,0.3,9.6,2.1,13.4,5.3
		c5.4,4.2,8.5,10.8,8.4,17.6c0.1,6.1-2.3,12.1-6.7,16.3c-5.5,5.6-13.5,8-21.2,6.3c-2.5-0.4-4.9-1.4-7-2.8
		C1427.5,135,1423.2,127.4,1423.3,119.2z M1462.7,150.1c-5.5,5.6-13.5,8-21.2,6.3c-2.5-0.4-4.9-1.4-7-2.8c-2.1-1.4-4.1-3.1-5.7-5.1
		v142.6h3.8c17.3,0,31.4-14.1,31.4-31.4V148.5c-0.5,0.6-1,1.1-1.5,1.6L1462.7,150.1z"/>
	<path class="st0" d="M1511.9,138.1h13.6v14.1c12.3-12.2,26.3-18.4,41.8-18.4c17.8,0,31.7,5.6,41.6,16.8
		c8.6,9.5,12.9,25.1,12.9,46.6v63.6c0,16.7-13.6,30.3-30.3,30.3h-5.3v-85.4c0-15.1-2.1-25.5-6.3-31.2s-11.6-8.7-22.3-8.8
		c-11.7,0-20,3.9-25,11.6c-4.9,7.7-7.3,21.1-7.2,40v40.7c0,18.3-14.8,33.1-33.1,33.1c0,0,0,0,0,0h-2.4V160.1
		C1489.8,147.9,1499.7,138.1,1511.9,138.1C1511.8,138.1,1511.8,138.1,1511.9,138.1z"/>
	<path class="st0" d="M1795.3,287.4c0,7.2-0.2,13.6-0.7,19.1c-0.4,4.9-1,9.7-2,14.5c-2.3,11-7.3,21.2-14.7,29.7
		c-13.8,15.9-32.8,23.9-57,23.9c-20.4,0-37.2-5.5-50.4-16.5c-13.6-11.3-21.5-27-23.5-46.9h12.7c11.2-0.3,21.7,5.3,27.7,14.8
		c0.5,0.9,1.1,1.8,1.8,2.6c7.3,9.5,18,14.3,32.1,14.3c25.8,0,38.8-15.9,38.8-47.6v-21.2c-14.1,14.3-30.3,21.5-48.4,21.5
		c-19.6,0.6-38.4-7.8-51.2-22.6c-13.4-15.3-20.1-34.4-20.1-57.3c0-22.3,6.2-41.3,18.7-56.8c12.7-16.2,32.5-25.5,53.1-24.8
		c18.4-0.4,36,7.5,48,21.5l0,0c0-9.5,7.7-17.3,17.3-17.3l0,0h18.2L1795.3,287.4z M1761.4,214.8c0-14.9-4-26.7-12.1-35.6
		c-7.7-9-19.1-14-30.9-13.7c-12.3-0.4-24,5.2-31.5,15c-7,8.9-10.5,20.4-10.5,34.5c0,13.9,3.5,25.4,10.5,34.2
		c7.6,9.7,19.4,15.2,31.7,14.6c12.4,0.5,24.4-5,32.1-14.8C1758.2,239.3,1762,227.2,1761.4,214.8z"/>
	<path class="st0" d="M398.4,313.4c-0.4,1.2-1,2.4-1.6,3.5l-2.3,4.3l-168.3-92.9l-0.8-0.6l0,0c-1.2-1.2-2.5-2.3-3.6-3.5v40.5
		c0,16-13,29-29.1,29.1h-3.6V161.7c0.4-5.2,1.7-10.3,3.8-15.1c4.8-10.7,15.8-23.5,22.9-21.4c7.1,2.2,2.3,17.4,11.7,35
		c2,3.7,18.8,34.1,48.7,36.1c21.7,1.4,37.7-13.1,45.4-20c11.9-10,20.3-23.5,24-38.5c6.9-30.7-10.9-56-17.5-65.4
		c-12.2-16.9-29-29.8-48.5-37.2c-7.2-2.7-14.7-4.8-22.3-6.1c-12.2-2.2-24.6-3-36.9-2.3c-19.2,1-27,4.7-31.1,7.1
		c-1.8,1-3.6,2.1-5.2,3.4c-4.9,3.9-8.6,9.3-21.6,24.5c-10.2,12.4-21.6,23.8-34,34c-8.9,6.9-29.6,22.9-59.7,25.3
		c0,0-26.6,3.5-57.7-15.4c-6.6-4-9.5-8.2-6.6-16.3c15.9-44.5,44.9-74.7,92-84.9C122.5-1.3,152.9,4,167.9,16
		c-10.5,0.7-20.9,2.5-31.1,5.1c-8.5,2.1-16.8,4.9-24.8,8.6c-14.3,6.9-27,16.8-37.2,29c6.7-5.2,13.9-9.8,21.4-13.8
		c5.9-3.1,11.9-5.8,18.2-8.1c7.1-2.7,15.4-5.5,24.8-8.1c10-2.7,18.6-4.2,35.4-7.1c8.1-1.4,16.8-2.8,21.2-3.5
		c16.9-2.5,49.3-7.2,80-2.5c13.5,2,54.1,8.2,85.4,41.6c9.1,9.7,29.8,31.7,31.7,65.6c2,33.9-15.7,61.6-30.6,75.7
		c-8.7,8.2-17.9,18-33.3,22.4c-13.6,4-25.8,2.7-26.8,7.1c-0.9,3.6,6.3,8.4,12.9,12.1l70.4,38.9C398,285.6,403.5,300.4,398.4,313.4z"
		/>
</g>
</svg>
