<svg version="1.1" id="Capa_1" xmlns="http://www.w3.org/2000/svg" xmlns:xlink="http://www.w3.org/1999/xlink" x="0px" y="0px"
	 viewBox="0 0 286.3 337.1" style="enable-background:new 0 0 286.3 337.1;" xml:space="preserve">
<style type="text/css">
	.st0{fill:#E0D3FB;}
</style>
<g>
	<path class="st0" d="M200.2,236.3c2.5-4.8,5.9-9.4,7.3-14.4c3.6-12.7-1.3-23.8-10.7-31.8c-9-7.7-19.2-14.4-29.7-19.9
		c-20-10.6-40.7-19.8-60.8-30.1c-13-6.6-24.8-14.8-33.6-26.9c-23.6-32.7-13-77,23-95.1c5.3-2.7,11.1-4.4,16.7-6.4
		c1.7-0.6,3.7-0.5,5.5-0.7c0.1,0.4,0.3,0.9,0.4,1.3c-1.7,0.7-3.4,1.5-5.2,2.2c-24.1,10.4-28.8,35.8-9.2,53.4
		c7.1,6.4,15.4,11.7,23.9,16.2c21.5,11.6,43.5,22.3,65.1,33.8c16,8.6,28.5,20.9,35.2,38C237.1,178.5,233.6,218.3,200.2,236.3z"/>
	<path class="st0" d="M85.6,216.8c-1.5-4.4-2.8-8.2-4.1-12c0.3-0.5,0.6-1,0.9-1.5c31.6,21.8,65.7,28.2,102.7,17
		c0.1,0.5,0.3,0.9,0.4,1.4c-0.8,1.1-1.5,2.2-2.4,3.2c-10.7,11-24.3,16.1-39.1,17.9c-23.5,2.8-46.1-1-67.4-11.3
		c-3.8-1.9-7.3-4.6-10.8-7.1c-1.1-0.8-2.4-2.9-2-3.6c0.6-1.2,2.4-2.3,3.8-2.5c4.8-0.5,9.6-0.5,14.4-0.8
		C83,217.3,83.9,217,85.6,216.8z"/>
	<path class="st0" d="M127.1,44c3.6-3.5,6.8-7.6,10.8-10.6c20.6-15.6,43.6-19.6,68.4-13c4.2,1.1,8.5,3.3,11.7,6.2
		c2.1,2,3.5,6.4,2.8,9.1c-0.7,2.4-4.5,4.8-7.3,5.4c-3,0.7-6.7-0.1-9.6-1.3c-24-9.5-47.5-7.8-70.6,3.2c-1.7,0.8-3.4,1.4-5.2,2.1
		C127.7,44.9,127.4,44.4,127.1,44z"/>
	<path class="st0" d="M282.6,324.4c-1.3,1.4-2.5,3.8-3.9,4c-2.7,0.3-5.6-0.6-8.4-1.6c-8.6,4.4-15.3,4.2-20.7-1.5
		c-5.6-5.9-6.4-18.2-1.6-25.1c4.7-6.8,11.6-8.1,22.2-3.9c-0.9-3.2,2.8-7.3-3-9.1c-0.9-0.3-0.8-3.7-1.2-6.3c2.5,0,4.1,0,5.7,0
		c4.3-0.1,6.4,1.8,6.3,6.3c-0.1,10.1-0.2,20.3,0.1,30.4c0,2,1.5,4,2.3,6C281.2,323.9,281.9,324.1,282.6,324.4z M252.3,311
		c0.4,2.5,0.4,4,0.8,5.4c1.6,5.5,6.7,8.2,11.6,6.3c5.3-2.1,7.7-10.5,4.8-16.9c-2.2-4.8-7.2-7-11.5-4.7c-1.4,0.8-2.9,2-3.6,3.3
		C253.3,306.7,252.8,309.3,252.3,311z"/>
	<path class="st0" d="M147.4,296.4c-0.7-3.4,2.9-7.7-3.3-9.2c-0.7-0.2-0.7-3.5-1-5.3c9.3-2.5,11.9-0.6,11.9,8
		c0,9.3-0.1,18.6,0.1,27.9c0.1,1.9,1.5,3.9,2.3,5.8c0.8,0.1,1.6,0.2,2.3,0.3c-1.3,1.6-2.4,4.2-3.9,4.5c-2.7,0.5-5.6-0.5-8.3-1.6
		c-9.1,4.4-15.8,4.1-21.1-1.7c-5.6-6.1-6.2-18.2-1.3-25.2C129.8,293.2,136.8,292,147.4,296.4z M129.3,311.7c0,6.7,3.9,11.5,9.2,11.5
		c5.4,0,9.3-4.8,9.3-11.5c0-6.5-4-11.5-9.3-11.5C133.3,300.2,129.3,305.1,129.3,311.7z"/>
	<path class="st0" d="M41.7,294.4c-2.2,0-4.1,0-6,0c-1.4-6.2-4.1-8.3-10.1-6.9c-2.2,0.5-5.1,2.7-5.5,4.5c-0.4,1.9,1.5,4.8,3.2,6.4
		c1.7,1.6,4.5,2.1,6.7,3.1c2.4,1.1,5,1.9,7.2,3.3c8.6,5.4,8.2,17.8-0.8,22.6c-6.8,3.6-13.9,3.3-20.5-0.4c-2.1-1.2-4-3.7-4.8-6
		c-1.6-5.2,0.3-7.1,6.1-6.9c2,7.5,4.9,10,11.4,8.3c2.6-0.6,5.9-3.2,6.5-5.5c0.5-1.8-2-5.4-4.1-6.9c-3-2.2-7.3-2.6-10.3-4.7
		c-3.2-2.2-6.9-5.1-8.3-8.6c-2.8-6.7,1.3-13.6,8.4-15.5c3.1-0.8,6.6-1.2,9.8-0.7C42.1,282.2,42.9,286.4,41.7,294.4z"/>
	<path class="st0" d="M193.4,294.9c5.4-1.2,8.3,0.1,9.9,4.9c2,6.2,4.6,12.3,7.3,19.6c2.7-7,5.3-12.9,7.2-19c1.4-4.7,4.2-6.1,8.8-6.1
		c12.2,0.1,12.2-0.1,12.2,12.3c0,4-0.2,8,0.1,11.9c0.1,1.7,1.4,3.3,2.9,4.9c1.3,4.3-1.2,5.5-5.1,5.5c-3.9,0.1-5.4-1.7-5.3-5.5
		c0.1-7.3,0-14.6,0-21.8c-4-1.6-6.2-0.8-7.6,3.1c-2.4,6.9-5.3,13.6-7.7,20.5c-1,2.9-2.5,3.8-5.4,3.7c-2.7-0.1-4.6-0.4-5.7-3.4
		C201.4,315.4,197.5,305.4,193.4,294.9z"/>
	<path class="st0" d="M50.4,304.6c-1.1-6.7,0-8.6,5.2-10.2C68,290.6,76,296.3,76,309.1c0,3-0.3,6,0.1,9c0.2,1.9,1.5,3.6,2.3,5.4
		c0.8,0,1.5,0,2.3,0c-1,1.6-1.8,4.5-3,4.7c-3.1,0.4-6.3-0.4-11-0.9c-2.3,2-6.6,3.7-11.7,2c-4.7-1.5-7.8-4.5-8-9.6
		c-0.2-4.9,2.2-8.5,6.7-10c4.7-1.5,9.6-2.2,15.8-3.6c-1.7-2.1-2.8-5-4.8-5.8c-2.6-1-5.9-1.9-8.1,2.2
		C55.8,303.9,52.6,303.9,50.4,304.6z M68.4,312.5c-3.3,0.4-6.6,0.6-9.7,1.3c-3,0.7-5.4,3.2-3.7,6.1c1.1,1.8,4.4,3.3,6.7,3.2
		C65.7,323.1,68.2,318.8,68.4,312.5z"/>
	<path class="st0" d="M189.8,319.6c2.4,3.9,1.2,6.3-2.1,8.1c-6.3,3.6-15.4,2.5-21-2.4c-5.8-5.1-7.6-13.9-4.4-21.5
		c2.9-6.9,9.2-10.6,17.3-10.1c9.2,0.6,14.8,8.5,12.9,18.9c-7.7,0-15.4,0-23.2,0C168.6,322.7,177.3,325.5,189.8,319.6z M169.2,307
		c5.5,0,10.6,0,15.9,0c-0.4-4.8-2.9-7-7.1-7.1C173.4,299.8,170.4,302.3,169.2,307z"/>
	<path class="st0" d="M80,294.7c5.2-0.1,10-1.9,11.8,2.8c4.3-1.3,8.4-3.3,12.6-3.6c6.7-0.5,10.6,3.3,11.2,10c0.4,4.6,0,9.3,0.4,13.9
		c0.2,2,1.6,4,3.1,5.8c1.2,4.5-1.7,5.3-5.5,5.4c-4,0.1-5.1-2.1-5.1-5.7c0.1-5.3,0.2-10.6-0.2-15.9c-0.5-6.5-5.7-8.9-11.3-5.2
		c-4,2.6-5.3,6.7-5.3,11.2c0,4.9,0,9.9,0,15.2c-2.5,0-4.5,0-7.3,0c0-7.6,0-15.2,0-22.8c0-2.2,0.8-4.7-2.9-5.2
		C80.9,300.4,80.6,297,80,294.7z"/>
	<path class="st0" d="M134.6,206.2c-13.4,4.6-35-7.4-36.7-20.4C112,189.4,122.4,198.4,134.6,206.2z"/>
	<path class="st0" d="M115.2,33.8c-1.6-13.1,20.1-28,34.8-23.3C137.8,18.6,126.7,26.1,115.2,33.8z"/>
	<path class="st0" d="M231.7,281.1c2,0,3.8,0,6,0c0,2.3,0,4.6,0,7.3c-1.9,0-3.8,0-6,0C231.7,286.1,231.7,283.7,231.7,281.1z"/>
</g>
</svg>
