<svg version="1.1" id="Capa_1" xmlns="http://www.w3.org/2000/svg" xmlns:xlink="http://www.w3.org/1999/xlink" x="0px" y="0px"
	 viewBox="0 0 595.3 301.1" style="enable-background:new 0 0 595.3 301.1;" xml:space="preserve">
<style type="text/css">
	.st0{fill:#E0D3FB;}
</style>
<g>
	<g>
		<path class="st0" d="M408.5,188.7c1.7,1.7,3.8,3,6.1,3.4c-11.8,35.7-38.6,55-48.4,61.4c-7.1,4.5-14.1,9-21.1,13.5
			c-8.3,4.4-21.4,10.1-38.4,12.7c-8.2,1.3-27.6,3.5-50.6-2.6c-39.5-10.4-61.3-37.7-67-45.2c-1.4-1.7-4.4-5.8-8-11.9
			c2.4-1.7,3.8-4.8,5.1-10.3c0.5-2,1-4.1,1.6-6c0.6-2,1.4-3.9,2.1-5.8c1,9,4.2,16.3,12.7,20.5c10.1,5,20.4,4.2,30.3-0.7
			c3-1.5,4.9-1.6,7.7,0.3c9.1,6.2,18.3,5.2,26.2-2.3c1.6-1.6,3.1-3.2,4.8-4.9c0.4,0.4,0.8,0.6,1,0.9c7,9.2,21.3,12.1,31.1,5.8
			c4.3-2.7,8.4-3.2,13.1-2.4c8,1.4,11.6-1.5,11.8-9.4c0-4.1-0.5-8.2,0.3-12.3c1.9,0.2,2.7,1.5,3.6,2.4c7.1,7.4,14.2,14.9,21.3,22.3
			c3.5,3.7,7.6,4.8,12.5,2.5c4.7-2.2,9.5-1.9,14.4-0.6c2.1,0.6,4.1,1.2,6.3,1.4c7.8,1,10.8-1.5,11.6-9c0.8-7.9,3-15.5,6-22.9
			C405.3,187.1,406.4,186.5,408.5,188.7z"/>
		<path class="st0" d="M417.1,137.7c-5.7-1.3-12.2,0.2-16.1,4.4c-1.5,1.7-2.3,2.1-4.4,0.6c-11-7.8-21.8-3.3-24,10
			c-1.1,6.8-1.6,13.6-2.7,20.4c-0.7,4.7-0.5,9.6-2.3,14.6c-7.7-7.2-15-14.2-22.3-21.2c-1.6-1.5-1-2.6,0.5-3.7c2.9-2,5.8-4,8.5-6.2
			c2.9-2.4,3.8-5.5,2.6-9.1c-2.3-7.3-9.6-10.3-16.6-7c-1.7,0.8-3.1,2.3-5.5,2.5c3.2-12.4,6.1-24.5,9.4-36.5
			c1.9-6.9,1.3-13.5-0.2-20.3c-0.6-2.5-1.5-2.7-3.3-1.1c-6.3,5.9-12.3,12.1-16.3,19.8c-10.1,19.5-17.2,40.1-21.6,61.7
			c-1.6,7.8-2.1,15.8-3.2,23.7c-0.3,2.1-1.1,4.7-3.7,4.3c-2.8-0.4-2.3-3.2-2.1-5.2c0.5-4.2,1.2-8.3,2-12.4
			c1.3-6.8,2.9-13.4,4.2-20.2c1.7-9-0.5-12.6-9.3-15.4c-1.3-0.4-2.7-0.7-4.1-0.9c-7.6-1.2-11.5,1.3-13.5,8.6
			c-1.9,6.9-4.1,13.7-7,20.2c-2.4,5.5-4.7,11.1-8.6,15.8c1.2-10.1,4.4-19.6,7.8-29.1c2.8-7.7-0.6-13.2-8.8-14.5
			c-6.3-1-13.1,2.1-16.2,7.7c-3.3,5.9-5.9,12.1-7.8,18.5c-1.9,6.5-3.2,13.1-3.7,19.8c-0.2,3-0.4,6.2-3,8.5c-1,0.8-2,1.7-3.4,1.1
			c-1.2-0.5-1.6-1.7-1.5-2.8c0-2.4,0-4.7,0.4-7.1c1.6-11.1,5.4-21.7,8.2-32.5c2.2-8.3,0.4-12.2-7.4-16c-9.7-4.7-19.4-2.4-26,6.3
			c-1.8,2.3-3.4,4.8-5.1,7.2c-0.3-2.4,0.2-4.4,0.7-6.4c4.6-17.6,11-34.7,16.7-52c0.9-2.5,2-5.2,0.4-7.7c-4.2-6.3-10.6-8.4-17.9-8.6
			c-1.5,0-2.7,0.2-3.8,0.6c1.4-3.4,3-7.1,4.7-11.3c6-14.3,8-15.6,9.9-15.7c9.7-0.4,17.1,40.3,20.7,39.6c1.8-0.4,3.6-11.9-1-23
			c-5.4-13-16.6-18.4-17.7-30.5c-0.2-2.3,0-4.6,1.4-6.1c2.6-2.5,7.7-1.2,12.5,0c7.3,1.9,8.4,4,13.5,4.8c2.8,0.5,7.2,0.6,12.8-1.5
			c2.9-0.7,7.1-1.4,12.2-1.5c14.8-0.2,25.6,5.4,31.4,8.4c22.8,11.8,35.2,33.2,39.2,40.6c-10.4-34.9-25.2-48.3-38.5-53.3
			c-13.4-5.1-28.8-3-28.9-4.9c0-1.8,13.9-4.1,26.4-4.8c7.2-0.4,18.4-1.3,30.4,1.2c26.8,5.4,43.8,21,55.3,31.6
			c7.5,6.9,20.3,18.8,30.4,38.1C405,95.5,414.5,113.5,417.1,137.7z"/>
	</g>
	<g>
		<g>
			<path class="st0" d="M340.8,95.7c0.9,5.1-0.4,8.9-1.4,12.7c-4.1,16.1-8.2,32.1-12.3,48.2c-0.3,1.2-1.3,2.7,0.1,3.5
				c1.3,0.7,2.3-0.8,3.2-1.7c4.1-4,8.9-6.9,13.8-9.8c4.3-2.5,6.3-0.1,8.3,2.7c2.1,3.1-0.4,4.6-2.6,6.1c-3.6,2.5-7.1,5-10.8,7.4
				c-2.7,1.7-3.1,3.4-0.7,5.7c12.1,11.2,23.9,22.7,35.8,35.7c1.1-9.2,2-17.3,3-25.5c0.9-7.8,1.7-15.7,2.8-23.5
				c1.3-9.4,7.9-12.1,15.7-6.6c1.7,1.2,1.1,2.6,0.9,3.9c-0.8,5.1-1.7,10.2-2.6,15.3c-0.3,1.8-1.3,4.1,1.3,5c2.8,1,3-1.6,3.7-3.3
				c2.9-6.5,5.4-13.1,7.5-19.9c0.9-2.9,2.5-4.9,5.7-5.2c3.9-0.4,7.9-0.2,11.1,2.4c1.7,1.4,0.5,3.3-0.2,4.9c-2.1,4.7-5.1,9-6.3,14.1
				c-0.8,3.2-1.6,6.6,1.7,8.8c3.2,2.1,6.5,1,9.6-0.9c2.9-1.8,4.3-4.7,5.6-7.7c4.8-11.3,12.2-19.7,24.6-22.8c8.8-2.3,17-0.4,24.9,3.7
				c1.8,0.9,3.7,2.2,3.4,4.3c-0.5,3.8,1.8,4.5,4.5,4.5c4.4,0,4.1,2,2.9,5.2c-4,11.1-7.3,22.4-7.2,34.3c0,4.4,0.5,8.6,5.8,9.8
				c4.2,1,8.5-1.6,10.8-6.4c1.3-2.7,1.4-5.6,1.5-8.5c0.4-11.8,1.8-23.5,5.6-34.7c1-3.1,2.3-6,4.2-8.7c2.7-3.8,8.2-4.7,12.1-2.1
				c2.2,1.4,1.1,3.1,0.7,4.7c-2.4,9.5-5.7,18.9-6.2,28.8c-0.1,1.6-1.4,3.9,0.9,4.7c2.7,0.9,3-1.9,3.7-3.5c5.5-11.5,11-23,17.5-33.9
				c2.9-4.8,6.1-6.8,11.5-5.1c0.9,0.3,1.9,0.3,2.8,0.6c8,2.2,8.6,3.2,6.5,11.2c-2.9,11.2-7.7,21.9-9.5,33.4
				c-0.6,3.7-0.9,7.4-0.4,11.1c0.4,3.2,1.7,5.9,5,7.1c3.5,1.3,6.3-0.1,8.8-2.5c1.8-1.7,3.1-3.7,4.1-5.9c0.8-1.8,1.6-3.2,4-2.1
				c2.1,1,2.8,2.6,2.2,4.7c-0.2,0.6-0.5,1.2-0.8,1.8c-5.2,10.7-21.7,15.6-31.9,9.5c-4.9-3-6.8-7.6-7.1-13c-0.4-8.2,2.6-15.9,4-23.8
				c0.2-1.4,2-3.1-0.5-4.1c-2.2-0.8-3.6,0.2-4.7,2.2c-6.3,11-11.3,22.5-13.8,34.9c-1.5,7.2-9.7,9.9-15,4.8c-2.4-2.3-3.9-2.3-6.5-0.7
				c-4.8,3.1-10.2,3.8-15.9,2.5c-3.7-0.9-6.7-2.5-8.2-6.1s-3.3-3.4-5.7-0.9c-7.1,7.4-16,8.9-25.5,6.5c-12.2-3-19.1-13.5-17.5-26.4
				c0.5-3.8,0-4.7-4-3.7c-10.1,2.4-15.7-1.8-17.1-12c-0.1-0.8-0.3-1.5-0.6-2.8c-2.1,1.7-2.8,3.8-3.7,5.7c-5.7,11.9-9.9,24.2-11,37.4
				c-0.2,2.3-1,3.2-3.3,2.8c-1.3-0.2-2.7-0.1-3.8-0.5c-7.5-2.8-14.8-3.6-22.4,0.1c-2.8,1.4-4.7-1.1-6.5-3.1
				c-9.1-10.1-18-20.4-27.7-29.8c-1.2-1.2-2.4-3.3-4.3-2.8c-2.2,0.6-1.2,3-1.4,4.6c-1,7.1-0.5,14.2-0.5,21.3c0,3.3-0.9,4.4-4.2,3.4
				c-6.1-1.7-11.7-1.9-17.2,2.6c-4,3.3-9.4,3.2-14.5,2.4c-7.4-1.2-10.9-5.5-11.2-13.5c-0.1-1.6,0.6-3.4-1.8-3.8
				c-2.1-0.4-2.8,1.1-3.5,2.6c-1.9,4-4.1,7.7-7.1,10.9c-6.1,6.8-13.4,7.5-21.5,1.2c-3.8-3-6.3-2.9-10.1-0.4
				c-5.2,3.5-11.3,4.6-17.6,4.2c-11.4-0.7-18.4-8.3-17.8-19.8c0.4-7.3,2.2-14.3,4-21.3c0.4-1.5,2.2-3.4-0.4-4.5
				c-2.5-1-3.9,0.5-5,2.5c-6.9,12.1-12.7,24.7-15.2,38.5c-0.8,4.3-2.8,5.2-6.5,5.1c-10-0.2-14.9-5.2-14.1-15
				c2.8-35.3,9.6-69.9,21.4-103.4c0.6-1.7,1.2-3.4,2-4.9c1.4-2.6,1.6-6.5,5.3-6.9c4.8-0.5,9.3,1.3,13.1,4.1c2.2,1.6,0.6,3.9,0,5.8
				c-6.2,19-13.1,37.8-17.8,57.2c-2.3,9.4-4.5,18.8-5.5,28.5c-0.2,1.7-1.1,3.8,1.3,4.5c2.6,0.7,3.2-1.5,4-3.3
				c4.3-9.6,8.9-19,14.6-27.8c5.9-9.2,14.6-10.8,23.8-4.5c2.7,1.8,2.1,4,1.5,6.4c-3,11.7-6.9,23.2-8.8,35.1
				c-0.6,3.5-0.9,7.1-0.3,10.6c1.3,7.2,8.2,9.7,13.9,5.1c3.6-2.9,5.3-6.7,5.6-11.3c1-14,4.5-27.3,11.4-39.6
				c2.7-4.9,10.6-6.3,14.9-2.6c1.8,1.6,0.6,3.3,0,4.9c-4.1,11.4-7.9,22.9-9.1,35c-0.2,2.6-0.2,5.1-0.2,7.7c0,1.4-0.2,3,1.8,3.5
				c1.7,0.4,3.3,0.1,4.3-1.4c2.4-3.5,4.9-6.8,7-10.5c6.9-12.1,12-25,15.4-38.5c1-3.7,2.8-4.7,6.2-4.1c1.3,0.2,2.5,0.5,3.8,0.8
				c7.1,2.2,7.3,2.6,5.9,9.8c-2.1,10.8-4.9,21.4-6.2,32.3c-0.1,0.8-0.2,1.6-0.3,2.4c-0.2,6.9,2.6,11.4,7.5,11.6
				c4.7,0.2,10.1-5.2,10.4-11c1.3-26.8,9.1-51.9,19.7-76.3C329.4,110.6,333.7,102.8,340.8,95.7z M444.2,190.1
				c-0.1,2.3,0.1,6.4,1.9,10.3c1.5,3.3,3.9,5.4,7.7,5.8c3.7,0.4,5.7-1.8,7.3-4.5c7-11.8,10.4-24.8,13.3-38.1c0.4-1.8,0.3-3.9,0-5.8
				c-0.8-5.2-5.5-7.9-10.4-6c-2.5,0.9-4.5,2.5-6.4,4.3C448.5,164.9,444.1,175.6,444.2,190.1z"/>
		</g>
		<g>
			<path class="st0" d="M112.5,68.2c5.7,0.1,11.3,0.1,16.9,1.1c9,1.5,14.3,7,16.5,15.6c1.4,5.2,1.4,10.5,1.3,15.9
				c0,1.2,0.2,2.4-1.7,2.8c-6.9,1.5-14.6-2-16.2-8.8c-4.5-18.9-34.2-26.3-50.5-15.4c-7.7,5.1-7.8,17.3-0.6,24.7
				c2.8,2.8,6.2,4.6,9.7,6.3c13.4,6.4,27.8,10.6,41,17.5c18.3,9.5,28.6,30,25,50.2c-2,11.2-8.3,19.6-18.1,25
				c-25.2,13.8-51.5,15.3-78.2,5c-13.3-5.2-21.1-15.5-22.3-29.8c-1.2-14.2,5.9-24.5,17.7-31.5c13.9-8.3,28.8-11.7,44.6-6.4
				c9.1,3,13.4,9.4,13.2,17.6c-0.1,1.9,0,4.1-1.9,5.2c-2,1-3.7-0.4-5.4-1.4c-3-1.9-5.1-4.3-5.6-8c-1.9-13.1-13.4-18.6-25.1-12
				c-18.9,10.7-23.8,33.5-11.2,51.8c10,14.5,29.5,21.5,46.4,16.3c15.1-4.6,21.6-16.2,23.4-30.8c3.2-25.5-13.9-45.5-40.1-47.3
				c-4.5-0.3-9.1,0.2-13.6-0.1c-13.5-0.9-23.6-7.4-29.8-19.4c-3.5-6.8-2.6-13.8,1.1-20.4c5.3-9.6,13.7-15.3,24.1-18.3
				C86,69.9,99.1,68.1,112.5,68.2z"/>
		</g>
	</g>
</g>
</svg>
