<svg version="1.1" id="Capa_1" xmlns="http://www.w3.org/2000/svg" xmlns:xlink="http://www.w3.org/1999/xlink" x="0px" y="0px"
	 viewBox="0 0 595.3 301.1" style="enable-background:new 0 0 595.3 301.1;" xml:space="preserve">
<style type="text/css">
	.st0{fill:#E0D3FB;}
</style>
<g>
	<path class="st0" d="M298,6C139.6,6,11.2,70.5,11.2,150S139.6,294,298,294s286.8-64.5,286.8-144S456.4,6,298,6z M118.9,90.5
		c-6.9,2.8-13.8,5.7-20.7,8.5c-1.9,0.8-2.5,1.8-2.5,3.9c0.1,21.7,0.1,43.4,0.1,65.1c0,9.8-0.1,19.7-0.2,29.5c0,1.8,0.6,2.4,2.3,2.5
		c2.2,0.1,4.4,0.5,6.7,0.8c1,0.1,1.6,0.3,1.6,1.5c0,5.3,0,10.6,0,16.4c-16.4-2.1-32.6-4.2-48.8-6.3v-17c3.7,0.4,7.2,0.9,11,1.3
		v-85.3c-7.9,5.6-15.7,11.2-23.8,16.9c-0.1-2-0.2-3.8-0.2-5.6c-0.1-3.5,0-6.9-0.2-10.4c-0.1-1.7,0.6-2.7,1.8-3.8
		c9.9-8.4,21-14.9,32.6-20.5c12.9-6.2,25.9-12,38.9-18c0.8-0.3,1.6-0.5,2.7-0.9c0.2,2.5,0.4,4.8,0.5,7.1c0.1,3.9,0.1,7.7,0.3,11.6
		C121,89.3,120.3,89.9,118.9,90.5z M237.5,228.1c-3.4,0-6.6,0.1-9.8,0c-6.3-0.2-12.6-0.6-18.9-0.9c-1.4,0-2.1-0.5-2.7-1.9
		c-8.4-19.1-16.8-38.2-25.2-57.3c-0.4-1-0.9-1.5-2.1-1.5c-2.3,0-4.6-0.2-7.2-0.4v5.7c0,10.8,0,21.6,0,32.3c0,1.6,0.5,2.1,2,2.2
		c2.4,0.1,4.9,0.4,7.3,0.8c0.5,0.1,1.2,0.7,1.2,1.1c0.1,5.6,0,11.2,0,17.1c-4-0.3-7.8-0.5-11.5-0.8c-11.9-1-23.8-2.1-35.7-3.1
		c-1.6-0.1-2.1-0.6-2-2.2c0.1-4.6,0-9.2,0-13.8c0-0.6,0.1-1.2,0.2-1.9c3.5,0.3,6.8,0.5,10.3,0.8V77.9c-3.3,1.2-6.6,2.3-10.2,3.6
		c0-5.5,0-10.5,0.1-15.6c0-0.5,0.9-1.3,1.5-1.5c7.5-2.4,15-5,22.7-7c10.2-2.7,20.5-5.2,30.8-7.3c13.1-2.7,23.1,2,30,13.5
		c5.1,8.6,7.7,18,8.5,27.7c1.8,20.4-3.2,39.1-14.7,56c-1.9,2.7-4.2,5.2-6.5,7.6c-1,1-1.1,1.7-0.6,3c5.5,12.3,10.9,24.6,16.4,37
		c1.9,4.3,3.7,8.7,5.5,13.1c0.5,1.3,1.2,1.9,2.6,1.8c2.6-0.1,5.2,0,8,0V228.1z M340.6,192.6c-4,11.6-9.3,22.6-17.8,31.7
		c-5.2,5.6-11.3,9.9-19,11.6c-10.9,2.4-20-1.1-27.7-8.8c-10.5-10.4-17-23-21.5-36.8c-4.4-13.5-6.8-27.3-7.8-41.4
		c-1.6-22.5,0-44.7,5.4-66.6c3.5-14.1,9-27.4,18-39c5.4-7,12.1-12.2,20.9-14.2c11.1-2.4,20.7,0.7,28.9,8.2
		c8.8,7.9,14.2,18,18.5,28.8c5.3,13.5,8.4,27.6,9.8,42c0.8,8.1,1.2,16.2,1.7,24.3C349.7,152.9,347.2,173.1,340.6,192.6z
		 M454.7,141.5c-6,14.5-17.1,22.5-32.3,24.7c-6.2,0.9-12.5,0.9-18.8,1.3c-0.7,0-1.5,0-2.4,0c-0.2,3-0.5,5.8-0.5,8.6
		c0,10,0.1,20.1,0.1,30.1c0,1.5,0.7,1.9,2,1.9c2.2-0.1,4.5-0.3,6.7-0.4c0.7,0,1.5,0,2.3,0v18.1c-16.3,0.9-32.6,1.7-49,2.6v-18.6H373
		c0.1-1.1,0.1-1.6,0.1-2.2c0-27.5,0-54.9,0-82.4c0-21.1-0.1-42.2,0-63.3c0-1.9-0.5-2.6-2.4-2.8c-2.4-0.2-4.8-0.6-7.2-1.1
		c-0.5-0.1-1.2-0.7-1.2-1.1c0.1-5.5,0.2-11.1,0.3-16.9c4.3,0.3,8.3,0.5,12.4,0.9c13.6,1.3,27,3.8,39.8,8.5
		c7.3,2.7,14.1,6.2,20.8,10.2c11.2,6.8,18.3,16.6,21.8,29C462.2,106.5,461.8,124.2,454.7,141.5z M551.2,192.1
		c-3.2,12.2-12.2,19.5-23.8,23.3c-19.2,6.4-38,2-51.9-15.6c-1.9-2.5-3.7-5-5.4-7.6c-0.3-0.5-0.3-1.5,0-1.9c6.2-6,12.5-12,18.9-18.1
		c1.3,2.2,2.5,4.2,3.8,6.2c4,6.7,9.9,11,17.1,13.4c2.6,0.9,5.8,1,8.6,0.6c6.3-1,9.7-5.4,10.2-11.8c0.7-8.3-3-14.7-9-19.7
		c-6-5.1-12.3-9.7-18.6-14.4c-6.9-5.1-13.9-10.3-19.1-17.3c-8.8-12-10.9-25.4-6.5-39.5c3.5-11.3,13.9-17.2,25.5-15.1
		c15,2.7,27.1,10.6,37.4,21.5c1.8,1.9,3.3,4,5,5.9c1.4,1.5,1.1,2.5-0.4,3.7c-4.1,3.3-8.2,6.8-12,9.9c-3.3-4.2-6.2-8.3-9.5-12
		c-3.6-4.1-7.7-7.4-13.3-8.5c-6.5-1.2-11.4,2.5-12,9.1c-0.5,5.3,1.3,9.9,4.9,13.5c3.6,3.5,7.5,6.6,11.5,9.7
		c8.4,6.4,17.3,12.3,25.2,19.2C551.6,158.6,555.8,174.4,551.2,192.1z"/>
	<path class="st0" d="M188.4,137.3c-2.3,3.8-5.1,7.2-8.9,9.6c-2.8,1.8-5.5,2.4-7.8,1.7v-2.1c0-24.8,0.1-49.6,0-74.4
		c0-1.6,0.5-2.4,2-3c9.2-4,16.5-1.4,20.7,7.8c2.9,6.2,3.9,12.8,4.2,19.5C199.1,110.9,196.2,124.7,188.4,137.3z"/>
	<path class="st0" d="M431.2,135.9c-6.3,9.8-15.2,15.1-27.2,14.1c-1.1-0.1-2.2,0-3.2,0c-0.5-28.9-0.9-57.4-1.4-86.5
		c3.8,1.2,7.3,1.9,10.5,3.3c15.8,6.6,24.9,18.7,27.7,35.5C439.8,114.1,437.9,125.5,431.2,135.9z"/>
	<path class="st0" d="M319.5,130.5v0.2c-0.1,22.6-2.4,41.3-8,59.5c-1.7,5.4-3.7,10.6-7.1,15.2c-2.3,3-4.9,5.4-9.1,5.1
		c-2.7-0.2-4.9-1.5-6.8-3.4c-3.4-3.5-5.4-7.8-6.9-12.3c-3.2-9.1-4.7-18.6-6-28.2c-0.8-6-1.5-11.9-2-17.9c-0.5-6-0.8-12-0.8-18v-0.2
		c0.1-12,1.2-24,2.8-35.9c1.3-9.5,2.8-19,6-28.2c1.6-4.5,3.5-8.8,6.9-12.3c1.9-1.9,4-3.1,6.8-3.4c4.2-0.4,6.9,2,9.1,5.1
		c3.4,4.5,5.5,9.8,7.1,15.2C317.1,89.3,319.3,108,319.5,130.5z"/>
</g>
</svg>
